G04 #@! TF.GenerationSoftware,KiCad,Pcbnew,5.0.2+dfsg1-1*
G04 #@! TF.CreationDate,2021-02-09T18:47:18-07:00*
G04 #@! TF.ProjectId,smart_battery,736d6172-745f-4626-9174-746572792e6b,rev?*
G04 #@! TF.SameCoordinates,Original*
G04 #@! TF.FileFunction,Copper,L1,Top*
G04 #@! TF.FilePolarity,Positive*
%FSLAX46Y46*%
G04 Gerber Fmt 4.6, Leading zero omitted, Abs format (unit mm)*
G04 Created by KiCad (PCBNEW 5.0.2+dfsg1-1) date Tue 09 Feb 2021 06:47:18 PM MST*
%MOMM*%
%LPD*%
G01*
G04 APERTURE LIST*
G04 #@! TA.AperFunction,ComponentPad*
%ADD10O,1.740000X2.200000*%
G04 #@! TD*
G04 #@! TA.AperFunction,Conductor*
%ADD11C,0.100000*%
G04 #@! TD*
G04 #@! TA.AperFunction,ComponentPad*
%ADD12C,1.740000*%
G04 #@! TD*
G04 #@! TA.AperFunction,ComponentPad*
%ADD13O,1.700000X1.700000*%
G04 #@! TD*
G04 #@! TA.AperFunction,ComponentPad*
%ADD14R,1.700000X1.700000*%
G04 #@! TD*
G04 #@! TA.AperFunction,ComponentPad*
%ADD15O,2.500000X1.500000*%
G04 #@! TD*
G04 #@! TA.AperFunction,ComponentPad*
%ADD16R,2.500000X1.500000*%
G04 #@! TD*
G04 #@! TA.AperFunction,ComponentPad*
%ADD17C,1.530000*%
G04 #@! TD*
G04 #@! TA.AperFunction,ComponentPad*
%ADD18C,3.200000*%
G04 #@! TD*
G04 #@! TA.AperFunction,ComponentPad*
%ADD19R,1.530000X1.530000*%
G04 #@! TD*
G04 #@! TA.AperFunction,ComponentPad*
%ADD20C,1.303000*%
G04 #@! TD*
G04 #@! TA.AperFunction,ComponentPad*
%ADD21C,4.000000*%
G04 #@! TD*
G04 #@! TA.AperFunction,ViaPad*
%ADD22C,2.000000*%
G04 #@! TD*
G04 #@! TA.AperFunction,ViaPad*
%ADD23R,2.000000X2.000000*%
G04 #@! TD*
G04 #@! TA.AperFunction,ViaPad*
%ADD24C,0.800000*%
G04 #@! TD*
G04 #@! TA.AperFunction,Conductor*
%ADD25C,1.250000*%
G04 #@! TD*
G04 #@! TA.AperFunction,Conductor*
%ADD26C,0.250000*%
G04 #@! TD*
G04 #@! TA.AperFunction,Conductor*
%ADD27C,0.254000*%
G04 #@! TD*
G04 APERTURE END LIST*
D10*
G04 #@! TO.P,JM1,6*
G04 #@! TO.N,/RBEN*
X93980000Y-113030000D03*
G04 #@! TO.P,JM1,5*
G04 #@! TO.N,Net-(JM1-Pad5)*
X91440000Y-113030000D03*
G04 #@! TO.P,JM1,4*
G04 #@! TO.N,/RBTX*
X88900000Y-113030000D03*
G04 #@! TO.P,JM1,3*
G04 #@! TO.N,/RBRX*
X86360000Y-113030000D03*
G04 #@! TO.P,JM1,2*
G04 #@! TO.N,GND*
X83820000Y-113030000D03*
D11*
G04 #@! TD*
G04 #@! TO.N,+5V*
G04 #@! TO.C,JM1*
G36*
X81924505Y-111931204D02*
X81948773Y-111934804D01*
X81972572Y-111940765D01*
X81995671Y-111949030D01*
X82017850Y-111959520D01*
X82038893Y-111972132D01*
X82058599Y-111986747D01*
X82076777Y-112003223D01*
X82093253Y-112021401D01*
X82107868Y-112041107D01*
X82120480Y-112062150D01*
X82130970Y-112084329D01*
X82139235Y-112107428D01*
X82145196Y-112131227D01*
X82148796Y-112155495D01*
X82150000Y-112179999D01*
X82150000Y-113880001D01*
X82148796Y-113904505D01*
X82145196Y-113928773D01*
X82139235Y-113952572D01*
X82130970Y-113975671D01*
X82120480Y-113997850D01*
X82107868Y-114018893D01*
X82093253Y-114038599D01*
X82076777Y-114056777D01*
X82058599Y-114073253D01*
X82038893Y-114087868D01*
X82017850Y-114100480D01*
X81995671Y-114110970D01*
X81972572Y-114119235D01*
X81948773Y-114125196D01*
X81924505Y-114128796D01*
X81900001Y-114130000D01*
X80659999Y-114130000D01*
X80635495Y-114128796D01*
X80611227Y-114125196D01*
X80587428Y-114119235D01*
X80564329Y-114110970D01*
X80542150Y-114100480D01*
X80521107Y-114087868D01*
X80501401Y-114073253D01*
X80483223Y-114056777D01*
X80466747Y-114038599D01*
X80452132Y-114018893D01*
X80439520Y-113997850D01*
X80429030Y-113975671D01*
X80420765Y-113952572D01*
X80414804Y-113928773D01*
X80411204Y-113904505D01*
X80410000Y-113880001D01*
X80410000Y-112179999D01*
X80411204Y-112155495D01*
X80414804Y-112131227D01*
X80420765Y-112107428D01*
X80429030Y-112084329D01*
X80439520Y-112062150D01*
X80452132Y-112041107D01*
X80466747Y-112021401D01*
X80483223Y-112003223D01*
X80501401Y-111986747D01*
X80521107Y-111972132D01*
X80542150Y-111959520D01*
X80564329Y-111949030D01*
X80587428Y-111940765D01*
X80611227Y-111934804D01*
X80635495Y-111931204D01*
X80659999Y-111930000D01*
X81900001Y-111930000D01*
X81924505Y-111931204D01*
X81924505Y-111931204D01*
G37*
D12*
G04 #@! TO.P,JM1,1*
G04 #@! TO.N,+5V*
X81280000Y-113030000D03*
G04 #@! TD*
D10*
G04 #@! TO.P,J12,2*
G04 #@! TO.N,GND*
X104140000Y-113030000D03*
D11*
G04 #@! TD*
G04 #@! TO.N,/THHTR*
G04 #@! TO.C,J12*
G36*
X102244505Y-111931204D02*
X102268773Y-111934804D01*
X102292572Y-111940765D01*
X102315671Y-111949030D01*
X102337850Y-111959520D01*
X102358893Y-111972132D01*
X102378599Y-111986747D01*
X102396777Y-112003223D01*
X102413253Y-112021401D01*
X102427868Y-112041107D01*
X102440480Y-112062150D01*
X102450970Y-112084329D01*
X102459235Y-112107428D01*
X102465196Y-112131227D01*
X102468796Y-112155495D01*
X102470000Y-112179999D01*
X102470000Y-113880001D01*
X102468796Y-113904505D01*
X102465196Y-113928773D01*
X102459235Y-113952572D01*
X102450970Y-113975671D01*
X102440480Y-113997850D01*
X102427868Y-114018893D01*
X102413253Y-114038599D01*
X102396777Y-114056777D01*
X102378599Y-114073253D01*
X102358893Y-114087868D01*
X102337850Y-114100480D01*
X102315671Y-114110970D01*
X102292572Y-114119235D01*
X102268773Y-114125196D01*
X102244505Y-114128796D01*
X102220001Y-114130000D01*
X100979999Y-114130000D01*
X100955495Y-114128796D01*
X100931227Y-114125196D01*
X100907428Y-114119235D01*
X100884329Y-114110970D01*
X100862150Y-114100480D01*
X100841107Y-114087868D01*
X100821401Y-114073253D01*
X100803223Y-114056777D01*
X100786747Y-114038599D01*
X100772132Y-114018893D01*
X100759520Y-113997850D01*
X100749030Y-113975671D01*
X100740765Y-113952572D01*
X100734804Y-113928773D01*
X100731204Y-113904505D01*
X100730000Y-113880001D01*
X100730000Y-112179999D01*
X100731204Y-112155495D01*
X100734804Y-112131227D01*
X100740765Y-112107428D01*
X100749030Y-112084329D01*
X100759520Y-112062150D01*
X100772132Y-112041107D01*
X100786747Y-112021401D01*
X100803223Y-112003223D01*
X100821401Y-111986747D01*
X100841107Y-111972132D01*
X100862150Y-111959520D01*
X100884329Y-111949030D01*
X100907428Y-111940765D01*
X100931227Y-111934804D01*
X100955495Y-111931204D01*
X100979999Y-111930000D01*
X102220001Y-111930000D01*
X102244505Y-111931204D01*
X102244505Y-111931204D01*
G37*
D12*
G04 #@! TO.P,J12,1*
G04 #@! TO.N,/THHTR*
X101600000Y-113030000D03*
G04 #@! TD*
D10*
G04 #@! TO.P,J13,2*
G04 #@! TO.N,/THBAT*
X113030000Y-113030000D03*
D11*
G04 #@! TD*
G04 #@! TO.N,GND*
G04 #@! TO.C,J13*
G36*
X111134505Y-111931204D02*
X111158773Y-111934804D01*
X111182572Y-111940765D01*
X111205671Y-111949030D01*
X111227850Y-111959520D01*
X111248893Y-111972132D01*
X111268599Y-111986747D01*
X111286777Y-112003223D01*
X111303253Y-112021401D01*
X111317868Y-112041107D01*
X111330480Y-112062150D01*
X111340970Y-112084329D01*
X111349235Y-112107428D01*
X111355196Y-112131227D01*
X111358796Y-112155495D01*
X111360000Y-112179999D01*
X111360000Y-113880001D01*
X111358796Y-113904505D01*
X111355196Y-113928773D01*
X111349235Y-113952572D01*
X111340970Y-113975671D01*
X111330480Y-113997850D01*
X111317868Y-114018893D01*
X111303253Y-114038599D01*
X111286777Y-114056777D01*
X111268599Y-114073253D01*
X111248893Y-114087868D01*
X111227850Y-114100480D01*
X111205671Y-114110970D01*
X111182572Y-114119235D01*
X111158773Y-114125196D01*
X111134505Y-114128796D01*
X111110001Y-114130000D01*
X109869999Y-114130000D01*
X109845495Y-114128796D01*
X109821227Y-114125196D01*
X109797428Y-114119235D01*
X109774329Y-114110970D01*
X109752150Y-114100480D01*
X109731107Y-114087868D01*
X109711401Y-114073253D01*
X109693223Y-114056777D01*
X109676747Y-114038599D01*
X109662132Y-114018893D01*
X109649520Y-113997850D01*
X109639030Y-113975671D01*
X109630765Y-113952572D01*
X109624804Y-113928773D01*
X109621204Y-113904505D01*
X109620000Y-113880001D01*
X109620000Y-112179999D01*
X109621204Y-112155495D01*
X109624804Y-112131227D01*
X109630765Y-112107428D01*
X109639030Y-112084329D01*
X109649520Y-112062150D01*
X109662132Y-112041107D01*
X109676747Y-112021401D01*
X109693223Y-112003223D01*
X109711401Y-111986747D01*
X109731107Y-111972132D01*
X109752150Y-111959520D01*
X109774329Y-111949030D01*
X109797428Y-111940765D01*
X109821227Y-111934804D01*
X109845495Y-111931204D01*
X109869999Y-111930000D01*
X111110001Y-111930000D01*
X111134505Y-111931204D01*
X111134505Y-111931204D01*
G37*
D12*
G04 #@! TO.P,J13,1*
G04 #@! TO.N,GND*
X110490000Y-113030000D03*
G04 #@! TD*
D10*
G04 #@! TO.P,JM2,4*
G04 #@! TO.N,/SDA*
X86360000Y-48260000D03*
G04 #@! TO.P,JM2,3*
G04 #@! TO.N,/SCL*
X88900000Y-48260000D03*
G04 #@! TO.P,JM2,2*
G04 #@! TO.N,GND*
X91440000Y-48260000D03*
D11*
G04 #@! TD*
G04 #@! TO.N,+5V*
G04 #@! TO.C,JM2*
G36*
X94624505Y-47161204D02*
X94648773Y-47164804D01*
X94672572Y-47170765D01*
X94695671Y-47179030D01*
X94717850Y-47189520D01*
X94738893Y-47202132D01*
X94758599Y-47216747D01*
X94776777Y-47233223D01*
X94793253Y-47251401D01*
X94807868Y-47271107D01*
X94820480Y-47292150D01*
X94830970Y-47314329D01*
X94839235Y-47337428D01*
X94845196Y-47361227D01*
X94848796Y-47385495D01*
X94850000Y-47409999D01*
X94850000Y-49110001D01*
X94848796Y-49134505D01*
X94845196Y-49158773D01*
X94839235Y-49182572D01*
X94830970Y-49205671D01*
X94820480Y-49227850D01*
X94807868Y-49248893D01*
X94793253Y-49268599D01*
X94776777Y-49286777D01*
X94758599Y-49303253D01*
X94738893Y-49317868D01*
X94717850Y-49330480D01*
X94695671Y-49340970D01*
X94672572Y-49349235D01*
X94648773Y-49355196D01*
X94624505Y-49358796D01*
X94600001Y-49360000D01*
X93359999Y-49360000D01*
X93335495Y-49358796D01*
X93311227Y-49355196D01*
X93287428Y-49349235D01*
X93264329Y-49340970D01*
X93242150Y-49330480D01*
X93221107Y-49317868D01*
X93201401Y-49303253D01*
X93183223Y-49286777D01*
X93166747Y-49268599D01*
X93152132Y-49248893D01*
X93139520Y-49227850D01*
X93129030Y-49205671D01*
X93120765Y-49182572D01*
X93114804Y-49158773D01*
X93111204Y-49134505D01*
X93110000Y-49110001D01*
X93110000Y-47409999D01*
X93111204Y-47385495D01*
X93114804Y-47361227D01*
X93120765Y-47337428D01*
X93129030Y-47314329D01*
X93139520Y-47292150D01*
X93152132Y-47271107D01*
X93166747Y-47251401D01*
X93183223Y-47233223D01*
X93201401Y-47216747D01*
X93221107Y-47202132D01*
X93242150Y-47189520D01*
X93264329Y-47179030D01*
X93287428Y-47170765D01*
X93311227Y-47164804D01*
X93335495Y-47161204D01*
X93359999Y-47160000D01*
X94600001Y-47160000D01*
X94624505Y-47161204D01*
X94624505Y-47161204D01*
G37*
D12*
G04 #@! TO.P,JM2,1*
G04 #@! TO.N,+5V*
X93980000Y-48260000D03*
G04 #@! TD*
D13*
G04 #@! TO.P,J11,5*
G04 #@! TO.N,Net-(J11-Pad5)*
X99060000Y-46990000D03*
G04 #@! TO.P,J11,4*
G04 #@! TO.N,/SCL*
X101600000Y-46990000D03*
G04 #@! TO.P,J11,3*
G04 #@! TO.N,/SDA*
X104140000Y-46990000D03*
G04 #@! TO.P,J11,2*
G04 #@! TO.N,/VPIN*
X106680000Y-46990000D03*
D14*
G04 #@! TO.P,J11,1*
G04 #@! TO.N,GND*
X109220000Y-46990000D03*
G04 #@! TD*
D15*
G04 #@! TO.P,PS1,3*
G04 #@! TO.N,+5V*
X109220000Y-85090000D03*
G04 #@! TO.P,PS1,2*
G04 #@! TO.N,GND*
X109220000Y-82550000D03*
D16*
G04 #@! TO.P,PS1,1*
G04 #@! TO.N,/SOLPWR*
X109220000Y-80010000D03*
G04 #@! TD*
D17*
G04 #@! TO.P,U12,P1_16*
G04 #@! TO.N,/~RST*
X83820000Y-40640000D03*
G04 #@! TO.P,U12,P1_15*
G04 #@! TO.N,/Eth3.3*
X86360000Y-40640000D03*
G04 #@! TO.P,U12,P1_14*
G04 #@! TO.N,Net-(U12-PadP1_14)*
X88900000Y-40640000D03*
G04 #@! TO.P,U12,P1_13*
G04 #@! TO.N,GND*
X91440000Y-40640000D03*
G04 #@! TO.P,U12,P1_12*
G04 #@! TO.N,Net-(U12-PadP1_12)*
X93980000Y-40640000D03*
G04 #@! TO.P,U12,P1_11*
G04 #@! TO.N,Net-(U12-PadP1_11)*
X96520000Y-40640000D03*
G04 #@! TO.P,U12,P1_10*
G04 #@! TO.N,Net-(U12-PadP1_10)*
X99060000Y-40640000D03*
G04 #@! TO.P,U12,P1_9*
G04 #@! TO.N,Net-(U12-PadP1_9)*
X101600000Y-40640000D03*
G04 #@! TO.P,U12,P1_8*
G04 #@! TO.N,Net-(U12-PadP1_8)*
X104140000Y-40640000D03*
G04 #@! TO.P,U12,P1_7*
G04 #@! TO.N,Net-(U12-PadP1_7)*
X106680000Y-40640000D03*
G04 #@! TO.P,U12,P1_6*
G04 #@! TO.N,/SCK*
X109220000Y-40640000D03*
G04 #@! TO.P,U12,P1_5*
G04 #@! TO.N,/MOSI*
X111760000Y-40640000D03*
G04 #@! TO.P,U12,P1_4*
G04 #@! TO.N,/MISO*
X114300000Y-40640000D03*
G04 #@! TO.P,U12,P1_3*
G04 #@! TO.N,Net-(U12-PadP1_3)*
X116840000Y-40640000D03*
G04 #@! TO.P,U12,P1_2*
G04 #@! TO.N,Net-(U12-PadP1_2)*
X119380000Y-40640000D03*
G04 #@! TO.P,U12,P2_12*
G04 #@! TO.N,Net-(U12-PadP2_12)*
X121920000Y-20320000D03*
G04 #@! TO.P,U12,P2_11*
G04 #@! TO.N,Net-(U12-PadP2_11)*
X119380000Y-20320000D03*
G04 #@! TO.P,U12,P2_10*
G04 #@! TO.N,Net-(U12-PadP2_10)*
X116840000Y-20320000D03*
G04 #@! TO.P,U12,P2_9*
G04 #@! TO.N,Net-(U12-PadP2_9)*
X114300000Y-20320000D03*
G04 #@! TO.P,U12,P2_8*
G04 #@! TO.N,Net-(U12-PadP2_8)*
X111760000Y-20320000D03*
G04 #@! TO.P,U12,P2_7*
G04 #@! TO.N,/ENCS*
X109220000Y-20320000D03*
G04 #@! TO.P,U12,P2_6*
G04 #@! TO.N,Net-(U12-PadP2_6)*
X106680000Y-20320000D03*
G04 #@! TO.P,U12,P2_5*
G04 #@! TO.N,Net-(U12-PadP2_5)*
X104140000Y-20320000D03*
G04 #@! TO.P,U12,P2_4*
G04 #@! TO.N,Net-(U12-PadP2_4)*
X101600000Y-20320000D03*
G04 #@! TO.P,U12,P2_3*
G04 #@! TO.N,Net-(U12-PadP2_3)*
X99060000Y-20320000D03*
G04 #@! TO.P,U12,P2_2*
G04 #@! TO.N,Net-(U12-PadP2_2)*
X96520000Y-20320000D03*
D18*
G04 #@! TO.P,U12,P$2*
G04 #@! TO.N,N/C*
X80010000Y-39370000D03*
G04 #@! TO.P,U12,P$1*
X80010000Y-21590000D03*
D19*
G04 #@! TO.P,U12,P2_1*
G04 #@! TO.N,Net-(U12-PadP2_1)*
X93980000Y-20320000D03*
G04 #@! TO.P,U12,P1_1*
G04 #@! TO.N,GND*
X121920000Y-40640000D03*
G04 #@! TD*
D17*
G04 #@! TO.P,U10,P1_16*
G04 #@! TO.N,/~RST*
X31750000Y-116840000D03*
G04 #@! TO.P,U10,P1_15*
G04 #@! TO.N,+3V3*
X34290000Y-116840000D03*
G04 #@! TO.P,U10,P1_14*
G04 #@! TO.N,/AREF*
X36830000Y-116840000D03*
G04 #@! TO.P,U10,P1_13*
G04 #@! TO.N,GND*
X39370000Y-116840000D03*
G04 #@! TO.P,U10,P1_12*
G04 #@! TO.N,/THHTR*
X41910000Y-116840000D03*
G04 #@! TO.P,U10,P1_11*
G04 #@! TO.N,/THBAT*
X44450000Y-116840000D03*
G04 #@! TO.P,U10,P1_10*
G04 #@! TO.N,/RBRX*
X46990000Y-116840000D03*
G04 #@! TO.P,U10,P1_9*
G04 #@! TO.N,/RBTX*
X49530000Y-116840000D03*
G04 #@! TO.P,U10,P1_8*
G04 #@! TO.N,/48VEN*
X52070000Y-116840000D03*
G04 #@! TO.P,U10,P1_7*
G04 #@! TO.N,/RBEN*
X54610000Y-116840000D03*
G04 #@! TO.P,U10,P1_6*
G04 #@! TO.N,/SCK*
X57150000Y-116840000D03*
G04 #@! TO.P,U10,P1_5*
G04 #@! TO.N,/MOSI*
X59690000Y-116840000D03*
G04 #@! TO.P,U10,P1_4*
G04 #@! TO.N,/MISO*
X62230000Y-116840000D03*
G04 #@! TO.P,U10,P1_3*
G04 #@! TO.N,/RX*
X64770000Y-116840000D03*
G04 #@! TO.P,U10,P1_2*
G04 #@! TO.N,/TX*
X67310000Y-116840000D03*
G04 #@! TO.P,U10,P2_12*
G04 #@! TO.N,/SDA*
X69850000Y-96520000D03*
G04 #@! TO.P,U10,P2_11*
G04 #@! TO.N,/SCL*
X67310000Y-96520000D03*
G04 #@! TO.P,U10,P2_10*
G04 #@! TO.N,/SUSET*
X64770000Y-96520000D03*
G04 #@! TO.P,U10,P2_9*
G04 #@! TO.N,/PSET*
X62230000Y-96520000D03*
G04 #@! TO.P,U10,P2_8*
G04 #@! TO.N,/PUSET*
X59690000Y-96520000D03*
G04 #@! TO.P,U10,P2_7*
G04 #@! TO.N,/ENCS*
X57150000Y-96520000D03*
G04 #@! TO.P,U10,P2_6*
G04 #@! TO.N,/SSET*
X54610000Y-96520000D03*
G04 #@! TO.P,U10,P2_5*
G04 #@! TO.N,/HTEN*
X52070000Y-96520000D03*
G04 #@! TO.P,U10,P2_4*
G04 #@! TO.N,/VPIN*
X49530000Y-96520000D03*
G04 #@! TO.P,U10,P2_3*
G04 #@! TO.N,+5V*
X46990000Y-96520000D03*
G04 #@! TO.P,U10,P2_2*
G04 #@! TO.N,Net-(U10-PadP2_2)*
X44450000Y-96520000D03*
D18*
G04 #@! TO.P,U10,P$2*
G04 #@! TO.N,N/C*
X27940000Y-115570000D03*
G04 #@! TO.P,U10,P$1*
X27940000Y-97790000D03*
D19*
G04 #@! TO.P,U10,P2_1*
G04 #@! TO.N,/VBAT*
X41910000Y-96520000D03*
G04 #@! TO.P,U10,P1_1*
G04 #@! TO.N,GND*
X69850000Y-116840000D03*
G04 #@! TD*
D17*
G04 #@! TO.P,U14,P1_16*
G04 #@! TO.N,/~RST*
X67310000Y-20320000D03*
G04 #@! TO.P,U14,P1_15*
G04 #@! TO.N,+3V3*
X64770000Y-20320000D03*
G04 #@! TO.P,U14,P1_14*
G04 #@! TO.N,Net-(U14-PadP1_14)*
X62230000Y-20320000D03*
G04 #@! TO.P,U14,P1_13*
G04 #@! TO.N,GND*
X59690000Y-20320000D03*
G04 #@! TO.P,U14,P1_12*
G04 #@! TO.N,Net-(U14-PadP1_12)*
X57150000Y-20320000D03*
G04 #@! TO.P,U14,P1_11*
G04 #@! TO.N,Net-(U14-PadP1_11)*
X54610000Y-20320000D03*
G04 #@! TO.P,U14,P1_10*
G04 #@! TO.N,Net-(U14-PadP1_10)*
X52070000Y-20320000D03*
G04 #@! TO.P,U14,P1_9*
G04 #@! TO.N,Net-(U14-PadP1_9)*
X49530000Y-20320000D03*
G04 #@! TO.P,U14,P1_8*
G04 #@! TO.N,Net-(U14-PadP1_8)*
X46990000Y-20320000D03*
G04 #@! TO.P,U14,P1_7*
G04 #@! TO.N,Net-(U14-PadP1_7)*
X44450000Y-20320000D03*
G04 #@! TO.P,U14,P1_6*
G04 #@! TO.N,Net-(U14-PadP1_6)*
X41910000Y-20320000D03*
G04 #@! TO.P,U14,P1_5*
G04 #@! TO.N,Net-(U14-PadP1_5)*
X39370000Y-20320000D03*
G04 #@! TO.P,U14,P1_4*
G04 #@! TO.N,Net-(U14-PadP1_4)*
X36830000Y-20320000D03*
G04 #@! TO.P,U14,P1_3*
G04 #@! TO.N,Net-(U14-PadP1_3)*
X34290000Y-20320000D03*
G04 #@! TO.P,U14,P1_2*
G04 #@! TO.N,Net-(U14-PadP1_2)*
X31750000Y-20320000D03*
G04 #@! TO.P,U14,P2_12*
G04 #@! TO.N,Net-(U14-PadP2_12)*
X29210000Y-40640000D03*
G04 #@! TO.P,U14,P2_11*
G04 #@! TO.N,Net-(U14-PadP2_11)*
X31750000Y-40640000D03*
G04 #@! TO.P,U14,P2_10*
G04 #@! TO.N,Net-(U14-PadP2_10)*
X34290000Y-40640000D03*
G04 #@! TO.P,U14,P2_9*
G04 #@! TO.N,/PSET*
X36830000Y-40640000D03*
G04 #@! TO.P,U14,P2_8*
G04 #@! TO.N,/PUSET*
X39370000Y-40640000D03*
G04 #@! TO.P,U14,P2_7*
G04 #@! TO.N,Net-(U14-PadP2_7)*
X41910000Y-40640000D03*
G04 #@! TO.P,U14,P2_6*
G04 #@! TO.N,Net-(U14-PadP2_6)*
X44450000Y-40640000D03*
G04 #@! TO.P,U14,P2_5*
G04 #@! TO.N,Net-(U14-PadP2_5)*
X46990000Y-40640000D03*
G04 #@! TO.P,U14,P2_4*
G04 #@! TO.N,Net-(U14-PadP2_4)*
X49530000Y-40640000D03*
G04 #@! TO.P,U14,P2_3*
G04 #@! TO.N,+5V*
X52070000Y-40640000D03*
G04 #@! TO.P,U14,P2_2*
G04 #@! TO.N,/POUT*
X54610000Y-40640000D03*
D18*
G04 #@! TO.P,U14,P$2*
G04 #@! TO.N,N/C*
X71120000Y-21590000D03*
G04 #@! TO.P,U14,P$1*
X71120000Y-39370000D03*
D19*
G04 #@! TO.P,U14,P2_1*
G04 #@! TO.N,Net-(U14-PadP2_1)*
X57150000Y-40640000D03*
G04 #@! TO.P,U14,P1_1*
G04 #@! TO.N,GND*
X29210000Y-20320000D03*
G04 #@! TD*
D17*
G04 #@! TO.P,U13,P1_16*
G04 #@! TO.N,/~RST*
X68580000Y-45720000D03*
G04 #@! TO.P,U13,P1_15*
G04 #@! TO.N,+3V3*
X66040000Y-45720000D03*
G04 #@! TO.P,U13,P1_14*
G04 #@! TO.N,Net-(U13-PadP1_14)*
X63500000Y-45720000D03*
G04 #@! TO.P,U13,P1_13*
G04 #@! TO.N,GND*
X60960000Y-45720000D03*
G04 #@! TO.P,U13,P1_12*
G04 #@! TO.N,Net-(U13-PadP1_12)*
X58420000Y-45720000D03*
G04 #@! TO.P,U13,P1_11*
G04 #@! TO.N,Net-(U13-PadP1_11)*
X55880000Y-45720000D03*
G04 #@! TO.P,U13,P1_10*
G04 #@! TO.N,Net-(U13-PadP1_10)*
X53340000Y-45720000D03*
G04 #@! TO.P,U13,P1_9*
G04 #@! TO.N,Net-(U13-PadP1_9)*
X50800000Y-45720000D03*
G04 #@! TO.P,U13,P1_8*
G04 #@! TO.N,Net-(U13-PadP1_8)*
X48260000Y-45720000D03*
G04 #@! TO.P,U13,P1_7*
G04 #@! TO.N,Net-(U13-PadP1_7)*
X45720000Y-45720000D03*
G04 #@! TO.P,U13,P1_6*
G04 #@! TO.N,Net-(U13-PadP1_6)*
X43180000Y-45720000D03*
G04 #@! TO.P,U13,P1_5*
G04 #@! TO.N,Net-(U13-PadP1_5)*
X40640000Y-45720000D03*
G04 #@! TO.P,U13,P1_4*
G04 #@! TO.N,Net-(U13-PadP1_4)*
X38100000Y-45720000D03*
G04 #@! TO.P,U13,P1_3*
G04 #@! TO.N,Net-(U13-PadP1_3)*
X35560000Y-45720000D03*
G04 #@! TO.P,U13,P1_2*
G04 #@! TO.N,Net-(U13-PadP1_2)*
X33020000Y-45720000D03*
G04 #@! TO.P,U13,P2_12*
G04 #@! TO.N,Net-(U13-PadP2_12)*
X30480000Y-66040000D03*
G04 #@! TO.P,U13,P2_11*
G04 #@! TO.N,Net-(U13-PadP2_11)*
X33020000Y-66040000D03*
G04 #@! TO.P,U13,P2_10*
G04 #@! TO.N,/SUSET*
X35560000Y-66040000D03*
G04 #@! TO.P,U13,P2_9*
G04 #@! TO.N,Net-(U13-PadP2_9)*
X38100000Y-66040000D03*
G04 #@! TO.P,U13,P2_8*
G04 #@! TO.N,Net-(U13-PadP2_8)*
X40640000Y-66040000D03*
G04 #@! TO.P,U13,P2_7*
G04 #@! TO.N,Net-(U13-PadP2_7)*
X43180000Y-66040000D03*
G04 #@! TO.P,U13,P2_6*
G04 #@! TO.N,/SSET*
X45720000Y-66040000D03*
G04 #@! TO.P,U13,P2_5*
G04 #@! TO.N,Net-(U13-PadP2_5)*
X48260000Y-66040000D03*
G04 #@! TO.P,U13,P2_4*
G04 #@! TO.N,Net-(U13-PadP2_4)*
X50800000Y-66040000D03*
G04 #@! TO.P,U13,P2_3*
G04 #@! TO.N,+5V*
X53340000Y-66040000D03*
G04 #@! TO.P,U13,P2_2*
G04 #@! TO.N,Net-(U13-PadP2_2)*
X55880000Y-66040000D03*
D18*
G04 #@! TO.P,U13,P$2*
G04 #@! TO.N,N/C*
X72390000Y-46990000D03*
G04 #@! TO.P,U13,P$1*
X72390000Y-64770000D03*
D19*
G04 #@! TO.P,U13,P2_1*
G04 #@! TO.N,Net-(U13-PadP2_1)*
X58420000Y-66040000D03*
G04 #@! TO.P,U13,P1_1*
G04 #@! TO.N,GND*
X30480000Y-45720000D03*
G04 #@! TD*
D17*
G04 #@! TO.P,U11,P1_16*
G04 #@! TO.N,/~RST*
X68580000Y-71120000D03*
G04 #@! TO.P,U11,P1_15*
G04 #@! TO.N,+3V3*
X66040000Y-71120000D03*
G04 #@! TO.P,U11,P1_14*
G04 #@! TO.N,Net-(U11-PadP1_14)*
X63500000Y-71120000D03*
G04 #@! TO.P,U11,P1_13*
G04 #@! TO.N,GND*
X60960000Y-71120000D03*
G04 #@! TO.P,U11,P1_12*
G04 #@! TO.N,Net-(U11-PadP1_12)*
X58420000Y-71120000D03*
G04 #@! TO.P,U11,P1_11*
G04 #@! TO.N,Net-(U11-PadP1_11)*
X55880000Y-71120000D03*
G04 #@! TO.P,U11,P1_10*
G04 #@! TO.N,Net-(U11-PadP1_10)*
X53340000Y-71120000D03*
G04 #@! TO.P,U11,P1_9*
G04 #@! TO.N,Net-(U11-PadP1_9)*
X50800000Y-71120000D03*
G04 #@! TO.P,U11,P1_8*
G04 #@! TO.N,Net-(U11-PadP1_8)*
X48260000Y-71120000D03*
G04 #@! TO.P,U11,P1_7*
G04 #@! TO.N,Net-(U11-PadP1_7)*
X45720000Y-71120000D03*
G04 #@! TO.P,U11,P1_6*
G04 #@! TO.N,Net-(U11-PadP1_6)*
X43180000Y-71120000D03*
G04 #@! TO.P,U11,P1_5*
G04 #@! TO.N,Net-(U11-PadP1_5)*
X40640000Y-71120000D03*
G04 #@! TO.P,U11,P1_4*
G04 #@! TO.N,Net-(U11-PadP1_4)*
X38100000Y-71120000D03*
G04 #@! TO.P,U11,P1_3*
G04 #@! TO.N,Net-(U11-PadP1_3)*
X35560000Y-71120000D03*
G04 #@! TO.P,U11,P1_2*
G04 #@! TO.N,Net-(U11-PadP1_2)*
X33020000Y-71120000D03*
G04 #@! TO.P,U11,P2_12*
G04 #@! TO.N,Net-(U11-PadP2_12)*
X30480000Y-91440000D03*
G04 #@! TO.P,U11,P2_11*
G04 #@! TO.N,Net-(U11-PadP2_11)*
X33020000Y-91440000D03*
G04 #@! TO.P,U11,P2_10*
G04 #@! TO.N,Net-(U11-PadP2_10)*
X35560000Y-91440000D03*
G04 #@! TO.P,U11,P2_9*
G04 #@! TO.N,Net-(U11-PadP2_9)*
X38100000Y-91440000D03*
G04 #@! TO.P,U11,P2_8*
G04 #@! TO.N,Net-(U11-PadP2_8)*
X40640000Y-91440000D03*
G04 #@! TO.P,U11,P2_7*
G04 #@! TO.N,Net-(U11-PadP2_7)*
X43180000Y-91440000D03*
G04 #@! TO.P,U11,P2_6*
G04 #@! TO.N,Net-(U11-PadP2_6)*
X45720000Y-91440000D03*
G04 #@! TO.P,U11,P2_5*
G04 #@! TO.N,/HTEN*
X48260000Y-91440000D03*
G04 #@! TO.P,U11,P2_4*
G04 #@! TO.N,Net-(U11-PadP2_4)*
X50800000Y-91440000D03*
G04 #@! TO.P,U11,P2_3*
G04 #@! TO.N,+5V*
X53340000Y-91440000D03*
G04 #@! TO.P,U11,P2_2*
G04 #@! TO.N,Net-(U11-PadP2_2)*
X55880000Y-91440000D03*
D18*
G04 #@! TO.P,U11,P$2*
G04 #@! TO.N,N/C*
X72390000Y-72390000D03*
G04 #@! TO.P,U11,P$1*
X72390000Y-90170000D03*
D19*
G04 #@! TO.P,U11,P2_1*
G04 #@! TO.N,Net-(U11-PadP2_1)*
X58420000Y-91440000D03*
G04 #@! TO.P,U11,P1_1*
G04 #@! TO.N,GND*
X30480000Y-71120000D03*
G04 #@! TD*
D20*
G04 #@! TO.P,PS2,8*
G04 #@! TO.N,Net-(PS2-Pad8)*
X93980000Y-73660000D03*
G04 #@! TO.P,PS2,7*
G04 #@! TO.N,GND*
X93980000Y-76200000D03*
G04 #@! TO.P,PS2,6*
G04 #@! TO.N,+5V*
X93980000Y-78740000D03*
G04 #@! TO.P,PS2,5*
G04 #@! TO.N,Net-(PS2-Pad5)*
X93980000Y-81280000D03*
G04 #@! TO.P,PS2,3*
G04 #@! TO.N,Net-(PS2-Pad3)*
X93980000Y-86360000D03*
G04 #@! TO.P,PS2,2*
G04 #@! TO.N,/BATPWR*
X93980000Y-88900000D03*
G04 #@! TO.P,PS2,1*
G04 #@! TO.N,GND*
X93980000Y-91440000D03*
G04 #@! TD*
D11*
G04 #@! TO.N,GND*
G04 #@! TO.C,JP1*
G36*
X124288017Y-74004815D02*
X124385090Y-74019215D01*
X124480285Y-74043060D01*
X124572683Y-74076120D01*
X124661397Y-74118079D01*
X124745570Y-74168530D01*
X124824393Y-74226990D01*
X124897107Y-74292893D01*
X124963010Y-74365607D01*
X125021470Y-74444430D01*
X125071921Y-74528603D01*
X125113880Y-74617317D01*
X125146940Y-74709715D01*
X125170785Y-74804910D01*
X125185185Y-74901983D01*
X125190000Y-75000000D01*
X125190000Y-77000000D01*
X125185185Y-77098017D01*
X125170785Y-77195090D01*
X125146940Y-77290285D01*
X125113880Y-77382683D01*
X125071921Y-77471397D01*
X125021470Y-77555570D01*
X124963010Y-77634393D01*
X124897107Y-77707107D01*
X124824393Y-77773010D01*
X124745570Y-77831470D01*
X124661397Y-77881921D01*
X124572683Y-77923880D01*
X124480285Y-77956940D01*
X124385090Y-77980785D01*
X124288017Y-77995185D01*
X124190000Y-78000000D01*
X122190000Y-78000000D01*
X122091983Y-77995185D01*
X121994910Y-77980785D01*
X121899715Y-77956940D01*
X121807317Y-77923880D01*
X121718603Y-77881921D01*
X121634430Y-77831470D01*
X121555607Y-77773010D01*
X121482893Y-77707107D01*
X121416990Y-77634393D01*
X121358530Y-77555570D01*
X121308079Y-77471397D01*
X121266120Y-77382683D01*
X121233060Y-77290285D01*
X121209215Y-77195090D01*
X121194815Y-77098017D01*
X121190000Y-77000000D01*
X121190000Y-75000000D01*
X121194815Y-74901983D01*
X121209215Y-74804910D01*
X121233060Y-74709715D01*
X121266120Y-74617317D01*
X121308079Y-74528603D01*
X121358530Y-74444430D01*
X121416990Y-74365607D01*
X121482893Y-74292893D01*
X121555607Y-74226990D01*
X121634430Y-74168530D01*
X121718603Y-74118079D01*
X121807317Y-74076120D01*
X121899715Y-74043060D01*
X121994910Y-74019215D01*
X122091983Y-74004815D01*
X122190000Y-74000000D01*
X124190000Y-74000000D01*
X124288017Y-74004815D01*
X124288017Y-74004815D01*
G37*
D21*
G04 #@! TD*
G04 #@! TO.P,JP1,2*
G04 #@! TO.N,GND*
X123190000Y-76000000D03*
D11*
G04 #@! TO.N,+24V*
G04 #@! TO.C,JP1*
G36*
X124288017Y-66504815D02*
X124385090Y-66519215D01*
X124480285Y-66543060D01*
X124572683Y-66576120D01*
X124661397Y-66618079D01*
X124745570Y-66668530D01*
X124824393Y-66726990D01*
X124897107Y-66792893D01*
X124963010Y-66865607D01*
X125021470Y-66944430D01*
X125071921Y-67028603D01*
X125113880Y-67117317D01*
X125146940Y-67209715D01*
X125170785Y-67304910D01*
X125185185Y-67401983D01*
X125190000Y-67500000D01*
X125190000Y-69500000D01*
X125185185Y-69598017D01*
X125170785Y-69695090D01*
X125146940Y-69790285D01*
X125113880Y-69882683D01*
X125071921Y-69971397D01*
X125021470Y-70055570D01*
X124963010Y-70134393D01*
X124897107Y-70207107D01*
X124824393Y-70273010D01*
X124745570Y-70331470D01*
X124661397Y-70381921D01*
X124572683Y-70423880D01*
X124480285Y-70456940D01*
X124385090Y-70480785D01*
X124288017Y-70495185D01*
X124190000Y-70500000D01*
X122190000Y-70500000D01*
X122091983Y-70495185D01*
X121994910Y-70480785D01*
X121899715Y-70456940D01*
X121807317Y-70423880D01*
X121718603Y-70381921D01*
X121634430Y-70331470D01*
X121555607Y-70273010D01*
X121482893Y-70207107D01*
X121416990Y-70134393D01*
X121358530Y-70055570D01*
X121308079Y-69971397D01*
X121266120Y-69882683D01*
X121233060Y-69790285D01*
X121209215Y-69695090D01*
X121194815Y-69598017D01*
X121190000Y-69500000D01*
X121190000Y-67500000D01*
X121194815Y-67401983D01*
X121209215Y-67304910D01*
X121233060Y-67209715D01*
X121266120Y-67117317D01*
X121308079Y-67028603D01*
X121358530Y-66944430D01*
X121416990Y-66865607D01*
X121482893Y-66792893D01*
X121555607Y-66726990D01*
X121634430Y-66668530D01*
X121718603Y-66618079D01*
X121807317Y-66576120D01*
X121899715Y-66543060D01*
X121994910Y-66519215D01*
X122091983Y-66504815D01*
X122190000Y-66500000D01*
X124190000Y-66500000D01*
X124288017Y-66504815D01*
X124288017Y-66504815D01*
G37*
D21*
G04 #@! TD*
G04 #@! TO.P,JP1,1*
G04 #@! TO.N,+24V*
X123190000Y-68500000D03*
D11*
G04 #@! TO.N,GND*
G04 #@! TO.C,JP3*
G36*
X124288017Y-109564815D02*
X124385090Y-109579215D01*
X124480285Y-109603060D01*
X124572683Y-109636120D01*
X124661397Y-109678079D01*
X124745570Y-109728530D01*
X124824393Y-109786990D01*
X124897107Y-109852893D01*
X124963010Y-109925607D01*
X125021470Y-110004430D01*
X125071921Y-110088603D01*
X125113880Y-110177317D01*
X125146940Y-110269715D01*
X125170785Y-110364910D01*
X125185185Y-110461983D01*
X125190000Y-110560000D01*
X125190000Y-112560000D01*
X125185185Y-112658017D01*
X125170785Y-112755090D01*
X125146940Y-112850285D01*
X125113880Y-112942683D01*
X125071921Y-113031397D01*
X125021470Y-113115570D01*
X124963010Y-113194393D01*
X124897107Y-113267107D01*
X124824393Y-113333010D01*
X124745570Y-113391470D01*
X124661397Y-113441921D01*
X124572683Y-113483880D01*
X124480285Y-113516940D01*
X124385090Y-113540785D01*
X124288017Y-113555185D01*
X124190000Y-113560000D01*
X122190000Y-113560000D01*
X122091983Y-113555185D01*
X121994910Y-113540785D01*
X121899715Y-113516940D01*
X121807317Y-113483880D01*
X121718603Y-113441921D01*
X121634430Y-113391470D01*
X121555607Y-113333010D01*
X121482893Y-113267107D01*
X121416990Y-113194393D01*
X121358530Y-113115570D01*
X121308079Y-113031397D01*
X121266120Y-112942683D01*
X121233060Y-112850285D01*
X121209215Y-112755090D01*
X121194815Y-112658017D01*
X121190000Y-112560000D01*
X121190000Y-110560000D01*
X121194815Y-110461983D01*
X121209215Y-110364910D01*
X121233060Y-110269715D01*
X121266120Y-110177317D01*
X121308079Y-110088603D01*
X121358530Y-110004430D01*
X121416990Y-109925607D01*
X121482893Y-109852893D01*
X121555607Y-109786990D01*
X121634430Y-109728530D01*
X121718603Y-109678079D01*
X121807317Y-109636120D01*
X121899715Y-109603060D01*
X121994910Y-109579215D01*
X122091983Y-109564815D01*
X122190000Y-109560000D01*
X124190000Y-109560000D01*
X124288017Y-109564815D01*
X124288017Y-109564815D01*
G37*
D21*
G04 #@! TD*
G04 #@! TO.P,JP3,2*
G04 #@! TO.N,GND*
X123190000Y-111560000D03*
D11*
G04 #@! TO.N,+48V*
G04 #@! TO.C,JP3*
G36*
X124288017Y-102064815D02*
X124385090Y-102079215D01*
X124480285Y-102103060D01*
X124572683Y-102136120D01*
X124661397Y-102178079D01*
X124745570Y-102228530D01*
X124824393Y-102286990D01*
X124897107Y-102352893D01*
X124963010Y-102425607D01*
X125021470Y-102504430D01*
X125071921Y-102588603D01*
X125113880Y-102677317D01*
X125146940Y-102769715D01*
X125170785Y-102864910D01*
X125185185Y-102961983D01*
X125190000Y-103060000D01*
X125190000Y-105060000D01*
X125185185Y-105158017D01*
X125170785Y-105255090D01*
X125146940Y-105350285D01*
X125113880Y-105442683D01*
X125071921Y-105531397D01*
X125021470Y-105615570D01*
X124963010Y-105694393D01*
X124897107Y-105767107D01*
X124824393Y-105833010D01*
X124745570Y-105891470D01*
X124661397Y-105941921D01*
X124572683Y-105983880D01*
X124480285Y-106016940D01*
X124385090Y-106040785D01*
X124288017Y-106055185D01*
X124190000Y-106060000D01*
X122190000Y-106060000D01*
X122091983Y-106055185D01*
X121994910Y-106040785D01*
X121899715Y-106016940D01*
X121807317Y-105983880D01*
X121718603Y-105941921D01*
X121634430Y-105891470D01*
X121555607Y-105833010D01*
X121482893Y-105767107D01*
X121416990Y-105694393D01*
X121358530Y-105615570D01*
X121308079Y-105531397D01*
X121266120Y-105442683D01*
X121233060Y-105350285D01*
X121209215Y-105255090D01*
X121194815Y-105158017D01*
X121190000Y-105060000D01*
X121190000Y-103060000D01*
X121194815Y-102961983D01*
X121209215Y-102864910D01*
X121233060Y-102769715D01*
X121266120Y-102677317D01*
X121308079Y-102588603D01*
X121358530Y-102504430D01*
X121416990Y-102425607D01*
X121482893Y-102352893D01*
X121555607Y-102286990D01*
X121634430Y-102228530D01*
X121718603Y-102178079D01*
X121807317Y-102136120D01*
X121899715Y-102103060D01*
X121994910Y-102079215D01*
X122091983Y-102064815D01*
X122190000Y-102060000D01*
X124190000Y-102060000D01*
X124288017Y-102064815D01*
X124288017Y-102064815D01*
G37*
D21*
G04 #@! TD*
G04 #@! TO.P,JP3,1*
G04 #@! TO.N,+48V*
X123190000Y-104060000D03*
D11*
G04 #@! TO.N,GND*
G04 #@! TO.C,JP2*
G36*
X124288017Y-45814815D02*
X124385090Y-45829215D01*
X124480285Y-45853060D01*
X124572683Y-45886120D01*
X124661397Y-45928079D01*
X124745570Y-45978530D01*
X124824393Y-46036990D01*
X124897107Y-46102893D01*
X124963010Y-46175607D01*
X125021470Y-46254430D01*
X125071921Y-46338603D01*
X125113880Y-46427317D01*
X125146940Y-46519715D01*
X125170785Y-46614910D01*
X125185185Y-46711983D01*
X125190000Y-46810000D01*
X125190000Y-48810000D01*
X125185185Y-48908017D01*
X125170785Y-49005090D01*
X125146940Y-49100285D01*
X125113880Y-49192683D01*
X125071921Y-49281397D01*
X125021470Y-49365570D01*
X124963010Y-49444393D01*
X124897107Y-49517107D01*
X124824393Y-49583010D01*
X124745570Y-49641470D01*
X124661397Y-49691921D01*
X124572683Y-49733880D01*
X124480285Y-49766940D01*
X124385090Y-49790785D01*
X124288017Y-49805185D01*
X124190000Y-49810000D01*
X122190000Y-49810000D01*
X122091983Y-49805185D01*
X121994910Y-49790785D01*
X121899715Y-49766940D01*
X121807317Y-49733880D01*
X121718603Y-49691921D01*
X121634430Y-49641470D01*
X121555607Y-49583010D01*
X121482893Y-49517107D01*
X121416990Y-49444393D01*
X121358530Y-49365570D01*
X121308079Y-49281397D01*
X121266120Y-49192683D01*
X121233060Y-49100285D01*
X121209215Y-49005090D01*
X121194815Y-48908017D01*
X121190000Y-48810000D01*
X121190000Y-46810000D01*
X121194815Y-46711983D01*
X121209215Y-46614910D01*
X121233060Y-46519715D01*
X121266120Y-46427317D01*
X121308079Y-46338603D01*
X121358530Y-46254430D01*
X121416990Y-46175607D01*
X121482893Y-46102893D01*
X121555607Y-46036990D01*
X121634430Y-45978530D01*
X121718603Y-45928079D01*
X121807317Y-45886120D01*
X121899715Y-45853060D01*
X121994910Y-45829215D01*
X122091983Y-45814815D01*
X122190000Y-45810000D01*
X124190000Y-45810000D01*
X124288017Y-45814815D01*
X124288017Y-45814815D01*
G37*
D21*
G04 #@! TD*
G04 #@! TO.P,JP2,3*
G04 #@! TO.N,GND*
X123190000Y-47810000D03*
D11*
G04 #@! TO.N,/SOLPWR*
G04 #@! TO.C,JP2*
G36*
X124288017Y-52814815D02*
X124385090Y-52829215D01*
X124480285Y-52853060D01*
X124572683Y-52886120D01*
X124661397Y-52928079D01*
X124745570Y-52978530D01*
X124824393Y-53036990D01*
X124897107Y-53102893D01*
X124963010Y-53175607D01*
X125021470Y-53254430D01*
X125071921Y-53338603D01*
X125113880Y-53427317D01*
X125146940Y-53519715D01*
X125170785Y-53614910D01*
X125185185Y-53711983D01*
X125190000Y-53810000D01*
X125190000Y-55810000D01*
X125185185Y-55908017D01*
X125170785Y-56005090D01*
X125146940Y-56100285D01*
X125113880Y-56192683D01*
X125071921Y-56281397D01*
X125021470Y-56365570D01*
X124963010Y-56444393D01*
X124897107Y-56517107D01*
X124824393Y-56583010D01*
X124745570Y-56641470D01*
X124661397Y-56691921D01*
X124572683Y-56733880D01*
X124480285Y-56766940D01*
X124385090Y-56790785D01*
X124288017Y-56805185D01*
X124190000Y-56810000D01*
X122190000Y-56810000D01*
X122091983Y-56805185D01*
X121994910Y-56790785D01*
X121899715Y-56766940D01*
X121807317Y-56733880D01*
X121718603Y-56691921D01*
X121634430Y-56641470D01*
X121555607Y-56583010D01*
X121482893Y-56517107D01*
X121416990Y-56444393D01*
X121358530Y-56365570D01*
X121308079Y-56281397D01*
X121266120Y-56192683D01*
X121233060Y-56100285D01*
X121209215Y-56005090D01*
X121194815Y-55908017D01*
X121190000Y-55810000D01*
X121190000Y-53810000D01*
X121194815Y-53711983D01*
X121209215Y-53614910D01*
X121233060Y-53519715D01*
X121266120Y-53427317D01*
X121308079Y-53338603D01*
X121358530Y-53254430D01*
X121416990Y-53175607D01*
X121482893Y-53102893D01*
X121555607Y-53036990D01*
X121634430Y-52978530D01*
X121718603Y-52928079D01*
X121807317Y-52886120D01*
X121899715Y-52853060D01*
X121994910Y-52829215D01*
X122091983Y-52814815D01*
X122190000Y-52810000D01*
X124190000Y-52810000D01*
X124288017Y-52814815D01*
X124288017Y-52814815D01*
G37*
D21*
G04 #@! TD*
G04 #@! TO.P,JP2,2*
G04 #@! TO.N,/SOLPWR*
X123190000Y-54810000D03*
D11*
G04 #@! TO.N,/SOLPWR*
G04 #@! TO.C,JP2*
G36*
X124288017Y-60314815D02*
X124385090Y-60329215D01*
X124480285Y-60353060D01*
X124572683Y-60386120D01*
X124661397Y-60428079D01*
X124745570Y-60478530D01*
X124824393Y-60536990D01*
X124897107Y-60602893D01*
X124963010Y-60675607D01*
X125021470Y-60754430D01*
X125071921Y-60838603D01*
X125113880Y-60927317D01*
X125146940Y-61019715D01*
X125170785Y-61114910D01*
X125185185Y-61211983D01*
X125190000Y-61310000D01*
X125190000Y-63310000D01*
X125185185Y-63408017D01*
X125170785Y-63505090D01*
X125146940Y-63600285D01*
X125113880Y-63692683D01*
X125071921Y-63781397D01*
X125021470Y-63865570D01*
X124963010Y-63944393D01*
X124897107Y-64017107D01*
X124824393Y-64083010D01*
X124745570Y-64141470D01*
X124661397Y-64191921D01*
X124572683Y-64233880D01*
X124480285Y-64266940D01*
X124385090Y-64290785D01*
X124288017Y-64305185D01*
X124190000Y-64310000D01*
X122190000Y-64310000D01*
X122091983Y-64305185D01*
X121994910Y-64290785D01*
X121899715Y-64266940D01*
X121807317Y-64233880D01*
X121718603Y-64191921D01*
X121634430Y-64141470D01*
X121555607Y-64083010D01*
X121482893Y-64017107D01*
X121416990Y-63944393D01*
X121358530Y-63865570D01*
X121308079Y-63781397D01*
X121266120Y-63692683D01*
X121233060Y-63600285D01*
X121209215Y-63505090D01*
X121194815Y-63408017D01*
X121190000Y-63310000D01*
X121190000Y-61310000D01*
X121194815Y-61211983D01*
X121209215Y-61114910D01*
X121233060Y-61019715D01*
X121266120Y-60927317D01*
X121308079Y-60838603D01*
X121358530Y-60754430D01*
X121416990Y-60675607D01*
X121482893Y-60602893D01*
X121555607Y-60536990D01*
X121634430Y-60478530D01*
X121718603Y-60428079D01*
X121807317Y-60386120D01*
X121899715Y-60353060D01*
X121994910Y-60329215D01*
X122091983Y-60314815D01*
X122190000Y-60310000D01*
X124190000Y-60310000D01*
X124288017Y-60314815D01*
X124288017Y-60314815D01*
G37*
D21*
G04 #@! TD*
G04 #@! TO.P,JP2,1*
G04 #@! TO.N,/SOLPWR*
X123190000Y-62310000D03*
D11*
G04 #@! TO.N,GND*
G04 #@! TO.C,JP4*
G36*
X124288017Y-81374815D02*
X124385090Y-81389215D01*
X124480285Y-81413060D01*
X124572683Y-81446120D01*
X124661397Y-81488079D01*
X124745570Y-81538530D01*
X124824393Y-81596990D01*
X124897107Y-81662893D01*
X124963010Y-81735607D01*
X125021470Y-81814430D01*
X125071921Y-81898603D01*
X125113880Y-81987317D01*
X125146940Y-82079715D01*
X125170785Y-82174910D01*
X125185185Y-82271983D01*
X125190000Y-82370000D01*
X125190000Y-84370000D01*
X125185185Y-84468017D01*
X125170785Y-84565090D01*
X125146940Y-84660285D01*
X125113880Y-84752683D01*
X125071921Y-84841397D01*
X125021470Y-84925570D01*
X124963010Y-85004393D01*
X124897107Y-85077107D01*
X124824393Y-85143010D01*
X124745570Y-85201470D01*
X124661397Y-85251921D01*
X124572683Y-85293880D01*
X124480285Y-85326940D01*
X124385090Y-85350785D01*
X124288017Y-85365185D01*
X124190000Y-85370000D01*
X122190000Y-85370000D01*
X122091983Y-85365185D01*
X121994910Y-85350785D01*
X121899715Y-85326940D01*
X121807317Y-85293880D01*
X121718603Y-85251921D01*
X121634430Y-85201470D01*
X121555607Y-85143010D01*
X121482893Y-85077107D01*
X121416990Y-85004393D01*
X121358530Y-84925570D01*
X121308079Y-84841397D01*
X121266120Y-84752683D01*
X121233060Y-84660285D01*
X121209215Y-84565090D01*
X121194815Y-84468017D01*
X121190000Y-84370000D01*
X121190000Y-82370000D01*
X121194815Y-82271983D01*
X121209215Y-82174910D01*
X121233060Y-82079715D01*
X121266120Y-81987317D01*
X121308079Y-81898603D01*
X121358530Y-81814430D01*
X121416990Y-81735607D01*
X121482893Y-81662893D01*
X121555607Y-81596990D01*
X121634430Y-81538530D01*
X121718603Y-81488079D01*
X121807317Y-81446120D01*
X121899715Y-81413060D01*
X121994910Y-81389215D01*
X122091983Y-81374815D01*
X122190000Y-81370000D01*
X124190000Y-81370000D01*
X124288017Y-81374815D01*
X124288017Y-81374815D01*
G37*
D21*
G04 #@! TD*
G04 #@! TO.P,JP4,3*
G04 #@! TO.N,GND*
X123190000Y-83370000D03*
D11*
G04 #@! TO.N,GND*
G04 #@! TO.C,JP4*
G36*
X124288017Y-88374815D02*
X124385090Y-88389215D01*
X124480285Y-88413060D01*
X124572683Y-88446120D01*
X124661397Y-88488079D01*
X124745570Y-88538530D01*
X124824393Y-88596990D01*
X124897107Y-88662893D01*
X124963010Y-88735607D01*
X125021470Y-88814430D01*
X125071921Y-88898603D01*
X125113880Y-88987317D01*
X125146940Y-89079715D01*
X125170785Y-89174910D01*
X125185185Y-89271983D01*
X125190000Y-89370000D01*
X125190000Y-91370000D01*
X125185185Y-91468017D01*
X125170785Y-91565090D01*
X125146940Y-91660285D01*
X125113880Y-91752683D01*
X125071921Y-91841397D01*
X125021470Y-91925570D01*
X124963010Y-92004393D01*
X124897107Y-92077107D01*
X124824393Y-92143010D01*
X124745570Y-92201470D01*
X124661397Y-92251921D01*
X124572683Y-92293880D01*
X124480285Y-92326940D01*
X124385090Y-92350785D01*
X124288017Y-92365185D01*
X124190000Y-92370000D01*
X122190000Y-92370000D01*
X122091983Y-92365185D01*
X121994910Y-92350785D01*
X121899715Y-92326940D01*
X121807317Y-92293880D01*
X121718603Y-92251921D01*
X121634430Y-92201470D01*
X121555607Y-92143010D01*
X121482893Y-92077107D01*
X121416990Y-92004393D01*
X121358530Y-91925570D01*
X121308079Y-91841397D01*
X121266120Y-91752683D01*
X121233060Y-91660285D01*
X121209215Y-91565090D01*
X121194815Y-91468017D01*
X121190000Y-91370000D01*
X121190000Y-89370000D01*
X121194815Y-89271983D01*
X121209215Y-89174910D01*
X121233060Y-89079715D01*
X121266120Y-88987317D01*
X121308079Y-88898603D01*
X121358530Y-88814430D01*
X121416990Y-88735607D01*
X121482893Y-88662893D01*
X121555607Y-88596990D01*
X121634430Y-88538530D01*
X121718603Y-88488079D01*
X121807317Y-88446120D01*
X121899715Y-88413060D01*
X121994910Y-88389215D01*
X122091983Y-88374815D01*
X122190000Y-88370000D01*
X124190000Y-88370000D01*
X124288017Y-88374815D01*
X124288017Y-88374815D01*
G37*
D21*
G04 #@! TD*
G04 #@! TO.P,JP4,2*
G04 #@! TO.N,GND*
X123190000Y-90370000D03*
D11*
G04 #@! TO.N,/BATPWR*
G04 #@! TO.C,JP4*
G36*
X124288017Y-95874815D02*
X124385090Y-95889215D01*
X124480285Y-95913060D01*
X124572683Y-95946120D01*
X124661397Y-95988079D01*
X124745570Y-96038530D01*
X124824393Y-96096990D01*
X124897107Y-96162893D01*
X124963010Y-96235607D01*
X125021470Y-96314430D01*
X125071921Y-96398603D01*
X125113880Y-96487317D01*
X125146940Y-96579715D01*
X125170785Y-96674910D01*
X125185185Y-96771983D01*
X125190000Y-96870000D01*
X125190000Y-98870000D01*
X125185185Y-98968017D01*
X125170785Y-99065090D01*
X125146940Y-99160285D01*
X125113880Y-99252683D01*
X125071921Y-99341397D01*
X125021470Y-99425570D01*
X124963010Y-99504393D01*
X124897107Y-99577107D01*
X124824393Y-99643010D01*
X124745570Y-99701470D01*
X124661397Y-99751921D01*
X124572683Y-99793880D01*
X124480285Y-99826940D01*
X124385090Y-99850785D01*
X124288017Y-99865185D01*
X124190000Y-99870000D01*
X122190000Y-99870000D01*
X122091983Y-99865185D01*
X121994910Y-99850785D01*
X121899715Y-99826940D01*
X121807317Y-99793880D01*
X121718603Y-99751921D01*
X121634430Y-99701470D01*
X121555607Y-99643010D01*
X121482893Y-99577107D01*
X121416990Y-99504393D01*
X121358530Y-99425570D01*
X121308079Y-99341397D01*
X121266120Y-99252683D01*
X121233060Y-99160285D01*
X121209215Y-99065090D01*
X121194815Y-98968017D01*
X121190000Y-98870000D01*
X121190000Y-96870000D01*
X121194815Y-96771983D01*
X121209215Y-96674910D01*
X121233060Y-96579715D01*
X121266120Y-96487317D01*
X121308079Y-96398603D01*
X121358530Y-96314430D01*
X121416990Y-96235607D01*
X121482893Y-96162893D01*
X121555607Y-96096990D01*
X121634430Y-96038530D01*
X121718603Y-95988079D01*
X121807317Y-95946120D01*
X121899715Y-95913060D01*
X121994910Y-95889215D01*
X122091983Y-95874815D01*
X122190000Y-95870000D01*
X124190000Y-95870000D01*
X124288017Y-95874815D01*
X124288017Y-95874815D01*
G37*
D21*
G04 #@! TD*
G04 #@! TO.P,JP4,1*
G04 #@! TO.N,/BATPWR*
X123190000Y-97870000D03*
D22*
G04 #@! TO.N,/SOLPWR*
G04 #@! TO.C,RP1*
X116080000Y-62230000D03*
D23*
G04 #@! TO.N,+24V*
X116080000Y-67310000D03*
G04 #@! TD*
D22*
G04 #@! TO.N,/BATPWR*
G04 #@! TO.C,RP2*
X114810000Y-97790000D03*
D23*
G04 #@! TO.N,+48V*
X114810000Y-102870000D03*
G04 #@! TD*
D24*
G04 #@! TO.N,/POUT*
X90151800Y-31741400D03*
G04 #@! TO.N,/VPIN*
X82176400Y-67544000D03*
G04 #@! TD*
D25*
G04 #@! TO.N,+48V*
X114810000Y-102870000D02*
X122000000Y-102870000D01*
D26*
X122000000Y-102870000D02*
X123190000Y-104060000D01*
G04 #@! TO.N,/BATPWR*
X114810000Y-97790000D02*
X102870000Y-97790000D01*
X102870000Y-97790000D02*
X93980000Y-88900000D01*
X123190000Y-97870000D02*
X123110000Y-97790000D01*
D25*
X123110000Y-97790000D02*
X114810000Y-97790000D01*
D26*
G04 #@! TO.N,/SOLPWR*
X123110000Y-62230000D02*
X123190000Y-62310000D01*
D25*
X116080000Y-62230000D02*
X123110000Y-62230000D01*
X123110000Y-62230000D02*
X123110000Y-54890000D01*
D26*
X123110000Y-54890000D02*
X123190000Y-54810000D01*
D25*
G04 #@! TO.N,+24V*
X116080000Y-67310000D02*
X122000000Y-67310000D01*
D26*
X122000000Y-67310000D02*
X123190000Y-68500000D01*
G04 #@! TO.N,GND*
X121920000Y-46990000D02*
X109220000Y-46990000D01*
X123190000Y-47810000D02*
X122370000Y-46990000D01*
X122370000Y-46990000D02*
X121920000Y-46990000D01*
X121920000Y-46990000D02*
X121920000Y-40640000D01*
X109220000Y-46990000D02*
X108044700Y-46990000D01*
X108044700Y-46990000D02*
X108044700Y-46622600D01*
X108044700Y-46622600D02*
X107236800Y-45814700D01*
X107236800Y-45814700D02*
X96614700Y-45814700D01*
X96614700Y-45814700D02*
X91440000Y-40640000D01*
X69850000Y-116840000D02*
X68759700Y-116840000D01*
X68759700Y-116840000D02*
X68759700Y-116703700D01*
X68759700Y-116703700D02*
X67802300Y-115746300D01*
X67802300Y-115746300D02*
X54090400Y-115746300D01*
X54090400Y-115746300D02*
X53340000Y-116496700D01*
X53340000Y-116496700D02*
X53340000Y-117124000D01*
X53340000Y-117124000D02*
X52530100Y-117933900D01*
X52530100Y-117933900D02*
X40463900Y-117933900D01*
X40463900Y-117933900D02*
X39370000Y-116840000D01*
X110490000Y-113030000D02*
X105335300Y-113030000D01*
X123190000Y-111560000D02*
X111960000Y-111560000D01*
X111960000Y-111560000D02*
X110490000Y-113030000D01*
X104140000Y-113030000D02*
X105335300Y-113030000D01*
X109220000Y-82550000D02*
X109220000Y-81474700D01*
X93980000Y-76200000D02*
X99254700Y-81474700D01*
X99254700Y-81474700D02*
X109220000Y-81474700D01*
X109220000Y-82550000D02*
X110795300Y-82550000D01*
X123190000Y-83370000D02*
X111615300Y-83370000D01*
X111615300Y-83370000D02*
X110795300Y-82550000D01*
D25*
X123190000Y-47810000D02*
X128270000Y-52890000D01*
X128270000Y-52890000D02*
X128270000Y-57150000D01*
X128270000Y-70920000D02*
X123190000Y-76000000D01*
X128270000Y-57150000D02*
X128270000Y-70920000D01*
X124967817Y-109782183D02*
X126437817Y-109782183D01*
D26*
X123190000Y-111560000D02*
X124967817Y-109782183D01*
D25*
X126437817Y-109782183D02*
X128270000Y-107950000D01*
X128270000Y-95450000D02*
X123190000Y-90370000D01*
X128270000Y-107950000D02*
X128270000Y-95450000D01*
D26*
G04 #@! TO.N,/SCL*
X88900000Y-48260000D02*
X90095300Y-48260000D01*
X101600000Y-46990000D02*
X100424700Y-46990000D01*
X100424700Y-46990000D02*
X100424700Y-47357300D01*
X100424700Y-47357300D02*
X98051300Y-49730700D01*
X98051300Y-49730700D02*
X90968300Y-49730700D01*
X90968300Y-49730700D02*
X90095300Y-48857700D01*
X90095300Y-48857700D02*
X90095300Y-48260000D01*
G04 #@! TO.N,/SDA*
X87555300Y-48260000D02*
X87555300Y-48857700D01*
X87555300Y-48857700D02*
X88878700Y-50181100D01*
X88878700Y-50181100D02*
X100140900Y-50181100D01*
X100140900Y-50181100D02*
X102964700Y-47357300D01*
X102964700Y-47357300D02*
X102964700Y-46990000D01*
X86360000Y-48260000D02*
X87555300Y-48260000D01*
X104140000Y-46990000D02*
X102964700Y-46990000D01*
G04 #@! TO.N,+5V*
X79932200Y-67149800D02*
X91522400Y-78740000D01*
X91522400Y-78740000D02*
X93980000Y-78740000D01*
X79932200Y-67149800D02*
X79932200Y-52695900D01*
X79932200Y-52695900D02*
X85798500Y-46829600D01*
X85798500Y-46829600D02*
X92549600Y-46829600D01*
X92549600Y-46829600D02*
X93980000Y-48260000D01*
X79932200Y-67149800D02*
X54449800Y-67149800D01*
X54449800Y-67149800D02*
X53340000Y-66040000D01*
X53340000Y-66040000D02*
X52070000Y-64770000D01*
X52070000Y-64770000D02*
X52070000Y-40640000D01*
X109220000Y-85090000D02*
X100330000Y-85090000D01*
X100330000Y-85090000D02*
X93980000Y-78740000D01*
X53340000Y-91440000D02*
X50552500Y-94227500D01*
X50552500Y-94227500D02*
X49282500Y-94227500D01*
X49282500Y-94227500D02*
X46990000Y-96520000D01*
G04 #@! TO.N,/~RST*
X68580000Y-71120000D02*
X66040000Y-73660000D01*
X66040000Y-73660000D02*
X66040000Y-96808000D01*
X66040000Y-96808000D02*
X57010800Y-105837200D01*
X57010800Y-105837200D02*
X42752800Y-105837200D01*
X42752800Y-105837200D02*
X31750000Y-116840000D01*
X68580000Y-45720000D02*
X71692400Y-42607600D01*
X71692400Y-42607600D02*
X81852400Y-42607600D01*
X81852400Y-42607600D02*
X83820000Y-40640000D01*
G04 #@! TO.N,/SUSET*
X64770000Y-96520000D02*
X64770000Y-95779200D01*
X64770000Y-95779200D02*
X42642900Y-73652100D01*
X42642900Y-73652100D02*
X41625300Y-73652100D01*
X41625300Y-73652100D02*
X39370000Y-71396800D01*
X39370000Y-71396800D02*
X39370000Y-69850000D01*
X39370000Y-69850000D02*
X35560000Y-66040000D01*
G04 #@! TO.N,/PUSET*
X39370000Y-40640000D02*
X39370000Y-58427900D01*
X39370000Y-58427900D02*
X34451400Y-63346500D01*
X34451400Y-63346500D02*
X34451400Y-66793500D01*
X34451400Y-66793500D02*
X36830000Y-69172100D01*
X36830000Y-69172100D02*
X36830000Y-73199800D01*
X36830000Y-73199800D02*
X54702500Y-91072300D01*
X54702500Y-91072300D02*
X54702500Y-91892500D01*
X54702500Y-91892500D02*
X59330000Y-96520000D01*
X59330000Y-96520000D02*
X59690000Y-96520000D01*
G04 #@! TO.N,/POUT*
X54610000Y-40640000D02*
X63508600Y-31741400D01*
X63508600Y-31741400D02*
X90151800Y-31741400D01*
G04 #@! TO.N,/VPIN*
X106680000Y-46990000D02*
X105504700Y-46990000D01*
X82176400Y-67544000D02*
X85318000Y-67544000D01*
X85318000Y-67544000D02*
X105504700Y-47357300D01*
X105504700Y-47357300D02*
X105504700Y-46990000D01*
G04 #@! TO.N,/THBAT*
X113030000Y-113030000D02*
X111834700Y-113030000D01*
X44450000Y-116840000D02*
X50173300Y-111116700D01*
X50173300Y-111116700D02*
X96269700Y-111116700D01*
X96269700Y-111116700D02*
X99623600Y-114470600D01*
X99623600Y-114470600D02*
X111406100Y-114470600D01*
X111406100Y-114470600D02*
X111834700Y-114042000D01*
X111834700Y-114042000D02*
X111834700Y-113030000D01*
G04 #@! TO.N,/THHTR*
X41910000Y-116840000D02*
X48083700Y-110666300D01*
X48083700Y-110666300D02*
X99236300Y-110666300D01*
X99236300Y-110666300D02*
X101600000Y-113030000D01*
G04 #@! TO.N,/RBEN*
X93980000Y-113030000D02*
X92784700Y-113030000D01*
X54610000Y-116840000D02*
X55700400Y-117930400D01*
X55700400Y-117930400D02*
X88481900Y-117930400D01*
X88481900Y-117930400D02*
X92784700Y-113627600D01*
X92784700Y-113627600D02*
X92784700Y-113030000D01*
G04 #@! TO.N,/RBTX*
X88900000Y-113030000D02*
X87704700Y-113030000D01*
X87704700Y-113030000D02*
X87704700Y-113627600D01*
X87704700Y-113627600D02*
X86869400Y-114462900D01*
X86869400Y-114462900D02*
X75737300Y-114462900D01*
X75737300Y-114462900D02*
X75200800Y-113926400D01*
X75200800Y-113926400D02*
X52443600Y-113926400D01*
X52443600Y-113926400D02*
X49530000Y-116840000D01*
G04 #@! TO.N,/RBRX*
X46990000Y-116840000D02*
X52236900Y-111593100D01*
X52236900Y-111593100D02*
X84325400Y-111593100D01*
X84325400Y-111593100D02*
X85164700Y-112432400D01*
X85164700Y-112432400D02*
X85164700Y-113030000D01*
X86360000Y-113030000D02*
X85164700Y-113030000D01*
G04 #@! TD*
D27*
G04 #@! TO.N,GND*
G36*
X128143000Y-93853000D02*
X119507000Y-93853000D01*
X119507000Y-90655750D01*
X120555000Y-90655750D01*
X120555000Y-92496310D01*
X120651673Y-92729699D01*
X120830302Y-92908327D01*
X121063691Y-93005000D01*
X122904250Y-93005000D01*
X123063000Y-92846250D01*
X123063000Y-90497000D01*
X123317000Y-90497000D01*
X123317000Y-92846250D01*
X123475750Y-93005000D01*
X125316309Y-93005000D01*
X125549698Y-92908327D01*
X125728327Y-92729699D01*
X125825000Y-92496310D01*
X125825000Y-90655750D01*
X125666250Y-90497000D01*
X123317000Y-90497000D01*
X123063000Y-90497000D01*
X120713750Y-90497000D01*
X120555000Y-90655750D01*
X119507000Y-90655750D01*
X119507000Y-88243690D01*
X120555000Y-88243690D01*
X120555000Y-90084250D01*
X120713750Y-90243000D01*
X123063000Y-90243000D01*
X123063000Y-87893750D01*
X123317000Y-87893750D01*
X123317000Y-90243000D01*
X125666250Y-90243000D01*
X125825000Y-90084250D01*
X125825000Y-88243690D01*
X125728327Y-88010301D01*
X125549698Y-87831673D01*
X125316309Y-87735000D01*
X123475750Y-87735000D01*
X123317000Y-87893750D01*
X123063000Y-87893750D01*
X122904250Y-87735000D01*
X121063691Y-87735000D01*
X120830302Y-87831673D01*
X120651673Y-88010301D01*
X120555000Y-88243690D01*
X119507000Y-88243690D01*
X119507000Y-83655750D01*
X120555000Y-83655750D01*
X120555000Y-85496310D01*
X120651673Y-85729699D01*
X120830302Y-85908327D01*
X121063691Y-86005000D01*
X122904250Y-86005000D01*
X123063000Y-85846250D01*
X123063000Y-83497000D01*
X123317000Y-83497000D01*
X123317000Y-85846250D01*
X123475750Y-86005000D01*
X125316309Y-86005000D01*
X125549698Y-85908327D01*
X125728327Y-85729699D01*
X125825000Y-85496310D01*
X125825000Y-83655750D01*
X125666250Y-83497000D01*
X123317000Y-83497000D01*
X123063000Y-83497000D01*
X120713750Y-83497000D01*
X120555000Y-83655750D01*
X119507000Y-83655750D01*
X119507000Y-81243690D01*
X120555000Y-81243690D01*
X120555000Y-83084250D01*
X120713750Y-83243000D01*
X123063000Y-83243000D01*
X123063000Y-80893750D01*
X123317000Y-80893750D01*
X123317000Y-83243000D01*
X125666250Y-83243000D01*
X125825000Y-83084250D01*
X125825000Y-81243690D01*
X125728327Y-81010301D01*
X125549698Y-80831673D01*
X125316309Y-80735000D01*
X123475750Y-80735000D01*
X123317000Y-80893750D01*
X123063000Y-80893750D01*
X122904250Y-80735000D01*
X121063691Y-80735000D01*
X120830302Y-80831673D01*
X120651673Y-81010301D01*
X120555000Y-81243690D01*
X119507000Y-81243690D01*
X119507000Y-76285750D01*
X120555000Y-76285750D01*
X120555000Y-78126310D01*
X120651673Y-78359699D01*
X120830302Y-78538327D01*
X121063691Y-78635000D01*
X122904250Y-78635000D01*
X123063000Y-78476250D01*
X123063000Y-76127000D01*
X123317000Y-76127000D01*
X123317000Y-78476250D01*
X123475750Y-78635000D01*
X125316309Y-78635000D01*
X125549698Y-78538327D01*
X125728327Y-78359699D01*
X125825000Y-78126310D01*
X125825000Y-76285750D01*
X125666250Y-76127000D01*
X123317000Y-76127000D01*
X123063000Y-76127000D01*
X120713750Y-76127000D01*
X120555000Y-76285750D01*
X119507000Y-76285750D01*
X119507000Y-73873690D01*
X120555000Y-73873690D01*
X120555000Y-75714250D01*
X120713750Y-75873000D01*
X123063000Y-75873000D01*
X123063000Y-73523750D01*
X123317000Y-73523750D01*
X123317000Y-75873000D01*
X125666250Y-75873000D01*
X125825000Y-75714250D01*
X125825000Y-73873690D01*
X125728327Y-73640301D01*
X125549698Y-73461673D01*
X125316309Y-73365000D01*
X123475750Y-73365000D01*
X123317000Y-73523750D01*
X123063000Y-73523750D01*
X122904250Y-73365000D01*
X121063691Y-73365000D01*
X120830302Y-73461673D01*
X120651673Y-73640301D01*
X120555000Y-73873690D01*
X119507000Y-73873690D01*
X119507000Y-72517000D01*
X128143000Y-72517000D01*
X128143000Y-93853000D01*
X128143000Y-93853000D01*
G37*
X128143000Y-93853000D02*
X119507000Y-93853000D01*
X119507000Y-90655750D01*
X120555000Y-90655750D01*
X120555000Y-92496310D01*
X120651673Y-92729699D01*
X120830302Y-92908327D01*
X121063691Y-93005000D01*
X122904250Y-93005000D01*
X123063000Y-92846250D01*
X123063000Y-90497000D01*
X123317000Y-90497000D01*
X123317000Y-92846250D01*
X123475750Y-93005000D01*
X125316309Y-93005000D01*
X125549698Y-92908327D01*
X125728327Y-92729699D01*
X125825000Y-92496310D01*
X125825000Y-90655750D01*
X125666250Y-90497000D01*
X123317000Y-90497000D01*
X123063000Y-90497000D01*
X120713750Y-90497000D01*
X120555000Y-90655750D01*
X119507000Y-90655750D01*
X119507000Y-88243690D01*
X120555000Y-88243690D01*
X120555000Y-90084250D01*
X120713750Y-90243000D01*
X123063000Y-90243000D01*
X123063000Y-87893750D01*
X123317000Y-87893750D01*
X123317000Y-90243000D01*
X125666250Y-90243000D01*
X125825000Y-90084250D01*
X125825000Y-88243690D01*
X125728327Y-88010301D01*
X125549698Y-87831673D01*
X125316309Y-87735000D01*
X123475750Y-87735000D01*
X123317000Y-87893750D01*
X123063000Y-87893750D01*
X122904250Y-87735000D01*
X121063691Y-87735000D01*
X120830302Y-87831673D01*
X120651673Y-88010301D01*
X120555000Y-88243690D01*
X119507000Y-88243690D01*
X119507000Y-83655750D01*
X120555000Y-83655750D01*
X120555000Y-85496310D01*
X120651673Y-85729699D01*
X120830302Y-85908327D01*
X121063691Y-86005000D01*
X122904250Y-86005000D01*
X123063000Y-85846250D01*
X123063000Y-83497000D01*
X123317000Y-83497000D01*
X123317000Y-85846250D01*
X123475750Y-86005000D01*
X125316309Y-86005000D01*
X125549698Y-85908327D01*
X125728327Y-85729699D01*
X125825000Y-85496310D01*
X125825000Y-83655750D01*
X125666250Y-83497000D01*
X123317000Y-83497000D01*
X123063000Y-83497000D01*
X120713750Y-83497000D01*
X120555000Y-83655750D01*
X119507000Y-83655750D01*
X119507000Y-81243690D01*
X120555000Y-81243690D01*
X120555000Y-83084250D01*
X120713750Y-83243000D01*
X123063000Y-83243000D01*
X123063000Y-80893750D01*
X123317000Y-80893750D01*
X123317000Y-83243000D01*
X125666250Y-83243000D01*
X125825000Y-83084250D01*
X125825000Y-81243690D01*
X125728327Y-81010301D01*
X125549698Y-80831673D01*
X125316309Y-80735000D01*
X123475750Y-80735000D01*
X123317000Y-80893750D01*
X123063000Y-80893750D01*
X122904250Y-80735000D01*
X121063691Y-80735000D01*
X120830302Y-80831673D01*
X120651673Y-81010301D01*
X120555000Y-81243690D01*
X119507000Y-81243690D01*
X119507000Y-76285750D01*
X120555000Y-76285750D01*
X120555000Y-78126310D01*
X120651673Y-78359699D01*
X120830302Y-78538327D01*
X121063691Y-78635000D01*
X122904250Y-78635000D01*
X123063000Y-78476250D01*
X123063000Y-76127000D01*
X123317000Y-76127000D01*
X123317000Y-78476250D01*
X123475750Y-78635000D01*
X125316309Y-78635000D01*
X125549698Y-78538327D01*
X125728327Y-78359699D01*
X125825000Y-78126310D01*
X125825000Y-76285750D01*
X125666250Y-76127000D01*
X123317000Y-76127000D01*
X123063000Y-76127000D01*
X120713750Y-76127000D01*
X120555000Y-76285750D01*
X119507000Y-76285750D01*
X119507000Y-73873690D01*
X120555000Y-73873690D01*
X120555000Y-75714250D01*
X120713750Y-75873000D01*
X123063000Y-75873000D01*
X123063000Y-73523750D01*
X123317000Y-73523750D01*
X123317000Y-75873000D01*
X125666250Y-75873000D01*
X125825000Y-75714250D01*
X125825000Y-73873690D01*
X125728327Y-73640301D01*
X125549698Y-73461673D01*
X125316309Y-73365000D01*
X123475750Y-73365000D01*
X123317000Y-73523750D01*
X123063000Y-73523750D01*
X122904250Y-73365000D01*
X121063691Y-73365000D01*
X120830302Y-73461673D01*
X120651673Y-73640301D01*
X120555000Y-73873690D01*
X119507000Y-73873690D01*
X119507000Y-72517000D01*
X128143000Y-72517000D01*
X128143000Y-93853000D01*
G04 #@! TD*
M02*
