G04 #@! TF.GenerationSoftware,KiCad,Pcbnew,5.0.2+dfsg1-1*
G04 #@! TF.CreationDate,2021-02-09T18:47:18-07:00*
G04 #@! TF.ProjectId,smart_battery,736d6172-745f-4626-9174-746572792e6b,rev?*
G04 #@! TF.SameCoordinates,Original*
G04 #@! TF.FileFunction,Legend,Top*
G04 #@! TF.FilePolarity,Positive*
%FSLAX46Y46*%
G04 Gerber Fmt 4.6, Leading zero omitted, Abs format (unit mm)*
G04 Created by KiCad (PCBNEW 5.0.2+dfsg1-1) date Tue 09 Feb 2021 06:47:18 PM MST*
%MOMM*%
%LPD*%
G01*
G04 APERTURE LIST*
%ADD10C,0.120000*%
%ADD11C,0.127000*%
%ADD12C,0.100000*%
%ADD13C,0.150000*%
%ADD14C,0.015000*%
G04 APERTURE END LIST*
D10*
G04 #@! TO.C,JM1*
X94780000Y-110600000D02*
X94780000Y-110000000D01*
X93180000Y-110600000D02*
X94780000Y-110600000D01*
X93180000Y-110000000D02*
X93180000Y-110600000D01*
X92240000Y-110600000D02*
X92240000Y-110000000D01*
X90640000Y-110600000D02*
X92240000Y-110600000D01*
X90640000Y-110000000D02*
X90640000Y-110600000D01*
X89700000Y-110600000D02*
X89700000Y-110000000D01*
X88100000Y-110600000D02*
X89700000Y-110600000D01*
X88100000Y-110000000D02*
X88100000Y-110600000D01*
X87160000Y-110600000D02*
X87160000Y-110000000D01*
X85560000Y-110600000D02*
X87160000Y-110600000D01*
X85560000Y-110000000D02*
X85560000Y-110600000D01*
X84620000Y-110600000D02*
X84620000Y-110000000D01*
X83020000Y-110600000D02*
X84620000Y-110600000D01*
X83020000Y-110000000D02*
X83020000Y-110600000D01*
X82080000Y-110600000D02*
X82080000Y-110000000D01*
X80480000Y-110600000D02*
X82080000Y-110600000D01*
X80480000Y-110000000D02*
X80480000Y-110600000D01*
X93730000Y-116020000D02*
X93730000Y-115020000D01*
X81530000Y-116020000D02*
X81530000Y-115020000D01*
X93730000Y-114490000D02*
X93980000Y-115020000D01*
X81530000Y-114490000D02*
X93730000Y-114490000D01*
X81280000Y-115020000D02*
X81530000Y-114490000D01*
X93980000Y-115020000D02*
X93980000Y-116020000D01*
X81280000Y-115020000D02*
X93980000Y-115020000D01*
X81280000Y-116020000D02*
X81280000Y-115020000D01*
X79610000Y-111030000D02*
X79610000Y-115030000D01*
X95360000Y-110000000D02*
X79900000Y-110000000D01*
X95360000Y-116020000D02*
X95360000Y-110000000D01*
X79900000Y-116020000D02*
X95360000Y-116020000D01*
X79900000Y-110000000D02*
X79900000Y-116020000D01*
G04 #@! TO.C,J12*
X104940000Y-110600000D02*
X104940000Y-110000000D01*
X103340000Y-110600000D02*
X104940000Y-110600000D01*
X103340000Y-110000000D02*
X103340000Y-110600000D01*
X102400000Y-110600000D02*
X102400000Y-110000000D01*
X100800000Y-110600000D02*
X102400000Y-110600000D01*
X100800000Y-110000000D02*
X100800000Y-110600000D01*
X103890000Y-116020000D02*
X103890000Y-115020000D01*
X101850000Y-116020000D02*
X101850000Y-115020000D01*
X103890000Y-114490000D02*
X104140000Y-115020000D01*
X101850000Y-114490000D02*
X103890000Y-114490000D01*
X101600000Y-115020000D02*
X101850000Y-114490000D01*
X104140000Y-115020000D02*
X104140000Y-116020000D01*
X101600000Y-115020000D02*
X104140000Y-115020000D01*
X101600000Y-116020000D02*
X101600000Y-115020000D01*
X99930000Y-111030000D02*
X99930000Y-115030000D01*
X105520000Y-110000000D02*
X100220000Y-110000000D01*
X105520000Y-116020000D02*
X105520000Y-110000000D01*
X100220000Y-116020000D02*
X105520000Y-116020000D01*
X100220000Y-110000000D02*
X100220000Y-116020000D01*
G04 #@! TO.C,J13*
X113830000Y-110600000D02*
X113830000Y-110000000D01*
X112230000Y-110600000D02*
X113830000Y-110600000D01*
X112230000Y-110000000D02*
X112230000Y-110600000D01*
X111290000Y-110600000D02*
X111290000Y-110000000D01*
X109690000Y-110600000D02*
X111290000Y-110600000D01*
X109690000Y-110000000D02*
X109690000Y-110600000D01*
X112780000Y-116020000D02*
X112780000Y-115020000D01*
X110740000Y-116020000D02*
X110740000Y-115020000D01*
X112780000Y-114490000D02*
X113030000Y-115020000D01*
X110740000Y-114490000D02*
X112780000Y-114490000D01*
X110490000Y-115020000D02*
X110740000Y-114490000D01*
X113030000Y-115020000D02*
X113030000Y-116020000D01*
X110490000Y-115020000D02*
X113030000Y-115020000D01*
X110490000Y-116020000D02*
X110490000Y-115020000D01*
X108820000Y-111030000D02*
X108820000Y-115030000D01*
X114410000Y-110000000D02*
X109110000Y-110000000D01*
X114410000Y-116020000D02*
X114410000Y-110000000D01*
X109110000Y-116020000D02*
X114410000Y-116020000D01*
X109110000Y-110000000D02*
X109110000Y-116020000D01*
G04 #@! TO.C,JM2*
X85560000Y-50690000D02*
X85560000Y-51290000D01*
X87160000Y-50690000D02*
X85560000Y-50690000D01*
X87160000Y-51290000D02*
X87160000Y-50690000D01*
X88100000Y-50690000D02*
X88100000Y-51290000D01*
X89700000Y-50690000D02*
X88100000Y-50690000D01*
X89700000Y-51290000D02*
X89700000Y-50690000D01*
X90640000Y-50690000D02*
X90640000Y-51290000D01*
X92240000Y-50690000D02*
X90640000Y-50690000D01*
X92240000Y-51290000D02*
X92240000Y-50690000D01*
X93180000Y-50690000D02*
X93180000Y-51290000D01*
X94780000Y-50690000D02*
X93180000Y-50690000D01*
X94780000Y-51290000D02*
X94780000Y-50690000D01*
X86610000Y-45270000D02*
X86610000Y-46270000D01*
X93730000Y-45270000D02*
X93730000Y-46270000D01*
X86610000Y-46800000D02*
X86360000Y-46270000D01*
X93730000Y-46800000D02*
X86610000Y-46800000D01*
X93980000Y-46270000D02*
X93730000Y-46800000D01*
X86360000Y-46270000D02*
X86360000Y-45270000D01*
X93980000Y-46270000D02*
X86360000Y-46270000D01*
X93980000Y-45270000D02*
X93980000Y-46270000D01*
X95650000Y-50260000D02*
X95650000Y-46260000D01*
X84980000Y-51290000D02*
X95360000Y-51290000D01*
X84980000Y-45270000D02*
X84980000Y-51290000D01*
X95360000Y-45270000D02*
X84980000Y-45270000D01*
X95360000Y-51290000D02*
X95360000Y-45270000D01*
G04 #@! TO.C,J11*
X110550000Y-45660000D02*
X110550000Y-46990000D01*
X109220000Y-45660000D02*
X110550000Y-45660000D01*
X107950000Y-45660000D02*
X107950000Y-48320000D01*
X107950000Y-48320000D02*
X97730000Y-48320000D01*
X107950000Y-45660000D02*
X97730000Y-45660000D01*
X97730000Y-45660000D02*
X97730000Y-48320000D01*
G04 #@! TO.C,PS1*
X107100000Y-76590000D02*
X114950000Y-76590000D01*
X114950000Y-76590000D02*
X114950000Y-88530000D01*
X114950000Y-88530000D02*
X107100000Y-88530000D01*
X107100000Y-88530000D02*
X107100000Y-76590000D01*
X109220000Y-76260000D02*
X106770000Y-76260000D01*
X106770000Y-76260000D02*
X106770000Y-78590000D01*
D11*
G04 #@! TO.C,U12*
X125730000Y-41910000D02*
X80010000Y-41910000D01*
X128270000Y-39370000D02*
G75*
G02X125730000Y-41910000I-2540000J0D01*
G01*
X128270000Y-21590000D02*
X128270000Y-39370000D01*
X125730000Y-19050000D02*
G75*
G02X128270000Y-21590000I0J-2540000D01*
G01*
X80010000Y-19050000D02*
X125730000Y-19050000D01*
X77470000Y-21590000D02*
G75*
G02X80010000Y-19050000I2540000J0D01*
G01*
X77470000Y-39370000D02*
X77470000Y-21590000D01*
X80010000Y-41910000D02*
G75*
G02X77470000Y-39370000I0J2540000D01*
G01*
G04 #@! TO.C,U10*
X73660000Y-118110000D02*
X27940000Y-118110000D01*
X76200000Y-115570000D02*
G75*
G02X73660000Y-118110000I-2540000J0D01*
G01*
X76200000Y-97790000D02*
X76200000Y-115570000D01*
X73660000Y-95250000D02*
G75*
G02X76200000Y-97790000I0J-2540000D01*
G01*
X27940000Y-95250000D02*
X73660000Y-95250000D01*
X25400000Y-97790000D02*
G75*
G02X27940000Y-95250000I2540000J0D01*
G01*
X25400000Y-115570000D02*
X25400000Y-97790000D01*
X27940000Y-118110000D02*
G75*
G02X25400000Y-115570000I0J2540000D01*
G01*
G04 #@! TO.C,U14*
X25400000Y-19050000D02*
X71120000Y-19050000D01*
X22860000Y-21590000D02*
G75*
G02X25400000Y-19050000I2540000J0D01*
G01*
X22860000Y-39370000D02*
X22860000Y-21590000D01*
X25400000Y-41910000D02*
G75*
G02X22860000Y-39370000I0J2540000D01*
G01*
X71120000Y-41910000D02*
X25400000Y-41910000D01*
X73660000Y-39370000D02*
G75*
G02X71120000Y-41910000I-2540000J0D01*
G01*
X73660000Y-21590000D02*
X73660000Y-39370000D01*
X71120000Y-19050000D02*
G75*
G02X73660000Y-21590000I0J-2540000D01*
G01*
G04 #@! TO.C,U13*
X26670000Y-44450000D02*
X72390000Y-44450000D01*
X24130000Y-46990000D02*
G75*
G02X26670000Y-44450000I2540000J0D01*
G01*
X24130000Y-64770000D02*
X24130000Y-46990000D01*
X26670000Y-67310000D02*
G75*
G02X24130000Y-64770000I0J2540000D01*
G01*
X72390000Y-67310000D02*
X26670000Y-67310000D01*
X74930000Y-64770000D02*
G75*
G02X72390000Y-67310000I-2540000J0D01*
G01*
X74930000Y-46990000D02*
X74930000Y-64770000D01*
X72390000Y-44450000D02*
G75*
G02X74930000Y-46990000I0J-2540000D01*
G01*
G04 #@! TO.C,U11*
X26670000Y-69850000D02*
X72390000Y-69850000D01*
X24130000Y-72390000D02*
G75*
G02X26670000Y-69850000I2540000J0D01*
G01*
X24130000Y-90170000D02*
X24130000Y-72390000D01*
X26670000Y-92710000D02*
G75*
G02X24130000Y-90170000I0J2540000D01*
G01*
X72390000Y-92710000D02*
X26670000Y-92710000D01*
X74930000Y-90170000D02*
G75*
G02X72390000Y-92710000I-2540000J0D01*
G01*
X74930000Y-72390000D02*
X74930000Y-90170000D01*
X72390000Y-69850000D02*
G75*
G02X74930000Y-72390000I0J-2540000D01*
G01*
D12*
G04 #@! TO.C,PS2*
X90180000Y-91440000D02*
G75*
G02X90280000Y-91440000I50000J0D01*
G01*
X90180000Y-91440000D02*
X90180000Y-91440000D01*
X90280000Y-91440000D02*
G75*
G02X90180000Y-91440000I-50000J0D01*
G01*
X90280000Y-91440000D02*
X90280000Y-91440000D01*
X90655000Y-93440000D02*
X99755000Y-93440000D01*
X90655000Y-71640000D02*
X90655000Y-93440000D01*
X99755000Y-71640000D02*
X90655000Y-71640000D01*
X99755000Y-93440000D02*
X99755000Y-71640000D01*
D13*
G04 #@! TO.C,JP1*
X118110000Y-78740000D02*
X118110000Y-66040000D01*
X128270000Y-78740000D02*
X118110000Y-78740000D01*
X128270000Y-66040000D02*
X128270000Y-78740000D01*
X118110000Y-66040000D02*
X128270000Y-66040000D01*
G04 #@! TO.C,JP3*
X118110000Y-114300000D02*
X118110000Y-101600000D01*
X128270000Y-114300000D02*
X118110000Y-114300000D01*
X128270000Y-101600000D02*
X128270000Y-114300000D01*
X118110000Y-101600000D02*
X128270000Y-101600000D01*
G04 #@! TO.C,JP2*
X128270000Y-44450000D02*
X128270000Y-64770000D01*
X118110000Y-44450000D02*
X128270000Y-44450000D01*
X118110000Y-64770000D02*
X118110000Y-44450000D01*
X128270000Y-64770000D02*
X118110000Y-64770000D01*
G04 #@! TO.C,JP4*
X128270000Y-80010000D02*
X128270000Y-100330000D01*
X118110000Y-80010000D02*
X128270000Y-80010000D01*
X118110000Y-100330000D02*
X118110000Y-80010000D01*
X128270000Y-100330000D02*
X118110000Y-100330000D01*
G04 #@! TO.C,RP1*
X117290000Y-68685000D02*
X117290000Y-70105000D01*
X117290000Y-63605000D02*
X117290000Y-65935000D01*
X117290000Y-59435000D02*
X117290000Y-60855000D01*
X117290000Y-59435000D02*
X113850000Y-59435000D01*
X113850000Y-59435000D02*
X113850000Y-70105000D01*
X117290000Y-70105000D02*
X113850000Y-70105000D01*
G04 #@! TO.C,RP2*
X116020000Y-104245000D02*
X116020000Y-105665000D01*
X116020000Y-99165000D02*
X116020000Y-101495000D01*
X116020000Y-94995000D02*
X116020000Y-96415000D01*
X116020000Y-94995000D02*
X112580000Y-94995000D01*
X112580000Y-94995000D02*
X112580000Y-105665000D01*
X116020000Y-105665000D02*
X112580000Y-105665000D01*
G04 #@! TO.C,JM1*
X86725238Y-108362380D02*
X86725238Y-109076666D01*
X86677619Y-109219523D01*
X86582380Y-109314761D01*
X86439523Y-109362380D01*
X86344285Y-109362380D01*
X87201428Y-109362380D02*
X87201428Y-108362380D01*
X87534761Y-109076666D01*
X87868095Y-108362380D01*
X87868095Y-109362380D01*
X88868095Y-109362380D02*
X88296666Y-109362380D01*
X88582380Y-109362380D02*
X88582380Y-108362380D01*
X88487142Y-108505238D01*
X88391904Y-108600476D01*
X88296666Y-108648095D01*
G04 #@! TO.C,J12*
X102060476Y-108362380D02*
X102060476Y-109076666D01*
X102012857Y-109219523D01*
X101917619Y-109314761D01*
X101774761Y-109362380D01*
X101679523Y-109362380D01*
X103060476Y-109362380D02*
X102489047Y-109362380D01*
X102774761Y-109362380D02*
X102774761Y-108362380D01*
X102679523Y-108505238D01*
X102584285Y-108600476D01*
X102489047Y-108648095D01*
X103441428Y-108457619D02*
X103489047Y-108410000D01*
X103584285Y-108362380D01*
X103822380Y-108362380D01*
X103917619Y-108410000D01*
X103965238Y-108457619D01*
X104012857Y-108552857D01*
X104012857Y-108648095D01*
X103965238Y-108790952D01*
X103393809Y-109362380D01*
X104012857Y-109362380D01*
G04 #@! TO.C,J13*
X110950476Y-108362380D02*
X110950476Y-109076666D01*
X110902857Y-109219523D01*
X110807619Y-109314761D01*
X110664761Y-109362380D01*
X110569523Y-109362380D01*
X111950476Y-109362380D02*
X111379047Y-109362380D01*
X111664761Y-109362380D02*
X111664761Y-108362380D01*
X111569523Y-108505238D01*
X111474285Y-108600476D01*
X111379047Y-108648095D01*
X112283809Y-108362380D02*
X112902857Y-108362380D01*
X112569523Y-108743333D01*
X112712380Y-108743333D01*
X112807619Y-108790952D01*
X112855238Y-108838571D01*
X112902857Y-108933809D01*
X112902857Y-109171904D01*
X112855238Y-109267142D01*
X112807619Y-109314761D01*
X112712380Y-109362380D01*
X112426666Y-109362380D01*
X112331428Y-109314761D01*
X112283809Y-109267142D01*
G04 #@! TO.C,JM2*
X89265238Y-51832380D02*
X89265238Y-52546666D01*
X89217619Y-52689523D01*
X89122380Y-52784761D01*
X88979523Y-52832380D01*
X88884285Y-52832380D01*
X89741428Y-52832380D02*
X89741428Y-51832380D01*
X90074761Y-52546666D01*
X90408095Y-51832380D01*
X90408095Y-52832380D01*
X90836666Y-51927619D02*
X90884285Y-51880000D01*
X90979523Y-51832380D01*
X91217619Y-51832380D01*
X91312857Y-51880000D01*
X91360476Y-51927619D01*
X91408095Y-52022857D01*
X91408095Y-52118095D01*
X91360476Y-52260952D01*
X90789047Y-52832380D01*
X91408095Y-52832380D01*
G04 #@! TO.C,J11*
X111002380Y-47799523D02*
X111716666Y-47799523D01*
X111859523Y-47847142D01*
X111954761Y-47942380D01*
X112002380Y-48085238D01*
X112002380Y-48180476D01*
X112002380Y-46799523D02*
X112002380Y-47370952D01*
X112002380Y-47085238D02*
X111002380Y-47085238D01*
X111145238Y-47180476D01*
X111240476Y-47275714D01*
X111288095Y-47370952D01*
X112002380Y-45847142D02*
X112002380Y-46418571D01*
X112002380Y-46132857D02*
X111002380Y-46132857D01*
X111145238Y-46228095D01*
X111240476Y-46323333D01*
X111288095Y-46418571D01*
G04 #@! TO.C,PS1*
X116382380Y-79724285D02*
X115382380Y-79724285D01*
X115382380Y-79343333D01*
X115430000Y-79248095D01*
X115477619Y-79200476D01*
X115572857Y-79152857D01*
X115715714Y-79152857D01*
X115810952Y-79200476D01*
X115858571Y-79248095D01*
X115906190Y-79343333D01*
X115906190Y-79724285D01*
X116334761Y-78771904D02*
X116382380Y-78629047D01*
X116382380Y-78390952D01*
X116334761Y-78295714D01*
X116287142Y-78248095D01*
X116191904Y-78200476D01*
X116096666Y-78200476D01*
X116001428Y-78248095D01*
X115953809Y-78295714D01*
X115906190Y-78390952D01*
X115858571Y-78581428D01*
X115810952Y-78676666D01*
X115763333Y-78724285D01*
X115668095Y-78771904D01*
X115572857Y-78771904D01*
X115477619Y-78724285D01*
X115430000Y-78676666D01*
X115382380Y-78581428D01*
X115382380Y-78343333D01*
X115430000Y-78200476D01*
X116382380Y-77248095D02*
X116382380Y-77819523D01*
X116382380Y-77533809D02*
X115382380Y-77533809D01*
X115525238Y-77629047D01*
X115620476Y-77724285D01*
X115668095Y-77819523D01*
G04 #@! TO.C,U12*
D14*
X81906904Y-16657380D02*
X81906904Y-17466904D01*
X81954523Y-17562142D01*
X82002142Y-17609761D01*
X82097380Y-17657380D01*
X82287857Y-17657380D01*
X82383095Y-17609761D01*
X82430714Y-17562142D01*
X82478333Y-17466904D01*
X82478333Y-16657380D01*
X83478333Y-17657380D02*
X82906904Y-17657380D01*
X83192619Y-17657380D02*
X83192619Y-16657380D01*
X83097380Y-16800238D01*
X83002142Y-16895476D01*
X82906904Y-16943095D01*
X83859285Y-16752619D02*
X83906904Y-16705000D01*
X84002142Y-16657380D01*
X84240238Y-16657380D01*
X84335476Y-16705000D01*
X84383095Y-16752619D01*
X84430714Y-16847857D01*
X84430714Y-16943095D01*
X84383095Y-17085952D01*
X83811666Y-17657380D01*
X84430714Y-17657380D01*
G04 #@! TO.C,U10*
X29836904Y-92857380D02*
X29836904Y-93666904D01*
X29884523Y-93762142D01*
X29932142Y-93809761D01*
X30027380Y-93857380D01*
X30217857Y-93857380D01*
X30313095Y-93809761D01*
X30360714Y-93762142D01*
X30408333Y-93666904D01*
X30408333Y-92857380D01*
X31408333Y-93857380D02*
X30836904Y-93857380D01*
X31122619Y-93857380D02*
X31122619Y-92857380D01*
X31027380Y-93000238D01*
X30932142Y-93095476D01*
X30836904Y-93143095D01*
X32027380Y-92857380D02*
X32122619Y-92857380D01*
X32217857Y-92905000D01*
X32265476Y-92952619D01*
X32313095Y-93047857D01*
X32360714Y-93238333D01*
X32360714Y-93476428D01*
X32313095Y-93666904D01*
X32265476Y-93762142D01*
X32217857Y-93809761D01*
X32122619Y-93857380D01*
X32027380Y-93857380D01*
X31932142Y-93809761D01*
X31884523Y-93762142D01*
X31836904Y-93666904D01*
X31789285Y-93476428D01*
X31789285Y-93238333D01*
X31836904Y-93047857D01*
X31884523Y-92952619D01*
X31932142Y-92905000D01*
X32027380Y-92857380D01*
G04 #@! TO.C,U14*
X66746904Y-43207380D02*
X66746904Y-44016904D01*
X66794523Y-44112142D01*
X66842142Y-44159761D01*
X66937380Y-44207380D01*
X67127857Y-44207380D01*
X67223095Y-44159761D01*
X67270714Y-44112142D01*
X67318333Y-44016904D01*
X67318333Y-43207380D01*
X68318333Y-44207380D02*
X67746904Y-44207380D01*
X68032619Y-44207380D02*
X68032619Y-43207380D01*
X67937380Y-43350238D01*
X67842142Y-43445476D01*
X67746904Y-43493095D01*
X69175476Y-43540714D02*
X69175476Y-44207380D01*
X68937380Y-43159761D02*
X68699285Y-43874047D01*
X69318333Y-43874047D01*
G04 #@! TO.C,U13*
X68016904Y-68607380D02*
X68016904Y-69416904D01*
X68064523Y-69512142D01*
X68112142Y-69559761D01*
X68207380Y-69607380D01*
X68397857Y-69607380D01*
X68493095Y-69559761D01*
X68540714Y-69512142D01*
X68588333Y-69416904D01*
X68588333Y-68607380D01*
X69588333Y-69607380D02*
X69016904Y-69607380D01*
X69302619Y-69607380D02*
X69302619Y-68607380D01*
X69207380Y-68750238D01*
X69112142Y-68845476D01*
X69016904Y-68893095D01*
X69921666Y-68607380D02*
X70540714Y-68607380D01*
X70207380Y-68988333D01*
X70350238Y-68988333D01*
X70445476Y-69035952D01*
X70493095Y-69083571D01*
X70540714Y-69178809D01*
X70540714Y-69416904D01*
X70493095Y-69512142D01*
X70445476Y-69559761D01*
X70350238Y-69607380D01*
X70064523Y-69607380D01*
X69969285Y-69559761D01*
X69921666Y-69512142D01*
G04 #@! TO.C,U11*
X68016904Y-94007380D02*
X68016904Y-94816904D01*
X68064523Y-94912142D01*
X68112142Y-94959761D01*
X68207380Y-95007380D01*
X68397857Y-95007380D01*
X68493095Y-94959761D01*
X68540714Y-94912142D01*
X68588333Y-94816904D01*
X68588333Y-94007380D01*
X69588333Y-95007380D02*
X69016904Y-95007380D01*
X69302619Y-95007380D02*
X69302619Y-94007380D01*
X69207380Y-94150238D01*
X69112142Y-94245476D01*
X69016904Y-94293095D01*
X70540714Y-95007380D02*
X69969285Y-95007380D01*
X70255000Y-95007380D02*
X70255000Y-94007380D01*
X70159761Y-94150238D01*
X70064523Y-94245476D01*
X69969285Y-94293095D01*
G04 #@! TO.C,PS2*
X95419380Y-83754285D02*
X94419380Y-83754285D01*
X94419380Y-83373333D01*
X94467000Y-83278095D01*
X94514619Y-83230476D01*
X94609857Y-83182857D01*
X94752714Y-83182857D01*
X94847952Y-83230476D01*
X94895571Y-83278095D01*
X94943190Y-83373333D01*
X94943190Y-83754285D01*
X95371761Y-82801904D02*
X95419380Y-82659047D01*
X95419380Y-82420952D01*
X95371761Y-82325714D01*
X95324142Y-82278095D01*
X95228904Y-82230476D01*
X95133666Y-82230476D01*
X95038428Y-82278095D01*
X94990809Y-82325714D01*
X94943190Y-82420952D01*
X94895571Y-82611428D01*
X94847952Y-82706666D01*
X94800333Y-82754285D01*
X94705095Y-82801904D01*
X94609857Y-82801904D01*
X94514619Y-82754285D01*
X94467000Y-82706666D01*
X94419380Y-82611428D01*
X94419380Y-82373333D01*
X94467000Y-82230476D01*
X94514619Y-81849523D02*
X94467000Y-81801904D01*
X94419380Y-81706666D01*
X94419380Y-81468571D01*
X94467000Y-81373333D01*
X94514619Y-81325714D01*
X94609857Y-81278095D01*
X94705095Y-81278095D01*
X94847952Y-81325714D01*
X95419380Y-81897142D01*
X95419380Y-81278095D01*
G04 #@! TO.C,JP1*
D13*
X122356666Y-63452380D02*
X122356666Y-64166666D01*
X122309047Y-64309523D01*
X122213809Y-64404761D01*
X122070952Y-64452380D01*
X121975714Y-64452380D01*
X122832857Y-64452380D02*
X122832857Y-63452380D01*
X123213809Y-63452380D01*
X123309047Y-63500000D01*
X123356666Y-63547619D01*
X123404285Y-63642857D01*
X123404285Y-63785714D01*
X123356666Y-63880952D01*
X123309047Y-63928571D01*
X123213809Y-63976190D01*
X122832857Y-63976190D01*
X124356666Y-64452380D02*
X123785238Y-64452380D01*
X124070952Y-64452380D02*
X124070952Y-63452380D01*
X123975714Y-63595238D01*
X123880476Y-63690476D01*
X123785238Y-63738095D01*
G04 #@! TO.C,JP3*
X122356666Y-99012380D02*
X122356666Y-99726666D01*
X122309047Y-99869523D01*
X122213809Y-99964761D01*
X122070952Y-100012380D01*
X121975714Y-100012380D01*
X122832857Y-100012380D02*
X122832857Y-99012380D01*
X123213809Y-99012380D01*
X123309047Y-99060000D01*
X123356666Y-99107619D01*
X123404285Y-99202857D01*
X123404285Y-99345714D01*
X123356666Y-99440952D01*
X123309047Y-99488571D01*
X123213809Y-99536190D01*
X122832857Y-99536190D01*
X123737619Y-99012380D02*
X124356666Y-99012380D01*
X124023333Y-99393333D01*
X124166190Y-99393333D01*
X124261428Y-99440952D01*
X124309047Y-99488571D01*
X124356666Y-99583809D01*
X124356666Y-99821904D01*
X124309047Y-99917142D01*
X124261428Y-99964761D01*
X124166190Y-100012380D01*
X123880476Y-100012380D01*
X123785238Y-99964761D01*
X123737619Y-99917142D01*
G04 #@! TO.C,JP2*
X122356666Y-66262380D02*
X122356666Y-66976666D01*
X122309047Y-67119523D01*
X122213809Y-67214761D01*
X122070952Y-67262380D01*
X121975714Y-67262380D01*
X122832857Y-67262380D02*
X122832857Y-66262380D01*
X123213809Y-66262380D01*
X123309047Y-66310000D01*
X123356666Y-66357619D01*
X123404285Y-66452857D01*
X123404285Y-66595714D01*
X123356666Y-66690952D01*
X123309047Y-66738571D01*
X123213809Y-66786190D01*
X122832857Y-66786190D01*
X123785238Y-66357619D02*
X123832857Y-66310000D01*
X123928095Y-66262380D01*
X124166190Y-66262380D01*
X124261428Y-66310000D01*
X124309047Y-66357619D01*
X124356666Y-66452857D01*
X124356666Y-66548095D01*
X124309047Y-66690952D01*
X123737619Y-67262380D01*
X124356666Y-67262380D01*
G04 #@! TO.C,JP4*
X122356666Y-101822380D02*
X122356666Y-102536666D01*
X122309047Y-102679523D01*
X122213809Y-102774761D01*
X122070952Y-102822380D01*
X121975714Y-102822380D01*
X122832857Y-102822380D02*
X122832857Y-101822380D01*
X123213809Y-101822380D01*
X123309047Y-101870000D01*
X123356666Y-101917619D01*
X123404285Y-102012857D01*
X123404285Y-102155714D01*
X123356666Y-102250952D01*
X123309047Y-102298571D01*
X123213809Y-102346190D01*
X122832857Y-102346190D01*
X124261428Y-102155714D02*
X124261428Y-102822380D01*
X124023333Y-101774761D02*
X123785238Y-102489047D01*
X124404285Y-102489047D01*
G04 #@! TO.C,RP1*
X118197023Y-71357380D02*
X117863690Y-70881190D01*
X117625595Y-71357380D02*
X117625595Y-70357380D01*
X118006547Y-70357380D01*
X118101785Y-70405000D01*
X118149404Y-70452619D01*
X118197023Y-70547857D01*
X118197023Y-70690714D01*
X118149404Y-70785952D01*
X118101785Y-70833571D01*
X118006547Y-70881190D01*
X117625595Y-70881190D01*
X118625595Y-71357380D02*
X118625595Y-70357380D01*
X119006547Y-70357380D01*
X119101785Y-70405000D01*
X119149404Y-70452619D01*
X119197023Y-70547857D01*
X119197023Y-70690714D01*
X119149404Y-70785952D01*
X119101785Y-70833571D01*
X119006547Y-70881190D01*
X118625595Y-70881190D01*
X120149404Y-71357380D02*
X119577976Y-71357380D01*
X119863690Y-71357380D02*
X119863690Y-70357380D01*
X119768452Y-70500238D01*
X119673214Y-70595476D01*
X119577976Y-70643095D01*
X107798809Y-65344523D02*
X107798809Y-64074523D01*
X108222142Y-64981666D01*
X108645476Y-64074523D01*
X108645476Y-65344523D01*
X109250238Y-65344523D02*
X109250238Y-64074523D01*
X109734047Y-64074523D01*
X109855000Y-64135000D01*
X109915476Y-64195476D01*
X109975952Y-64316428D01*
X109975952Y-64497857D01*
X109915476Y-64618809D01*
X109855000Y-64679285D01*
X109734047Y-64739761D01*
X109250238Y-64739761D01*
X110580714Y-65344523D02*
X110822619Y-65344523D01*
X110943571Y-65284047D01*
X111004047Y-65223571D01*
X111125000Y-65042142D01*
X111185476Y-64800238D01*
X111185476Y-64316428D01*
X111125000Y-64195476D01*
X111064523Y-64135000D01*
X110943571Y-64074523D01*
X110701666Y-64074523D01*
X110580714Y-64135000D01*
X110520238Y-64195476D01*
X110459761Y-64316428D01*
X110459761Y-64618809D01*
X110520238Y-64739761D01*
X110580714Y-64800238D01*
X110701666Y-64860714D01*
X110943571Y-64860714D01*
X111064523Y-64800238D01*
X111125000Y-64739761D01*
X111185476Y-64618809D01*
X111608809Y-64074523D02*
X112395000Y-64074523D01*
X111971666Y-64558333D01*
X112153095Y-64558333D01*
X112274047Y-64618809D01*
X112334523Y-64679285D01*
X112395000Y-64800238D01*
X112395000Y-65102619D01*
X112334523Y-65223571D01*
X112274047Y-65284047D01*
X112153095Y-65344523D01*
X111790238Y-65344523D01*
X111669285Y-65284047D01*
X111608809Y-65223571D01*
X113181190Y-64074523D02*
X113302142Y-64074523D01*
X113423095Y-64135000D01*
X113483571Y-64195476D01*
X113544047Y-64316428D01*
X113604523Y-64558333D01*
X113604523Y-64860714D01*
X113544047Y-65102619D01*
X113483571Y-65223571D01*
X113423095Y-65284047D01*
X113302142Y-65344523D01*
X113181190Y-65344523D01*
X113060238Y-65284047D01*
X112999761Y-65223571D01*
X112939285Y-65102619D01*
X112878809Y-64860714D01*
X112878809Y-64558333D01*
X112939285Y-64316428D01*
X112999761Y-64195476D01*
X113060238Y-64135000D01*
X113181190Y-64074523D01*
X114148809Y-64860714D02*
X115116428Y-64860714D01*
X115963095Y-64074523D02*
X116084047Y-64074523D01*
X116205000Y-64135000D01*
X116265476Y-64195476D01*
X116325952Y-64316428D01*
X116386428Y-64558333D01*
X116386428Y-64860714D01*
X116325952Y-65102619D01*
X116265476Y-65223571D01*
X116205000Y-65284047D01*
X116084047Y-65344523D01*
X115963095Y-65344523D01*
X115842142Y-65284047D01*
X115781666Y-65223571D01*
X115721190Y-65102619D01*
X115660714Y-64860714D01*
X115660714Y-64558333D01*
X115721190Y-64316428D01*
X115781666Y-64195476D01*
X115842142Y-64135000D01*
X115963095Y-64074523D01*
X116930714Y-65223571D02*
X116991190Y-65284047D01*
X116930714Y-65344523D01*
X116870238Y-65284047D01*
X116930714Y-65223571D01*
X116930714Y-65344523D01*
X117777380Y-64074523D02*
X117898333Y-64074523D01*
X118019285Y-64135000D01*
X118079761Y-64195476D01*
X118140238Y-64316428D01*
X118200714Y-64558333D01*
X118200714Y-64860714D01*
X118140238Y-65102619D01*
X118079761Y-65223571D01*
X118019285Y-65284047D01*
X117898333Y-65344523D01*
X117777380Y-65344523D01*
X117656428Y-65284047D01*
X117595952Y-65223571D01*
X117535476Y-65102619D01*
X117475000Y-64860714D01*
X117475000Y-64558333D01*
X117535476Y-64316428D01*
X117595952Y-64195476D01*
X117656428Y-64135000D01*
X117777380Y-64074523D01*
X118986904Y-64074523D02*
X119107857Y-64074523D01*
X119228809Y-64135000D01*
X119289285Y-64195476D01*
X119349761Y-64316428D01*
X119410238Y-64558333D01*
X119410238Y-64860714D01*
X119349761Y-65102619D01*
X119289285Y-65223571D01*
X119228809Y-65284047D01*
X119107857Y-65344523D01*
X118986904Y-65344523D01*
X118865952Y-65284047D01*
X118805476Y-65223571D01*
X118745000Y-65102619D01*
X118684523Y-64860714D01*
X118684523Y-64558333D01*
X118745000Y-64316428D01*
X118805476Y-64195476D01*
X118865952Y-64135000D01*
X118986904Y-64074523D01*
X119894047Y-64195476D02*
X119954523Y-64135000D01*
X120075476Y-64074523D01*
X120377857Y-64074523D01*
X120498809Y-64135000D01*
X120559285Y-64195476D01*
X120619761Y-64316428D01*
X120619761Y-64437380D01*
X120559285Y-64618809D01*
X119833571Y-65344523D01*
X120619761Y-65344523D01*
X121164047Y-64860714D02*
X122131666Y-64860714D01*
X123401666Y-65344523D02*
X122675952Y-65344523D01*
X123038809Y-65344523D02*
X123038809Y-64074523D01*
X122917857Y-64255952D01*
X122796904Y-64376904D01*
X122675952Y-64437380D01*
G04 #@! TO.C,RP2*
X116927023Y-106917380D02*
X116593690Y-106441190D01*
X116355595Y-106917380D02*
X116355595Y-105917380D01*
X116736547Y-105917380D01*
X116831785Y-105965000D01*
X116879404Y-106012619D01*
X116927023Y-106107857D01*
X116927023Y-106250714D01*
X116879404Y-106345952D01*
X116831785Y-106393571D01*
X116736547Y-106441190D01*
X116355595Y-106441190D01*
X117355595Y-106917380D02*
X117355595Y-105917380D01*
X117736547Y-105917380D01*
X117831785Y-105965000D01*
X117879404Y-106012619D01*
X117927023Y-106107857D01*
X117927023Y-106250714D01*
X117879404Y-106345952D01*
X117831785Y-106393571D01*
X117736547Y-106441190D01*
X117355595Y-106441190D01*
X118307976Y-106012619D02*
X118355595Y-105965000D01*
X118450833Y-105917380D01*
X118688928Y-105917380D01*
X118784166Y-105965000D01*
X118831785Y-106012619D01*
X118879404Y-106107857D01*
X118879404Y-106203095D01*
X118831785Y-106345952D01*
X118260357Y-106917380D01*
X118879404Y-106917380D01*
X106528809Y-100904523D02*
X106528809Y-99634523D01*
X106952142Y-100541666D01*
X107375476Y-99634523D01*
X107375476Y-100904523D01*
X107980238Y-100904523D02*
X107980238Y-99634523D01*
X108464047Y-99634523D01*
X108585000Y-99695000D01*
X108645476Y-99755476D01*
X108705952Y-99876428D01*
X108705952Y-100057857D01*
X108645476Y-100178809D01*
X108585000Y-100239285D01*
X108464047Y-100299761D01*
X107980238Y-100299761D01*
X109310714Y-100904523D02*
X109552619Y-100904523D01*
X109673571Y-100844047D01*
X109734047Y-100783571D01*
X109855000Y-100602142D01*
X109915476Y-100360238D01*
X109915476Y-99876428D01*
X109855000Y-99755476D01*
X109794523Y-99695000D01*
X109673571Y-99634523D01*
X109431666Y-99634523D01*
X109310714Y-99695000D01*
X109250238Y-99755476D01*
X109189761Y-99876428D01*
X109189761Y-100178809D01*
X109250238Y-100299761D01*
X109310714Y-100360238D01*
X109431666Y-100420714D01*
X109673571Y-100420714D01*
X109794523Y-100360238D01*
X109855000Y-100299761D01*
X109915476Y-100178809D01*
X110338809Y-99634523D02*
X111125000Y-99634523D01*
X110701666Y-100118333D01*
X110883095Y-100118333D01*
X111004047Y-100178809D01*
X111064523Y-100239285D01*
X111125000Y-100360238D01*
X111125000Y-100662619D01*
X111064523Y-100783571D01*
X111004047Y-100844047D01*
X110883095Y-100904523D01*
X110520238Y-100904523D01*
X110399285Y-100844047D01*
X110338809Y-100783571D01*
X111911190Y-99634523D02*
X112032142Y-99634523D01*
X112153095Y-99695000D01*
X112213571Y-99755476D01*
X112274047Y-99876428D01*
X112334523Y-100118333D01*
X112334523Y-100420714D01*
X112274047Y-100662619D01*
X112213571Y-100783571D01*
X112153095Y-100844047D01*
X112032142Y-100904523D01*
X111911190Y-100904523D01*
X111790238Y-100844047D01*
X111729761Y-100783571D01*
X111669285Y-100662619D01*
X111608809Y-100420714D01*
X111608809Y-100118333D01*
X111669285Y-99876428D01*
X111729761Y-99755476D01*
X111790238Y-99695000D01*
X111911190Y-99634523D01*
X112878809Y-100420714D02*
X113846428Y-100420714D01*
X114693095Y-99634523D02*
X114814047Y-99634523D01*
X114935000Y-99695000D01*
X114995476Y-99755476D01*
X115055952Y-99876428D01*
X115116428Y-100118333D01*
X115116428Y-100420714D01*
X115055952Y-100662619D01*
X114995476Y-100783571D01*
X114935000Y-100844047D01*
X114814047Y-100904523D01*
X114693095Y-100904523D01*
X114572142Y-100844047D01*
X114511666Y-100783571D01*
X114451190Y-100662619D01*
X114390714Y-100420714D01*
X114390714Y-100118333D01*
X114451190Y-99876428D01*
X114511666Y-99755476D01*
X114572142Y-99695000D01*
X114693095Y-99634523D01*
X115660714Y-100783571D02*
X115721190Y-100844047D01*
X115660714Y-100904523D01*
X115600238Y-100844047D01*
X115660714Y-100783571D01*
X115660714Y-100904523D01*
X116507380Y-99634523D02*
X116628333Y-99634523D01*
X116749285Y-99695000D01*
X116809761Y-99755476D01*
X116870238Y-99876428D01*
X116930714Y-100118333D01*
X116930714Y-100420714D01*
X116870238Y-100662619D01*
X116809761Y-100783571D01*
X116749285Y-100844047D01*
X116628333Y-100904523D01*
X116507380Y-100904523D01*
X116386428Y-100844047D01*
X116325952Y-100783571D01*
X116265476Y-100662619D01*
X116205000Y-100420714D01*
X116205000Y-100118333D01*
X116265476Y-99876428D01*
X116325952Y-99755476D01*
X116386428Y-99695000D01*
X116507380Y-99634523D01*
X117716904Y-99634523D02*
X117837857Y-99634523D01*
X117958809Y-99695000D01*
X118019285Y-99755476D01*
X118079761Y-99876428D01*
X118140238Y-100118333D01*
X118140238Y-100420714D01*
X118079761Y-100662619D01*
X118019285Y-100783571D01*
X117958809Y-100844047D01*
X117837857Y-100904523D01*
X117716904Y-100904523D01*
X117595952Y-100844047D01*
X117535476Y-100783571D01*
X117475000Y-100662619D01*
X117414523Y-100420714D01*
X117414523Y-100118333D01*
X117475000Y-99876428D01*
X117535476Y-99755476D01*
X117595952Y-99695000D01*
X117716904Y-99634523D01*
X118624047Y-99755476D02*
X118684523Y-99695000D01*
X118805476Y-99634523D01*
X119107857Y-99634523D01*
X119228809Y-99695000D01*
X119289285Y-99755476D01*
X119349761Y-99876428D01*
X119349761Y-99997380D01*
X119289285Y-100178809D01*
X118563571Y-100904523D01*
X119349761Y-100904523D01*
X119894047Y-100420714D02*
X120861666Y-100420714D01*
X122131666Y-100904523D02*
X121405952Y-100904523D01*
X121768809Y-100904523D02*
X121768809Y-99634523D01*
X121647857Y-99815952D01*
X121526904Y-99936904D01*
X121405952Y-99997380D01*
G04 #@! TD*
M02*
