M48
;DRILL file {KiCad 5.0.2+dfsg1-1} date Fri 19 Feb 2021 06:10:01 PM MST
;FORMAT={-:-/ absolute / inch / decimal}
FMAT,2
INCH,TZ
T1C0.0157
T2C0.0299
T3C0.0394
T4C0.0402
T5C0.0433
T6C0.0472
T7C0.0512
T8C0.0984
%
G90
G05
T1
X2.5668Y-2.4583
X3.2966Y-2.6839
X3.3808Y-0.9762
X3.9045Y-2.046
X3.9649Y-1.9361
X4.04Y-1.9837
X4.0758Y-2.967
X4.2457Y-3.7134
X4.2729Y-3.002
X4.3131Y-3.4257
T2
X3.7Y-2.9
X3.7Y-3.
X3.7Y-3.1
X3.7Y-3.2
X3.7Y-3.4
X3.7Y-3.5
X3.7Y-3.6
T3
X4.3Y-3.15
X4.3Y-3.25
X4.3Y-3.35
X3.9Y-1.85
X4.Y-1.85
X4.1Y-1.85
X4.2Y-1.85
X4.3Y-1.85
T4
X3.3Y-1.6
X3.4Y-1.6
X3.5Y-1.6
X3.6Y-1.6
X3.7Y-0.8
X3.7Y-1.6
X3.8Y-0.8
X3.8Y-1.6
X3.9Y-0.8
X3.9Y-1.6
X4.Y-0.8
X4.Y-1.6
X4.1Y-0.8
X4.1Y-1.6
X4.2Y-0.8
X4.2Y-1.6
X4.3Y-0.8
X4.3Y-1.6
X4.4Y-0.8
X4.4Y-1.6
X4.5Y-0.8
X4.5Y-1.6
X4.6Y-0.8
X4.6Y-1.6
X4.7Y-0.8
X4.7Y-1.6
X4.8Y-0.8
X4.8Y-1.6
X1.25Y-4.6
X1.35Y-4.6
X1.45Y-4.6
X1.55Y-4.6
X1.65Y-3.8
X1.65Y-4.6
X1.75Y-3.8
X1.75Y-4.6
X1.85Y-3.8
X1.85Y-4.6
X1.95Y-3.8
X1.95Y-4.6
X2.05Y-3.8
X2.05Y-4.6
X2.15Y-3.8
X2.15Y-4.6
X2.25Y-3.8
X2.25Y-4.6
X2.35Y-3.8
X2.35Y-4.6
X2.45Y-3.8
X2.45Y-4.6
X2.55Y-3.8
X2.55Y-4.6
X2.65Y-3.8
X2.65Y-4.6
X2.75Y-3.8
X2.75Y-4.6
X1.15Y-0.8
X1.15Y-1.6
X1.25Y-0.8
X1.25Y-1.6
X1.35Y-0.8
X1.35Y-1.6
X1.45Y-0.8
X1.45Y-1.6
X1.55Y-0.8
X1.55Y-1.6
X1.65Y-0.8
X1.65Y-1.6
X1.75Y-0.8
X1.75Y-1.6
X1.85Y-0.8
X1.85Y-1.6
X1.95Y-0.8
X1.95Y-1.6
X2.05Y-0.8
X2.05Y-1.6
X2.15Y-0.8
X2.15Y-1.6
X2.25Y-0.8
X2.25Y-1.6
X2.35Y-0.8
X2.45Y-0.8
X2.55Y-0.8
X2.65Y-0.8
X1.2Y-1.8
X1.2Y-2.6
X1.3Y-1.8
X1.3Y-2.6
X1.4Y-1.8
X1.4Y-2.6
X1.5Y-1.8
X1.5Y-2.6
X1.6Y-1.8
X1.6Y-2.6
X1.7Y-1.8
X1.7Y-2.6
X1.8Y-1.8
X1.8Y-2.6
X1.9Y-1.8
X1.9Y-2.6
X2.Y-1.8
X2.Y-2.6
X2.1Y-1.8
X2.1Y-2.6
X2.2Y-1.8
X2.2Y-2.6
X2.3Y-1.8
X2.3Y-2.6
X2.4Y-1.8
X2.5Y-1.8
X2.6Y-1.8
X2.7Y-1.8
X1.2Y-2.8
X1.2Y-3.6
X1.3Y-2.8
X1.3Y-3.6
X1.4Y-2.8
X1.4Y-3.6
X1.5Y-2.8
X1.5Y-3.6
X1.6Y-2.8
X1.6Y-3.6
X1.7Y-2.8
X1.7Y-3.6
X1.8Y-2.8
X1.8Y-3.6
X1.9Y-2.8
X1.9Y-3.6
X2.Y-2.8
X2.Y-3.6
X2.1Y-2.8
X2.1Y-3.6
X2.2Y-2.8
X2.2Y-3.6
X2.3Y-2.8
X2.3Y-3.6
X2.4Y-2.8
X2.5Y-2.8
X2.6Y-2.8
X2.7Y-2.8
T5
X3.4Y-3.05
X3.4Y-3.45
X3.85Y-2.3
X3.85Y-2.7
T6
X4.Y-4.45
X4.1Y-4.45
X4.35Y-4.45
X4.45Y-4.45
X3.4Y-1.9
X3.5Y-1.9
X3.6Y-1.9
X3.7Y-1.9
X3.2Y-4.45
X3.3Y-4.45
X3.4Y-4.45
X3.5Y-4.45
X3.6Y-4.45
X3.7Y-4.45
X4.85Y-2.6969
X4.85Y-2.9921
X4.85Y-3.2823
X4.85Y-3.5579
X4.85Y-3.8531
X4.85Y-4.0969
X4.85Y-4.3921
X4.85Y-1.8823
X4.85Y-2.1579
X4.85Y-2.4531
T7
X1.3142Y-3.25
X2.2Y-3.25
X1.35Y-2.2
X2.2358Y-2.2
X4.5201Y-3.85
X4.5201Y-4.05
X4.5701Y-2.45
X4.5701Y-2.65
T8
X2.8Y-0.85
X2.8Y-1.55
X2.85Y-1.85
X2.85Y-2.55
X2.85Y-2.85
X2.85Y-3.55
X3.15Y-0.85
X3.15Y-1.55
X1.1Y-3.85
X1.1Y-4.55
T0
M30
