G04 #@! TF.GenerationSoftware,KiCad,Pcbnew,5.0.2+dfsg1-1*
G04 #@! TF.CreationDate,2021-02-09T18:47:18-07:00*
G04 #@! TF.ProjectId,smart_battery,736d6172-745f-4626-9174-746572792e6b,rev?*
G04 #@! TF.SameCoordinates,Original*
G04 #@! TF.FileFunction,Paste,Bot*
G04 #@! TF.FilePolarity,Positive*
%FSLAX46Y46*%
G04 Gerber Fmt 4.6, Leading zero omitted, Abs format (unit mm)*
G04 Created by KiCad (PCBNEW 5.0.2+dfsg1-1) date Tue 09 Feb 2021 06:47:18 PM MST*
%MOMM*%
%LPD*%
G01*
G04 APERTURE LIST*
%ADD10C,0.100000*%
%ADD11C,0.975000*%
%ADD12R,0.900000X0.800000*%
%ADD13R,1.060000X0.650000*%
%ADD14C,0.599999*%
G04 APERTURE END LIST*
D10*
G04 #@! TO.C,C2*
G36*
X90357042Y-27056874D02*
X90380703Y-27060384D01*
X90403907Y-27066196D01*
X90426429Y-27074254D01*
X90448053Y-27084482D01*
X90468570Y-27096779D01*
X90487783Y-27111029D01*
X90505507Y-27127093D01*
X90521571Y-27144817D01*
X90535821Y-27164030D01*
X90548118Y-27184547D01*
X90558346Y-27206171D01*
X90566404Y-27228693D01*
X90572216Y-27251897D01*
X90575726Y-27275558D01*
X90576900Y-27299450D01*
X90576900Y-28211950D01*
X90575726Y-28235842D01*
X90572216Y-28259503D01*
X90566404Y-28282707D01*
X90558346Y-28305229D01*
X90548118Y-28326853D01*
X90535821Y-28347370D01*
X90521571Y-28366583D01*
X90505507Y-28384307D01*
X90487783Y-28400371D01*
X90468570Y-28414621D01*
X90448053Y-28426918D01*
X90426429Y-28437146D01*
X90403907Y-28445204D01*
X90380703Y-28451016D01*
X90357042Y-28454526D01*
X90333150Y-28455700D01*
X89845650Y-28455700D01*
X89821758Y-28454526D01*
X89798097Y-28451016D01*
X89774893Y-28445204D01*
X89752371Y-28437146D01*
X89730747Y-28426918D01*
X89710230Y-28414621D01*
X89691017Y-28400371D01*
X89673293Y-28384307D01*
X89657229Y-28366583D01*
X89642979Y-28347370D01*
X89630682Y-28326853D01*
X89620454Y-28305229D01*
X89612396Y-28282707D01*
X89606584Y-28259503D01*
X89603074Y-28235842D01*
X89601900Y-28211950D01*
X89601900Y-27299450D01*
X89603074Y-27275558D01*
X89606584Y-27251897D01*
X89612396Y-27228693D01*
X89620454Y-27206171D01*
X89630682Y-27184547D01*
X89642979Y-27164030D01*
X89657229Y-27144817D01*
X89673293Y-27127093D01*
X89691017Y-27111029D01*
X89710230Y-27096779D01*
X89730747Y-27084482D01*
X89752371Y-27074254D01*
X89774893Y-27066196D01*
X89798097Y-27060384D01*
X89821758Y-27056874D01*
X89845650Y-27055700D01*
X90333150Y-27055700D01*
X90357042Y-27056874D01*
X90357042Y-27056874D01*
G37*
D11*
X90089400Y-27755700D03*
D10*
G36*
X88482042Y-27056874D02*
X88505703Y-27060384D01*
X88528907Y-27066196D01*
X88551429Y-27074254D01*
X88573053Y-27084482D01*
X88593570Y-27096779D01*
X88612783Y-27111029D01*
X88630507Y-27127093D01*
X88646571Y-27144817D01*
X88660821Y-27164030D01*
X88673118Y-27184547D01*
X88683346Y-27206171D01*
X88691404Y-27228693D01*
X88697216Y-27251897D01*
X88700726Y-27275558D01*
X88701900Y-27299450D01*
X88701900Y-28211950D01*
X88700726Y-28235842D01*
X88697216Y-28259503D01*
X88691404Y-28282707D01*
X88683346Y-28305229D01*
X88673118Y-28326853D01*
X88660821Y-28347370D01*
X88646571Y-28366583D01*
X88630507Y-28384307D01*
X88612783Y-28400371D01*
X88593570Y-28414621D01*
X88573053Y-28426918D01*
X88551429Y-28437146D01*
X88528907Y-28445204D01*
X88505703Y-28451016D01*
X88482042Y-28454526D01*
X88458150Y-28455700D01*
X87970650Y-28455700D01*
X87946758Y-28454526D01*
X87923097Y-28451016D01*
X87899893Y-28445204D01*
X87877371Y-28437146D01*
X87855747Y-28426918D01*
X87835230Y-28414621D01*
X87816017Y-28400371D01*
X87798293Y-28384307D01*
X87782229Y-28366583D01*
X87767979Y-28347370D01*
X87755682Y-28326853D01*
X87745454Y-28305229D01*
X87737396Y-28282707D01*
X87731584Y-28259503D01*
X87728074Y-28235842D01*
X87726900Y-28211950D01*
X87726900Y-27299450D01*
X87728074Y-27275558D01*
X87731584Y-27251897D01*
X87737396Y-27228693D01*
X87745454Y-27206171D01*
X87755682Y-27184547D01*
X87767979Y-27164030D01*
X87782229Y-27144817D01*
X87798293Y-27127093D01*
X87816017Y-27111029D01*
X87835230Y-27096779D01*
X87855747Y-27084482D01*
X87877371Y-27074254D01*
X87899893Y-27066196D01*
X87923097Y-27060384D01*
X87946758Y-27056874D01*
X87970650Y-27055700D01*
X88458150Y-27055700D01*
X88482042Y-27056874D01*
X88482042Y-27056874D01*
G37*
D11*
X88214400Y-27755700D03*
G04 #@! TD*
D10*
G04 #@! TO.C,C3*
G36*
X90357042Y-21976874D02*
X90380703Y-21980384D01*
X90403907Y-21986196D01*
X90426429Y-21994254D01*
X90448053Y-22004482D01*
X90468570Y-22016779D01*
X90487783Y-22031029D01*
X90505507Y-22047093D01*
X90521571Y-22064817D01*
X90535821Y-22084030D01*
X90548118Y-22104547D01*
X90558346Y-22126171D01*
X90566404Y-22148693D01*
X90572216Y-22171897D01*
X90575726Y-22195558D01*
X90576900Y-22219450D01*
X90576900Y-23131950D01*
X90575726Y-23155842D01*
X90572216Y-23179503D01*
X90566404Y-23202707D01*
X90558346Y-23225229D01*
X90548118Y-23246853D01*
X90535821Y-23267370D01*
X90521571Y-23286583D01*
X90505507Y-23304307D01*
X90487783Y-23320371D01*
X90468570Y-23334621D01*
X90448053Y-23346918D01*
X90426429Y-23357146D01*
X90403907Y-23365204D01*
X90380703Y-23371016D01*
X90357042Y-23374526D01*
X90333150Y-23375700D01*
X89845650Y-23375700D01*
X89821758Y-23374526D01*
X89798097Y-23371016D01*
X89774893Y-23365204D01*
X89752371Y-23357146D01*
X89730747Y-23346918D01*
X89710230Y-23334621D01*
X89691017Y-23320371D01*
X89673293Y-23304307D01*
X89657229Y-23286583D01*
X89642979Y-23267370D01*
X89630682Y-23246853D01*
X89620454Y-23225229D01*
X89612396Y-23202707D01*
X89606584Y-23179503D01*
X89603074Y-23155842D01*
X89601900Y-23131950D01*
X89601900Y-22219450D01*
X89603074Y-22195558D01*
X89606584Y-22171897D01*
X89612396Y-22148693D01*
X89620454Y-22126171D01*
X89630682Y-22104547D01*
X89642979Y-22084030D01*
X89657229Y-22064817D01*
X89673293Y-22047093D01*
X89691017Y-22031029D01*
X89710230Y-22016779D01*
X89730747Y-22004482D01*
X89752371Y-21994254D01*
X89774893Y-21986196D01*
X89798097Y-21980384D01*
X89821758Y-21976874D01*
X89845650Y-21975700D01*
X90333150Y-21975700D01*
X90357042Y-21976874D01*
X90357042Y-21976874D01*
G37*
D11*
X90089400Y-22675700D03*
D10*
G36*
X88482042Y-21976874D02*
X88505703Y-21980384D01*
X88528907Y-21986196D01*
X88551429Y-21994254D01*
X88573053Y-22004482D01*
X88593570Y-22016779D01*
X88612783Y-22031029D01*
X88630507Y-22047093D01*
X88646571Y-22064817D01*
X88660821Y-22084030D01*
X88673118Y-22104547D01*
X88683346Y-22126171D01*
X88691404Y-22148693D01*
X88697216Y-22171897D01*
X88700726Y-22195558D01*
X88701900Y-22219450D01*
X88701900Y-23131950D01*
X88700726Y-23155842D01*
X88697216Y-23179503D01*
X88691404Y-23202707D01*
X88683346Y-23225229D01*
X88673118Y-23246853D01*
X88660821Y-23267370D01*
X88646571Y-23286583D01*
X88630507Y-23304307D01*
X88612783Y-23320371D01*
X88593570Y-23334621D01*
X88573053Y-23346918D01*
X88551429Y-23357146D01*
X88528907Y-23365204D01*
X88505703Y-23371016D01*
X88482042Y-23374526D01*
X88458150Y-23375700D01*
X87970650Y-23375700D01*
X87946758Y-23374526D01*
X87923097Y-23371016D01*
X87899893Y-23365204D01*
X87877371Y-23357146D01*
X87855747Y-23346918D01*
X87835230Y-23334621D01*
X87816017Y-23320371D01*
X87798293Y-23304307D01*
X87782229Y-23286583D01*
X87767979Y-23267370D01*
X87755682Y-23246853D01*
X87745454Y-23225229D01*
X87737396Y-23202707D01*
X87731584Y-23179503D01*
X87728074Y-23155842D01*
X87726900Y-23131950D01*
X87726900Y-22219450D01*
X87728074Y-22195558D01*
X87731584Y-22171897D01*
X87737396Y-22148693D01*
X87745454Y-22126171D01*
X87755682Y-22104547D01*
X87767979Y-22084030D01*
X87782229Y-22064817D01*
X87798293Y-22047093D01*
X87816017Y-22031029D01*
X87835230Y-22016779D01*
X87855747Y-22004482D01*
X87877371Y-21994254D01*
X87899893Y-21986196D01*
X87923097Y-21980384D01*
X87946758Y-21976874D01*
X87970650Y-21975700D01*
X88458150Y-21975700D01*
X88482042Y-21976874D01*
X88482042Y-21976874D01*
G37*
D11*
X88214400Y-22675700D03*
G04 #@! TD*
D10*
G04 #@! TO.C,C1*
G36*
X94712042Y-27934374D02*
X94735703Y-27937884D01*
X94758907Y-27943696D01*
X94781429Y-27951754D01*
X94803053Y-27961982D01*
X94823570Y-27974279D01*
X94842783Y-27988529D01*
X94860507Y-28004593D01*
X94876571Y-28022317D01*
X94890821Y-28041530D01*
X94903118Y-28062047D01*
X94913346Y-28083671D01*
X94921404Y-28106193D01*
X94927216Y-28129397D01*
X94930726Y-28153058D01*
X94931900Y-28176950D01*
X94931900Y-28664450D01*
X94930726Y-28688342D01*
X94927216Y-28712003D01*
X94921404Y-28735207D01*
X94913346Y-28757729D01*
X94903118Y-28779353D01*
X94890821Y-28799870D01*
X94876571Y-28819083D01*
X94860507Y-28836807D01*
X94842783Y-28852871D01*
X94823570Y-28867121D01*
X94803053Y-28879418D01*
X94781429Y-28889646D01*
X94758907Y-28897704D01*
X94735703Y-28903516D01*
X94712042Y-28907026D01*
X94688150Y-28908200D01*
X93775650Y-28908200D01*
X93751758Y-28907026D01*
X93728097Y-28903516D01*
X93704893Y-28897704D01*
X93682371Y-28889646D01*
X93660747Y-28879418D01*
X93640230Y-28867121D01*
X93621017Y-28852871D01*
X93603293Y-28836807D01*
X93587229Y-28819083D01*
X93572979Y-28799870D01*
X93560682Y-28779353D01*
X93550454Y-28757729D01*
X93542396Y-28735207D01*
X93536584Y-28712003D01*
X93533074Y-28688342D01*
X93531900Y-28664450D01*
X93531900Y-28176950D01*
X93533074Y-28153058D01*
X93536584Y-28129397D01*
X93542396Y-28106193D01*
X93550454Y-28083671D01*
X93560682Y-28062047D01*
X93572979Y-28041530D01*
X93587229Y-28022317D01*
X93603293Y-28004593D01*
X93621017Y-27988529D01*
X93640230Y-27974279D01*
X93660747Y-27961982D01*
X93682371Y-27951754D01*
X93704893Y-27943696D01*
X93728097Y-27937884D01*
X93751758Y-27934374D01*
X93775650Y-27933200D01*
X94688150Y-27933200D01*
X94712042Y-27934374D01*
X94712042Y-27934374D01*
G37*
D11*
X94231900Y-28420700D03*
D10*
G36*
X94712042Y-29809374D02*
X94735703Y-29812884D01*
X94758907Y-29818696D01*
X94781429Y-29826754D01*
X94803053Y-29836982D01*
X94823570Y-29849279D01*
X94842783Y-29863529D01*
X94860507Y-29879593D01*
X94876571Y-29897317D01*
X94890821Y-29916530D01*
X94903118Y-29937047D01*
X94913346Y-29958671D01*
X94921404Y-29981193D01*
X94927216Y-30004397D01*
X94930726Y-30028058D01*
X94931900Y-30051950D01*
X94931900Y-30539450D01*
X94930726Y-30563342D01*
X94927216Y-30587003D01*
X94921404Y-30610207D01*
X94913346Y-30632729D01*
X94903118Y-30654353D01*
X94890821Y-30674870D01*
X94876571Y-30694083D01*
X94860507Y-30711807D01*
X94842783Y-30727871D01*
X94823570Y-30742121D01*
X94803053Y-30754418D01*
X94781429Y-30764646D01*
X94758907Y-30772704D01*
X94735703Y-30778516D01*
X94712042Y-30782026D01*
X94688150Y-30783200D01*
X93775650Y-30783200D01*
X93751758Y-30782026D01*
X93728097Y-30778516D01*
X93704893Y-30772704D01*
X93682371Y-30764646D01*
X93660747Y-30754418D01*
X93640230Y-30742121D01*
X93621017Y-30727871D01*
X93603293Y-30711807D01*
X93587229Y-30694083D01*
X93572979Y-30674870D01*
X93560682Y-30654353D01*
X93550454Y-30632729D01*
X93542396Y-30610207D01*
X93536584Y-30587003D01*
X93533074Y-30563342D01*
X93531900Y-30539450D01*
X93531900Y-30051950D01*
X93533074Y-30028058D01*
X93536584Y-30004397D01*
X93542396Y-29981193D01*
X93550454Y-29958671D01*
X93560682Y-29937047D01*
X93572979Y-29916530D01*
X93587229Y-29897317D01*
X93603293Y-29879593D01*
X93621017Y-29863529D01*
X93640230Y-29849279D01*
X93660747Y-29836982D01*
X93682371Y-29826754D01*
X93704893Y-29818696D01*
X93728097Y-29812884D01*
X93751758Y-29809374D01*
X93775650Y-29808200D01*
X94688150Y-29808200D01*
X94712042Y-29809374D01*
X94712042Y-29809374D01*
G37*
D11*
X94231900Y-30295700D03*
G04 #@! TD*
D12*
G04 #@! TO.C,Q1*
X99062300Y-99957500D03*
X97062300Y-99007500D03*
X97062300Y-100907500D03*
G04 #@! TD*
G04 #@! TO.C,Q2*
X92712300Y-105037000D03*
X90712300Y-104087000D03*
X90712300Y-105987000D03*
G04 #@! TD*
D13*
G04 #@! TO.C,U1*
X88051900Y-33155700D03*
X88051900Y-35055700D03*
X90251900Y-35055700D03*
X90251900Y-34105700D03*
X90251900Y-33155700D03*
G04 #@! TD*
D10*
G04 #@! TO.C,R2*
G36*
X64705142Y-104711174D02*
X64728803Y-104714684D01*
X64752007Y-104720496D01*
X64774529Y-104728554D01*
X64796153Y-104738782D01*
X64816670Y-104751079D01*
X64835883Y-104765329D01*
X64853607Y-104781393D01*
X64869671Y-104799117D01*
X64883921Y-104818330D01*
X64896218Y-104838847D01*
X64906446Y-104860471D01*
X64914504Y-104882993D01*
X64920316Y-104906197D01*
X64923826Y-104929858D01*
X64925000Y-104953750D01*
X64925000Y-105866250D01*
X64923826Y-105890142D01*
X64920316Y-105913803D01*
X64914504Y-105937007D01*
X64906446Y-105959529D01*
X64896218Y-105981153D01*
X64883921Y-106001670D01*
X64869671Y-106020883D01*
X64853607Y-106038607D01*
X64835883Y-106054671D01*
X64816670Y-106068921D01*
X64796153Y-106081218D01*
X64774529Y-106091446D01*
X64752007Y-106099504D01*
X64728803Y-106105316D01*
X64705142Y-106108826D01*
X64681250Y-106110000D01*
X64193750Y-106110000D01*
X64169858Y-106108826D01*
X64146197Y-106105316D01*
X64122993Y-106099504D01*
X64100471Y-106091446D01*
X64078847Y-106081218D01*
X64058330Y-106068921D01*
X64039117Y-106054671D01*
X64021393Y-106038607D01*
X64005329Y-106020883D01*
X63991079Y-106001670D01*
X63978782Y-105981153D01*
X63968554Y-105959529D01*
X63960496Y-105937007D01*
X63954684Y-105913803D01*
X63951174Y-105890142D01*
X63950000Y-105866250D01*
X63950000Y-104953750D01*
X63951174Y-104929858D01*
X63954684Y-104906197D01*
X63960496Y-104882993D01*
X63968554Y-104860471D01*
X63978782Y-104838847D01*
X63991079Y-104818330D01*
X64005329Y-104799117D01*
X64021393Y-104781393D01*
X64039117Y-104765329D01*
X64058330Y-104751079D01*
X64078847Y-104738782D01*
X64100471Y-104728554D01*
X64122993Y-104720496D01*
X64146197Y-104714684D01*
X64169858Y-104711174D01*
X64193750Y-104710000D01*
X64681250Y-104710000D01*
X64705142Y-104711174D01*
X64705142Y-104711174D01*
G37*
D11*
X64437500Y-105410000D03*
D10*
G36*
X62830142Y-104711174D02*
X62853803Y-104714684D01*
X62877007Y-104720496D01*
X62899529Y-104728554D01*
X62921153Y-104738782D01*
X62941670Y-104751079D01*
X62960883Y-104765329D01*
X62978607Y-104781393D01*
X62994671Y-104799117D01*
X63008921Y-104818330D01*
X63021218Y-104838847D01*
X63031446Y-104860471D01*
X63039504Y-104882993D01*
X63045316Y-104906197D01*
X63048826Y-104929858D01*
X63050000Y-104953750D01*
X63050000Y-105866250D01*
X63048826Y-105890142D01*
X63045316Y-105913803D01*
X63039504Y-105937007D01*
X63031446Y-105959529D01*
X63021218Y-105981153D01*
X63008921Y-106001670D01*
X62994671Y-106020883D01*
X62978607Y-106038607D01*
X62960883Y-106054671D01*
X62941670Y-106068921D01*
X62921153Y-106081218D01*
X62899529Y-106091446D01*
X62877007Y-106099504D01*
X62853803Y-106105316D01*
X62830142Y-106108826D01*
X62806250Y-106110000D01*
X62318750Y-106110000D01*
X62294858Y-106108826D01*
X62271197Y-106105316D01*
X62247993Y-106099504D01*
X62225471Y-106091446D01*
X62203847Y-106081218D01*
X62183330Y-106068921D01*
X62164117Y-106054671D01*
X62146393Y-106038607D01*
X62130329Y-106020883D01*
X62116079Y-106001670D01*
X62103782Y-105981153D01*
X62093554Y-105959529D01*
X62085496Y-105937007D01*
X62079684Y-105913803D01*
X62076174Y-105890142D01*
X62075000Y-105866250D01*
X62075000Y-104953750D01*
X62076174Y-104929858D01*
X62079684Y-104906197D01*
X62085496Y-104882993D01*
X62093554Y-104860471D01*
X62103782Y-104838847D01*
X62116079Y-104818330D01*
X62130329Y-104799117D01*
X62146393Y-104781393D01*
X62164117Y-104765329D01*
X62183330Y-104751079D01*
X62203847Y-104738782D01*
X62225471Y-104728554D01*
X62247993Y-104720496D01*
X62271197Y-104714684D01*
X62294858Y-104711174D01*
X62318750Y-104710000D01*
X62806250Y-104710000D01*
X62830142Y-104711174D01*
X62830142Y-104711174D01*
G37*
D11*
X62562500Y-105410000D03*
G04 #@! TD*
D10*
G04 #@! TO.C,R9*
G36*
X94187442Y-95448674D02*
X94211103Y-95452184D01*
X94234307Y-95457996D01*
X94256829Y-95466054D01*
X94278453Y-95476282D01*
X94298970Y-95488579D01*
X94318183Y-95502829D01*
X94335907Y-95518893D01*
X94351971Y-95536617D01*
X94366221Y-95555830D01*
X94378518Y-95576347D01*
X94388746Y-95597971D01*
X94396804Y-95620493D01*
X94402616Y-95643697D01*
X94406126Y-95667358D01*
X94407300Y-95691250D01*
X94407300Y-96603750D01*
X94406126Y-96627642D01*
X94402616Y-96651303D01*
X94396804Y-96674507D01*
X94388746Y-96697029D01*
X94378518Y-96718653D01*
X94366221Y-96739170D01*
X94351971Y-96758383D01*
X94335907Y-96776107D01*
X94318183Y-96792171D01*
X94298970Y-96806421D01*
X94278453Y-96818718D01*
X94256829Y-96828946D01*
X94234307Y-96837004D01*
X94211103Y-96842816D01*
X94187442Y-96846326D01*
X94163550Y-96847500D01*
X93676050Y-96847500D01*
X93652158Y-96846326D01*
X93628497Y-96842816D01*
X93605293Y-96837004D01*
X93582771Y-96828946D01*
X93561147Y-96818718D01*
X93540630Y-96806421D01*
X93521417Y-96792171D01*
X93503693Y-96776107D01*
X93487629Y-96758383D01*
X93473379Y-96739170D01*
X93461082Y-96718653D01*
X93450854Y-96697029D01*
X93442796Y-96674507D01*
X93436984Y-96651303D01*
X93433474Y-96627642D01*
X93432300Y-96603750D01*
X93432300Y-95691250D01*
X93433474Y-95667358D01*
X93436984Y-95643697D01*
X93442796Y-95620493D01*
X93450854Y-95597971D01*
X93461082Y-95576347D01*
X93473379Y-95555830D01*
X93487629Y-95536617D01*
X93503693Y-95518893D01*
X93521417Y-95502829D01*
X93540630Y-95488579D01*
X93561147Y-95476282D01*
X93582771Y-95466054D01*
X93605293Y-95457996D01*
X93628497Y-95452184D01*
X93652158Y-95448674D01*
X93676050Y-95447500D01*
X94163550Y-95447500D01*
X94187442Y-95448674D01*
X94187442Y-95448674D01*
G37*
D11*
X93919800Y-96147500D03*
D10*
G36*
X92312442Y-95448674D02*
X92336103Y-95452184D01*
X92359307Y-95457996D01*
X92381829Y-95466054D01*
X92403453Y-95476282D01*
X92423970Y-95488579D01*
X92443183Y-95502829D01*
X92460907Y-95518893D01*
X92476971Y-95536617D01*
X92491221Y-95555830D01*
X92503518Y-95576347D01*
X92513746Y-95597971D01*
X92521804Y-95620493D01*
X92527616Y-95643697D01*
X92531126Y-95667358D01*
X92532300Y-95691250D01*
X92532300Y-96603750D01*
X92531126Y-96627642D01*
X92527616Y-96651303D01*
X92521804Y-96674507D01*
X92513746Y-96697029D01*
X92503518Y-96718653D01*
X92491221Y-96739170D01*
X92476971Y-96758383D01*
X92460907Y-96776107D01*
X92443183Y-96792171D01*
X92423970Y-96806421D01*
X92403453Y-96818718D01*
X92381829Y-96828946D01*
X92359307Y-96837004D01*
X92336103Y-96842816D01*
X92312442Y-96846326D01*
X92288550Y-96847500D01*
X91801050Y-96847500D01*
X91777158Y-96846326D01*
X91753497Y-96842816D01*
X91730293Y-96837004D01*
X91707771Y-96828946D01*
X91686147Y-96818718D01*
X91665630Y-96806421D01*
X91646417Y-96792171D01*
X91628693Y-96776107D01*
X91612629Y-96758383D01*
X91598379Y-96739170D01*
X91586082Y-96718653D01*
X91575854Y-96697029D01*
X91567796Y-96674507D01*
X91561984Y-96651303D01*
X91558474Y-96627642D01*
X91557300Y-96603750D01*
X91557300Y-95691250D01*
X91558474Y-95667358D01*
X91561984Y-95643697D01*
X91567796Y-95620493D01*
X91575854Y-95597971D01*
X91586082Y-95576347D01*
X91598379Y-95555830D01*
X91612629Y-95536617D01*
X91628693Y-95518893D01*
X91646417Y-95502829D01*
X91665630Y-95488579D01*
X91686147Y-95476282D01*
X91707771Y-95466054D01*
X91730293Y-95457996D01*
X91753497Y-95452184D01*
X91777158Y-95448674D01*
X91801050Y-95447500D01*
X92288550Y-95447500D01*
X92312442Y-95448674D01*
X92312442Y-95448674D01*
G37*
D11*
X92044800Y-96147500D03*
G04 #@! TD*
D10*
G04 #@! TO.C,R8*
G36*
X94519942Y-97988674D02*
X94543603Y-97992184D01*
X94566807Y-97997996D01*
X94589329Y-98006054D01*
X94610953Y-98016282D01*
X94631470Y-98028579D01*
X94650683Y-98042829D01*
X94668407Y-98058893D01*
X94684471Y-98076617D01*
X94698721Y-98095830D01*
X94711018Y-98116347D01*
X94721246Y-98137971D01*
X94729304Y-98160493D01*
X94735116Y-98183697D01*
X94738626Y-98207358D01*
X94739800Y-98231250D01*
X94739800Y-99143750D01*
X94738626Y-99167642D01*
X94735116Y-99191303D01*
X94729304Y-99214507D01*
X94721246Y-99237029D01*
X94711018Y-99258653D01*
X94698721Y-99279170D01*
X94684471Y-99298383D01*
X94668407Y-99316107D01*
X94650683Y-99332171D01*
X94631470Y-99346421D01*
X94610953Y-99358718D01*
X94589329Y-99368946D01*
X94566807Y-99377004D01*
X94543603Y-99382816D01*
X94519942Y-99386326D01*
X94496050Y-99387500D01*
X94008550Y-99387500D01*
X93984658Y-99386326D01*
X93960997Y-99382816D01*
X93937793Y-99377004D01*
X93915271Y-99368946D01*
X93893647Y-99358718D01*
X93873130Y-99346421D01*
X93853917Y-99332171D01*
X93836193Y-99316107D01*
X93820129Y-99298383D01*
X93805879Y-99279170D01*
X93793582Y-99258653D01*
X93783354Y-99237029D01*
X93775296Y-99214507D01*
X93769484Y-99191303D01*
X93765974Y-99167642D01*
X93764800Y-99143750D01*
X93764800Y-98231250D01*
X93765974Y-98207358D01*
X93769484Y-98183697D01*
X93775296Y-98160493D01*
X93783354Y-98137971D01*
X93793582Y-98116347D01*
X93805879Y-98095830D01*
X93820129Y-98076617D01*
X93836193Y-98058893D01*
X93853917Y-98042829D01*
X93873130Y-98028579D01*
X93893647Y-98016282D01*
X93915271Y-98006054D01*
X93937793Y-97997996D01*
X93960997Y-97992184D01*
X93984658Y-97988674D01*
X94008550Y-97987500D01*
X94496050Y-97987500D01*
X94519942Y-97988674D01*
X94519942Y-97988674D01*
G37*
D11*
X94252300Y-98687500D03*
D10*
G36*
X92644942Y-97988674D02*
X92668603Y-97992184D01*
X92691807Y-97997996D01*
X92714329Y-98006054D01*
X92735953Y-98016282D01*
X92756470Y-98028579D01*
X92775683Y-98042829D01*
X92793407Y-98058893D01*
X92809471Y-98076617D01*
X92823721Y-98095830D01*
X92836018Y-98116347D01*
X92846246Y-98137971D01*
X92854304Y-98160493D01*
X92860116Y-98183697D01*
X92863626Y-98207358D01*
X92864800Y-98231250D01*
X92864800Y-99143750D01*
X92863626Y-99167642D01*
X92860116Y-99191303D01*
X92854304Y-99214507D01*
X92846246Y-99237029D01*
X92836018Y-99258653D01*
X92823721Y-99279170D01*
X92809471Y-99298383D01*
X92793407Y-99316107D01*
X92775683Y-99332171D01*
X92756470Y-99346421D01*
X92735953Y-99358718D01*
X92714329Y-99368946D01*
X92691807Y-99377004D01*
X92668603Y-99382816D01*
X92644942Y-99386326D01*
X92621050Y-99387500D01*
X92133550Y-99387500D01*
X92109658Y-99386326D01*
X92085997Y-99382816D01*
X92062793Y-99377004D01*
X92040271Y-99368946D01*
X92018647Y-99358718D01*
X91998130Y-99346421D01*
X91978917Y-99332171D01*
X91961193Y-99316107D01*
X91945129Y-99298383D01*
X91930879Y-99279170D01*
X91918582Y-99258653D01*
X91908354Y-99237029D01*
X91900296Y-99214507D01*
X91894484Y-99191303D01*
X91890974Y-99167642D01*
X91889800Y-99143750D01*
X91889800Y-98231250D01*
X91890974Y-98207358D01*
X91894484Y-98183697D01*
X91900296Y-98160493D01*
X91908354Y-98137971D01*
X91918582Y-98116347D01*
X91930879Y-98095830D01*
X91945129Y-98076617D01*
X91961193Y-98058893D01*
X91978917Y-98042829D01*
X91998130Y-98028579D01*
X92018647Y-98016282D01*
X92040271Y-98006054D01*
X92062793Y-97997996D01*
X92085997Y-97992184D01*
X92109658Y-97988674D01*
X92133550Y-97987500D01*
X92621050Y-97987500D01*
X92644942Y-97988674D01*
X92644942Y-97988674D01*
G37*
D11*
X92377300Y-98687500D03*
G04 #@! TD*
D10*
G04 #@! TO.C,R6*
G36*
X97392442Y-104338174D02*
X97416103Y-104341684D01*
X97439307Y-104347496D01*
X97461829Y-104355554D01*
X97483453Y-104365782D01*
X97503970Y-104378079D01*
X97523183Y-104392329D01*
X97540907Y-104408393D01*
X97556971Y-104426117D01*
X97571221Y-104445330D01*
X97583518Y-104465847D01*
X97593746Y-104487471D01*
X97601804Y-104509993D01*
X97607616Y-104533197D01*
X97611126Y-104556858D01*
X97612300Y-104580750D01*
X97612300Y-105493250D01*
X97611126Y-105517142D01*
X97607616Y-105540803D01*
X97601804Y-105564007D01*
X97593746Y-105586529D01*
X97583518Y-105608153D01*
X97571221Y-105628670D01*
X97556971Y-105647883D01*
X97540907Y-105665607D01*
X97523183Y-105681671D01*
X97503970Y-105695921D01*
X97483453Y-105708218D01*
X97461829Y-105718446D01*
X97439307Y-105726504D01*
X97416103Y-105732316D01*
X97392442Y-105735826D01*
X97368550Y-105737000D01*
X96881050Y-105737000D01*
X96857158Y-105735826D01*
X96833497Y-105732316D01*
X96810293Y-105726504D01*
X96787771Y-105718446D01*
X96766147Y-105708218D01*
X96745630Y-105695921D01*
X96726417Y-105681671D01*
X96708693Y-105665607D01*
X96692629Y-105647883D01*
X96678379Y-105628670D01*
X96666082Y-105608153D01*
X96655854Y-105586529D01*
X96647796Y-105564007D01*
X96641984Y-105540803D01*
X96638474Y-105517142D01*
X96637300Y-105493250D01*
X96637300Y-104580750D01*
X96638474Y-104556858D01*
X96641984Y-104533197D01*
X96647796Y-104509993D01*
X96655854Y-104487471D01*
X96666082Y-104465847D01*
X96678379Y-104445330D01*
X96692629Y-104426117D01*
X96708693Y-104408393D01*
X96726417Y-104392329D01*
X96745630Y-104378079D01*
X96766147Y-104365782D01*
X96787771Y-104355554D01*
X96810293Y-104347496D01*
X96833497Y-104341684D01*
X96857158Y-104338174D01*
X96881050Y-104337000D01*
X97368550Y-104337000D01*
X97392442Y-104338174D01*
X97392442Y-104338174D01*
G37*
D11*
X97124800Y-105037000D03*
D10*
G36*
X99267442Y-104338174D02*
X99291103Y-104341684D01*
X99314307Y-104347496D01*
X99336829Y-104355554D01*
X99358453Y-104365782D01*
X99378970Y-104378079D01*
X99398183Y-104392329D01*
X99415907Y-104408393D01*
X99431971Y-104426117D01*
X99446221Y-104445330D01*
X99458518Y-104465847D01*
X99468746Y-104487471D01*
X99476804Y-104509993D01*
X99482616Y-104533197D01*
X99486126Y-104556858D01*
X99487300Y-104580750D01*
X99487300Y-105493250D01*
X99486126Y-105517142D01*
X99482616Y-105540803D01*
X99476804Y-105564007D01*
X99468746Y-105586529D01*
X99458518Y-105608153D01*
X99446221Y-105628670D01*
X99431971Y-105647883D01*
X99415907Y-105665607D01*
X99398183Y-105681671D01*
X99378970Y-105695921D01*
X99358453Y-105708218D01*
X99336829Y-105718446D01*
X99314307Y-105726504D01*
X99291103Y-105732316D01*
X99267442Y-105735826D01*
X99243550Y-105737000D01*
X98756050Y-105737000D01*
X98732158Y-105735826D01*
X98708497Y-105732316D01*
X98685293Y-105726504D01*
X98662771Y-105718446D01*
X98641147Y-105708218D01*
X98620630Y-105695921D01*
X98601417Y-105681671D01*
X98583693Y-105665607D01*
X98567629Y-105647883D01*
X98553379Y-105628670D01*
X98541082Y-105608153D01*
X98530854Y-105586529D01*
X98522796Y-105564007D01*
X98516984Y-105540803D01*
X98513474Y-105517142D01*
X98512300Y-105493250D01*
X98512300Y-104580750D01*
X98513474Y-104556858D01*
X98516984Y-104533197D01*
X98522796Y-104509993D01*
X98530854Y-104487471D01*
X98541082Y-104465847D01*
X98553379Y-104445330D01*
X98567629Y-104426117D01*
X98583693Y-104408393D01*
X98601417Y-104392329D01*
X98620630Y-104378079D01*
X98641147Y-104365782D01*
X98662771Y-104355554D01*
X98685293Y-104347496D01*
X98708497Y-104341684D01*
X98732158Y-104338174D01*
X98756050Y-104337000D01*
X99243550Y-104337000D01*
X99267442Y-104338174D01*
X99267442Y-104338174D01*
G37*
D11*
X98999800Y-105037000D03*
G04 #@! TD*
D10*
G04 #@! TO.C,R5*
G36*
X94712042Y-32681874D02*
X94735703Y-32685384D01*
X94758907Y-32691196D01*
X94781429Y-32699254D01*
X94803053Y-32709482D01*
X94823570Y-32721779D01*
X94842783Y-32736029D01*
X94860507Y-32752093D01*
X94876571Y-32769817D01*
X94890821Y-32789030D01*
X94903118Y-32809547D01*
X94913346Y-32831171D01*
X94921404Y-32853693D01*
X94927216Y-32876897D01*
X94930726Y-32900558D01*
X94931900Y-32924450D01*
X94931900Y-33411950D01*
X94930726Y-33435842D01*
X94927216Y-33459503D01*
X94921404Y-33482707D01*
X94913346Y-33505229D01*
X94903118Y-33526853D01*
X94890821Y-33547370D01*
X94876571Y-33566583D01*
X94860507Y-33584307D01*
X94842783Y-33600371D01*
X94823570Y-33614621D01*
X94803053Y-33626918D01*
X94781429Y-33637146D01*
X94758907Y-33645204D01*
X94735703Y-33651016D01*
X94712042Y-33654526D01*
X94688150Y-33655700D01*
X93775650Y-33655700D01*
X93751758Y-33654526D01*
X93728097Y-33651016D01*
X93704893Y-33645204D01*
X93682371Y-33637146D01*
X93660747Y-33626918D01*
X93640230Y-33614621D01*
X93621017Y-33600371D01*
X93603293Y-33584307D01*
X93587229Y-33566583D01*
X93572979Y-33547370D01*
X93560682Y-33526853D01*
X93550454Y-33505229D01*
X93542396Y-33482707D01*
X93536584Y-33459503D01*
X93533074Y-33435842D01*
X93531900Y-33411950D01*
X93531900Y-32924450D01*
X93533074Y-32900558D01*
X93536584Y-32876897D01*
X93542396Y-32853693D01*
X93550454Y-32831171D01*
X93560682Y-32809547D01*
X93572979Y-32789030D01*
X93587229Y-32769817D01*
X93603293Y-32752093D01*
X93621017Y-32736029D01*
X93640230Y-32721779D01*
X93660747Y-32709482D01*
X93682371Y-32699254D01*
X93704893Y-32691196D01*
X93728097Y-32685384D01*
X93751758Y-32681874D01*
X93775650Y-32680700D01*
X94688150Y-32680700D01*
X94712042Y-32681874D01*
X94712042Y-32681874D01*
G37*
D11*
X94231900Y-33168200D03*
D10*
G36*
X94712042Y-34556874D02*
X94735703Y-34560384D01*
X94758907Y-34566196D01*
X94781429Y-34574254D01*
X94803053Y-34584482D01*
X94823570Y-34596779D01*
X94842783Y-34611029D01*
X94860507Y-34627093D01*
X94876571Y-34644817D01*
X94890821Y-34664030D01*
X94903118Y-34684547D01*
X94913346Y-34706171D01*
X94921404Y-34728693D01*
X94927216Y-34751897D01*
X94930726Y-34775558D01*
X94931900Y-34799450D01*
X94931900Y-35286950D01*
X94930726Y-35310842D01*
X94927216Y-35334503D01*
X94921404Y-35357707D01*
X94913346Y-35380229D01*
X94903118Y-35401853D01*
X94890821Y-35422370D01*
X94876571Y-35441583D01*
X94860507Y-35459307D01*
X94842783Y-35475371D01*
X94823570Y-35489621D01*
X94803053Y-35501918D01*
X94781429Y-35512146D01*
X94758907Y-35520204D01*
X94735703Y-35526016D01*
X94712042Y-35529526D01*
X94688150Y-35530700D01*
X93775650Y-35530700D01*
X93751758Y-35529526D01*
X93728097Y-35526016D01*
X93704893Y-35520204D01*
X93682371Y-35512146D01*
X93660747Y-35501918D01*
X93640230Y-35489621D01*
X93621017Y-35475371D01*
X93603293Y-35459307D01*
X93587229Y-35441583D01*
X93572979Y-35422370D01*
X93560682Y-35401853D01*
X93550454Y-35380229D01*
X93542396Y-35357707D01*
X93536584Y-35334503D01*
X93533074Y-35310842D01*
X93531900Y-35286950D01*
X93531900Y-34799450D01*
X93533074Y-34775558D01*
X93536584Y-34751897D01*
X93542396Y-34728693D01*
X93550454Y-34706171D01*
X93560682Y-34684547D01*
X93572979Y-34664030D01*
X93587229Y-34644817D01*
X93603293Y-34627093D01*
X93621017Y-34611029D01*
X93640230Y-34596779D01*
X93660747Y-34584482D01*
X93682371Y-34574254D01*
X93704893Y-34566196D01*
X93728097Y-34560384D01*
X93751758Y-34556874D01*
X93775650Y-34555700D01*
X94688150Y-34555700D01*
X94712042Y-34556874D01*
X94712042Y-34556874D01*
G37*
D11*
X94231900Y-35043200D03*
G04 #@! TD*
D10*
G04 #@! TO.C,R7*
G36*
X89107442Y-105608174D02*
X89131103Y-105611684D01*
X89154307Y-105617496D01*
X89176829Y-105625554D01*
X89198453Y-105635782D01*
X89218970Y-105648079D01*
X89238183Y-105662329D01*
X89255907Y-105678393D01*
X89271971Y-105696117D01*
X89286221Y-105715330D01*
X89298518Y-105735847D01*
X89308746Y-105757471D01*
X89316804Y-105779993D01*
X89322616Y-105803197D01*
X89326126Y-105826858D01*
X89327300Y-105850750D01*
X89327300Y-106763250D01*
X89326126Y-106787142D01*
X89322616Y-106810803D01*
X89316804Y-106834007D01*
X89308746Y-106856529D01*
X89298518Y-106878153D01*
X89286221Y-106898670D01*
X89271971Y-106917883D01*
X89255907Y-106935607D01*
X89238183Y-106951671D01*
X89218970Y-106965921D01*
X89198453Y-106978218D01*
X89176829Y-106988446D01*
X89154307Y-106996504D01*
X89131103Y-107002316D01*
X89107442Y-107005826D01*
X89083550Y-107007000D01*
X88596050Y-107007000D01*
X88572158Y-107005826D01*
X88548497Y-107002316D01*
X88525293Y-106996504D01*
X88502771Y-106988446D01*
X88481147Y-106978218D01*
X88460630Y-106965921D01*
X88441417Y-106951671D01*
X88423693Y-106935607D01*
X88407629Y-106917883D01*
X88393379Y-106898670D01*
X88381082Y-106878153D01*
X88370854Y-106856529D01*
X88362796Y-106834007D01*
X88356984Y-106810803D01*
X88353474Y-106787142D01*
X88352300Y-106763250D01*
X88352300Y-105850750D01*
X88353474Y-105826858D01*
X88356984Y-105803197D01*
X88362796Y-105779993D01*
X88370854Y-105757471D01*
X88381082Y-105735847D01*
X88393379Y-105715330D01*
X88407629Y-105696117D01*
X88423693Y-105678393D01*
X88441417Y-105662329D01*
X88460630Y-105648079D01*
X88481147Y-105635782D01*
X88502771Y-105625554D01*
X88525293Y-105617496D01*
X88548497Y-105611684D01*
X88572158Y-105608174D01*
X88596050Y-105607000D01*
X89083550Y-105607000D01*
X89107442Y-105608174D01*
X89107442Y-105608174D01*
G37*
D11*
X88839800Y-106307000D03*
D10*
G36*
X87232442Y-105608174D02*
X87256103Y-105611684D01*
X87279307Y-105617496D01*
X87301829Y-105625554D01*
X87323453Y-105635782D01*
X87343970Y-105648079D01*
X87363183Y-105662329D01*
X87380907Y-105678393D01*
X87396971Y-105696117D01*
X87411221Y-105715330D01*
X87423518Y-105735847D01*
X87433746Y-105757471D01*
X87441804Y-105779993D01*
X87447616Y-105803197D01*
X87451126Y-105826858D01*
X87452300Y-105850750D01*
X87452300Y-106763250D01*
X87451126Y-106787142D01*
X87447616Y-106810803D01*
X87441804Y-106834007D01*
X87433746Y-106856529D01*
X87423518Y-106878153D01*
X87411221Y-106898670D01*
X87396971Y-106917883D01*
X87380907Y-106935607D01*
X87363183Y-106951671D01*
X87343970Y-106965921D01*
X87323453Y-106978218D01*
X87301829Y-106988446D01*
X87279307Y-106996504D01*
X87256103Y-107002316D01*
X87232442Y-107005826D01*
X87208550Y-107007000D01*
X86721050Y-107007000D01*
X86697158Y-107005826D01*
X86673497Y-107002316D01*
X86650293Y-106996504D01*
X86627771Y-106988446D01*
X86606147Y-106978218D01*
X86585630Y-106965921D01*
X86566417Y-106951671D01*
X86548693Y-106935607D01*
X86532629Y-106917883D01*
X86518379Y-106898670D01*
X86506082Y-106878153D01*
X86495854Y-106856529D01*
X86487796Y-106834007D01*
X86481984Y-106810803D01*
X86478474Y-106787142D01*
X86477300Y-106763250D01*
X86477300Y-105850750D01*
X86478474Y-105826858D01*
X86481984Y-105803197D01*
X86487796Y-105779993D01*
X86495854Y-105757471D01*
X86506082Y-105735847D01*
X86518379Y-105715330D01*
X86532629Y-105696117D01*
X86548693Y-105678393D01*
X86566417Y-105662329D01*
X86585630Y-105648079D01*
X86606147Y-105635782D01*
X86627771Y-105625554D01*
X86650293Y-105617496D01*
X86673497Y-105611684D01*
X86697158Y-105608174D01*
X86721050Y-105607000D01*
X87208550Y-105607000D01*
X87232442Y-105608174D01*
X87232442Y-105608174D01*
G37*
D11*
X86964800Y-106307000D03*
G04 #@! TD*
D10*
G04 #@! TO.C,R4*
G36*
X62710142Y-110941174D02*
X62733803Y-110944684D01*
X62757007Y-110950496D01*
X62779529Y-110958554D01*
X62801153Y-110968782D01*
X62821670Y-110981079D01*
X62840883Y-110995329D01*
X62858607Y-111011393D01*
X62874671Y-111029117D01*
X62888921Y-111048330D01*
X62901218Y-111068847D01*
X62911446Y-111090471D01*
X62919504Y-111112993D01*
X62925316Y-111136197D01*
X62928826Y-111159858D01*
X62930000Y-111183750D01*
X62930000Y-111671250D01*
X62928826Y-111695142D01*
X62925316Y-111718803D01*
X62919504Y-111742007D01*
X62911446Y-111764529D01*
X62901218Y-111786153D01*
X62888921Y-111806670D01*
X62874671Y-111825883D01*
X62858607Y-111843607D01*
X62840883Y-111859671D01*
X62821670Y-111873921D01*
X62801153Y-111886218D01*
X62779529Y-111896446D01*
X62757007Y-111904504D01*
X62733803Y-111910316D01*
X62710142Y-111913826D01*
X62686250Y-111915000D01*
X61773750Y-111915000D01*
X61749858Y-111913826D01*
X61726197Y-111910316D01*
X61702993Y-111904504D01*
X61680471Y-111896446D01*
X61658847Y-111886218D01*
X61638330Y-111873921D01*
X61619117Y-111859671D01*
X61601393Y-111843607D01*
X61585329Y-111825883D01*
X61571079Y-111806670D01*
X61558782Y-111786153D01*
X61548554Y-111764529D01*
X61540496Y-111742007D01*
X61534684Y-111718803D01*
X61531174Y-111695142D01*
X61530000Y-111671250D01*
X61530000Y-111183750D01*
X61531174Y-111159858D01*
X61534684Y-111136197D01*
X61540496Y-111112993D01*
X61548554Y-111090471D01*
X61558782Y-111068847D01*
X61571079Y-111048330D01*
X61585329Y-111029117D01*
X61601393Y-111011393D01*
X61619117Y-110995329D01*
X61638330Y-110981079D01*
X61658847Y-110968782D01*
X61680471Y-110958554D01*
X61702993Y-110950496D01*
X61726197Y-110944684D01*
X61749858Y-110941174D01*
X61773750Y-110940000D01*
X62686250Y-110940000D01*
X62710142Y-110941174D01*
X62710142Y-110941174D01*
G37*
D11*
X62230000Y-111427500D03*
D10*
G36*
X62710142Y-109066174D02*
X62733803Y-109069684D01*
X62757007Y-109075496D01*
X62779529Y-109083554D01*
X62801153Y-109093782D01*
X62821670Y-109106079D01*
X62840883Y-109120329D01*
X62858607Y-109136393D01*
X62874671Y-109154117D01*
X62888921Y-109173330D01*
X62901218Y-109193847D01*
X62911446Y-109215471D01*
X62919504Y-109237993D01*
X62925316Y-109261197D01*
X62928826Y-109284858D01*
X62930000Y-109308750D01*
X62930000Y-109796250D01*
X62928826Y-109820142D01*
X62925316Y-109843803D01*
X62919504Y-109867007D01*
X62911446Y-109889529D01*
X62901218Y-109911153D01*
X62888921Y-109931670D01*
X62874671Y-109950883D01*
X62858607Y-109968607D01*
X62840883Y-109984671D01*
X62821670Y-109998921D01*
X62801153Y-110011218D01*
X62779529Y-110021446D01*
X62757007Y-110029504D01*
X62733803Y-110035316D01*
X62710142Y-110038826D01*
X62686250Y-110040000D01*
X61773750Y-110040000D01*
X61749858Y-110038826D01*
X61726197Y-110035316D01*
X61702993Y-110029504D01*
X61680471Y-110021446D01*
X61658847Y-110011218D01*
X61638330Y-109998921D01*
X61619117Y-109984671D01*
X61601393Y-109968607D01*
X61585329Y-109950883D01*
X61571079Y-109931670D01*
X61558782Y-109911153D01*
X61548554Y-109889529D01*
X61540496Y-109867007D01*
X61534684Y-109843803D01*
X61531174Y-109820142D01*
X61530000Y-109796250D01*
X61530000Y-109308750D01*
X61531174Y-109284858D01*
X61534684Y-109261197D01*
X61540496Y-109237993D01*
X61548554Y-109215471D01*
X61558782Y-109193847D01*
X61571079Y-109173330D01*
X61585329Y-109154117D01*
X61601393Y-109136393D01*
X61619117Y-109120329D01*
X61638330Y-109106079D01*
X61658847Y-109093782D01*
X61680471Y-109083554D01*
X61702993Y-109075496D01*
X61726197Y-109069684D01*
X61749858Y-109066174D01*
X61773750Y-109065000D01*
X62686250Y-109065000D01*
X62710142Y-109066174D01*
X62710142Y-109066174D01*
G37*
D11*
X62230000Y-109552500D03*
G04 #@! TD*
D10*
G04 #@! TO.C,R3*
G36*
X53820142Y-110941174D02*
X53843803Y-110944684D01*
X53867007Y-110950496D01*
X53889529Y-110958554D01*
X53911153Y-110968782D01*
X53931670Y-110981079D01*
X53950883Y-110995329D01*
X53968607Y-111011393D01*
X53984671Y-111029117D01*
X53998921Y-111048330D01*
X54011218Y-111068847D01*
X54021446Y-111090471D01*
X54029504Y-111112993D01*
X54035316Y-111136197D01*
X54038826Y-111159858D01*
X54040000Y-111183750D01*
X54040000Y-111671250D01*
X54038826Y-111695142D01*
X54035316Y-111718803D01*
X54029504Y-111742007D01*
X54021446Y-111764529D01*
X54011218Y-111786153D01*
X53998921Y-111806670D01*
X53984671Y-111825883D01*
X53968607Y-111843607D01*
X53950883Y-111859671D01*
X53931670Y-111873921D01*
X53911153Y-111886218D01*
X53889529Y-111896446D01*
X53867007Y-111904504D01*
X53843803Y-111910316D01*
X53820142Y-111913826D01*
X53796250Y-111915000D01*
X52883750Y-111915000D01*
X52859858Y-111913826D01*
X52836197Y-111910316D01*
X52812993Y-111904504D01*
X52790471Y-111896446D01*
X52768847Y-111886218D01*
X52748330Y-111873921D01*
X52729117Y-111859671D01*
X52711393Y-111843607D01*
X52695329Y-111825883D01*
X52681079Y-111806670D01*
X52668782Y-111786153D01*
X52658554Y-111764529D01*
X52650496Y-111742007D01*
X52644684Y-111718803D01*
X52641174Y-111695142D01*
X52640000Y-111671250D01*
X52640000Y-111183750D01*
X52641174Y-111159858D01*
X52644684Y-111136197D01*
X52650496Y-111112993D01*
X52658554Y-111090471D01*
X52668782Y-111068847D01*
X52681079Y-111048330D01*
X52695329Y-111029117D01*
X52711393Y-111011393D01*
X52729117Y-110995329D01*
X52748330Y-110981079D01*
X52768847Y-110968782D01*
X52790471Y-110958554D01*
X52812993Y-110950496D01*
X52836197Y-110944684D01*
X52859858Y-110941174D01*
X52883750Y-110940000D01*
X53796250Y-110940000D01*
X53820142Y-110941174D01*
X53820142Y-110941174D01*
G37*
D11*
X53340000Y-111427500D03*
D10*
G36*
X53820142Y-109066174D02*
X53843803Y-109069684D01*
X53867007Y-109075496D01*
X53889529Y-109083554D01*
X53911153Y-109093782D01*
X53931670Y-109106079D01*
X53950883Y-109120329D01*
X53968607Y-109136393D01*
X53984671Y-109154117D01*
X53998921Y-109173330D01*
X54011218Y-109193847D01*
X54021446Y-109215471D01*
X54029504Y-109237993D01*
X54035316Y-109261197D01*
X54038826Y-109284858D01*
X54040000Y-109308750D01*
X54040000Y-109796250D01*
X54038826Y-109820142D01*
X54035316Y-109843803D01*
X54029504Y-109867007D01*
X54021446Y-109889529D01*
X54011218Y-109911153D01*
X53998921Y-109931670D01*
X53984671Y-109950883D01*
X53968607Y-109968607D01*
X53950883Y-109984671D01*
X53931670Y-109998921D01*
X53911153Y-110011218D01*
X53889529Y-110021446D01*
X53867007Y-110029504D01*
X53843803Y-110035316D01*
X53820142Y-110038826D01*
X53796250Y-110040000D01*
X52883750Y-110040000D01*
X52859858Y-110038826D01*
X52836197Y-110035316D01*
X52812993Y-110029504D01*
X52790471Y-110021446D01*
X52768847Y-110011218D01*
X52748330Y-109998921D01*
X52729117Y-109984671D01*
X52711393Y-109968607D01*
X52695329Y-109950883D01*
X52681079Y-109931670D01*
X52668782Y-109911153D01*
X52658554Y-109889529D01*
X52650496Y-109867007D01*
X52644684Y-109843803D01*
X52641174Y-109820142D01*
X52640000Y-109796250D01*
X52640000Y-109308750D01*
X52641174Y-109284858D01*
X52644684Y-109261197D01*
X52650496Y-109237993D01*
X52658554Y-109215471D01*
X52668782Y-109193847D01*
X52681079Y-109173330D01*
X52695329Y-109154117D01*
X52711393Y-109136393D01*
X52729117Y-109120329D01*
X52748330Y-109106079D01*
X52768847Y-109093782D01*
X52790471Y-109083554D01*
X52812993Y-109075496D01*
X52836197Y-109069684D01*
X52859858Y-109066174D01*
X52883750Y-109065000D01*
X53796250Y-109065000D01*
X53820142Y-109066174D01*
X53820142Y-109066174D01*
G37*
D11*
X53340000Y-109552500D03*
G04 #@! TD*
D10*
G04 #@! TO.C,R1*
G36*
X64705142Y-100901174D02*
X64728803Y-100904684D01*
X64752007Y-100910496D01*
X64774529Y-100918554D01*
X64796153Y-100928782D01*
X64816670Y-100941079D01*
X64835883Y-100955329D01*
X64853607Y-100971393D01*
X64869671Y-100989117D01*
X64883921Y-101008330D01*
X64896218Y-101028847D01*
X64906446Y-101050471D01*
X64914504Y-101072993D01*
X64920316Y-101096197D01*
X64923826Y-101119858D01*
X64925000Y-101143750D01*
X64925000Y-102056250D01*
X64923826Y-102080142D01*
X64920316Y-102103803D01*
X64914504Y-102127007D01*
X64906446Y-102149529D01*
X64896218Y-102171153D01*
X64883921Y-102191670D01*
X64869671Y-102210883D01*
X64853607Y-102228607D01*
X64835883Y-102244671D01*
X64816670Y-102258921D01*
X64796153Y-102271218D01*
X64774529Y-102281446D01*
X64752007Y-102289504D01*
X64728803Y-102295316D01*
X64705142Y-102298826D01*
X64681250Y-102300000D01*
X64193750Y-102300000D01*
X64169858Y-102298826D01*
X64146197Y-102295316D01*
X64122993Y-102289504D01*
X64100471Y-102281446D01*
X64078847Y-102271218D01*
X64058330Y-102258921D01*
X64039117Y-102244671D01*
X64021393Y-102228607D01*
X64005329Y-102210883D01*
X63991079Y-102191670D01*
X63978782Y-102171153D01*
X63968554Y-102149529D01*
X63960496Y-102127007D01*
X63954684Y-102103803D01*
X63951174Y-102080142D01*
X63950000Y-102056250D01*
X63950000Y-101143750D01*
X63951174Y-101119858D01*
X63954684Y-101096197D01*
X63960496Y-101072993D01*
X63968554Y-101050471D01*
X63978782Y-101028847D01*
X63991079Y-101008330D01*
X64005329Y-100989117D01*
X64021393Y-100971393D01*
X64039117Y-100955329D01*
X64058330Y-100941079D01*
X64078847Y-100928782D01*
X64100471Y-100918554D01*
X64122993Y-100910496D01*
X64146197Y-100904684D01*
X64169858Y-100901174D01*
X64193750Y-100900000D01*
X64681250Y-100900000D01*
X64705142Y-100901174D01*
X64705142Y-100901174D01*
G37*
D11*
X64437500Y-101600000D03*
D10*
G36*
X62830142Y-100901174D02*
X62853803Y-100904684D01*
X62877007Y-100910496D01*
X62899529Y-100918554D01*
X62921153Y-100928782D01*
X62941670Y-100941079D01*
X62960883Y-100955329D01*
X62978607Y-100971393D01*
X62994671Y-100989117D01*
X63008921Y-101008330D01*
X63021218Y-101028847D01*
X63031446Y-101050471D01*
X63039504Y-101072993D01*
X63045316Y-101096197D01*
X63048826Y-101119858D01*
X63050000Y-101143750D01*
X63050000Y-102056250D01*
X63048826Y-102080142D01*
X63045316Y-102103803D01*
X63039504Y-102127007D01*
X63031446Y-102149529D01*
X63021218Y-102171153D01*
X63008921Y-102191670D01*
X62994671Y-102210883D01*
X62978607Y-102228607D01*
X62960883Y-102244671D01*
X62941670Y-102258921D01*
X62921153Y-102271218D01*
X62899529Y-102281446D01*
X62877007Y-102289504D01*
X62853803Y-102295316D01*
X62830142Y-102298826D01*
X62806250Y-102300000D01*
X62318750Y-102300000D01*
X62294858Y-102298826D01*
X62271197Y-102295316D01*
X62247993Y-102289504D01*
X62225471Y-102281446D01*
X62203847Y-102271218D01*
X62183330Y-102258921D01*
X62164117Y-102244671D01*
X62146393Y-102228607D01*
X62130329Y-102210883D01*
X62116079Y-102191670D01*
X62103782Y-102171153D01*
X62093554Y-102149529D01*
X62085496Y-102127007D01*
X62079684Y-102103803D01*
X62076174Y-102080142D01*
X62075000Y-102056250D01*
X62075000Y-101143750D01*
X62076174Y-101119858D01*
X62079684Y-101096197D01*
X62085496Y-101072993D01*
X62093554Y-101050471D01*
X62103782Y-101028847D01*
X62116079Y-101008330D01*
X62130329Y-100989117D01*
X62146393Y-100971393D01*
X62164117Y-100955329D01*
X62183330Y-100941079D01*
X62203847Y-100928782D01*
X62225471Y-100918554D01*
X62247993Y-100910496D01*
X62271197Y-100904684D01*
X62294858Y-100901174D01*
X62318750Y-100900000D01*
X62806250Y-100900000D01*
X62830142Y-100901174D01*
X62830142Y-100901174D01*
G37*
D11*
X62562500Y-101600000D03*
G04 #@! TD*
D10*
G04 #@! TO.C,U1Batt1*
G36*
X111154406Y-101631445D02*
X111183528Y-101635764D01*
X111212086Y-101642918D01*
X111239806Y-101652836D01*
X111266420Y-101665424D01*
X111291672Y-101680559D01*
X111315318Y-101698097D01*
X111337132Y-101717868D01*
X111356903Y-101739682D01*
X111374441Y-101763328D01*
X111389576Y-101788580D01*
X111402164Y-101815194D01*
X111412082Y-101842914D01*
X111419236Y-101871472D01*
X111423555Y-101900594D01*
X111425000Y-101929999D01*
X111425000Y-103530001D01*
X111423555Y-103559406D01*
X111419236Y-103588528D01*
X111412082Y-103617086D01*
X111402164Y-103644806D01*
X111389576Y-103671420D01*
X111374441Y-103696672D01*
X111356903Y-103720318D01*
X111337132Y-103742132D01*
X111315318Y-103761903D01*
X111291672Y-103779441D01*
X111266420Y-103794576D01*
X111239806Y-103807164D01*
X111212086Y-103817082D01*
X111183528Y-103824236D01*
X111154406Y-103828555D01*
X111125001Y-103830000D01*
X111124999Y-103830000D01*
X111095594Y-103828555D01*
X111066472Y-103824236D01*
X111037914Y-103817082D01*
X111010194Y-103807164D01*
X110983580Y-103794576D01*
X110958328Y-103779441D01*
X110934682Y-103761903D01*
X110912868Y-103742132D01*
X110893097Y-103720318D01*
X110875559Y-103696672D01*
X110860424Y-103671420D01*
X110847836Y-103644806D01*
X110837918Y-103617086D01*
X110830764Y-103588528D01*
X110826445Y-103559406D01*
X110825000Y-103530001D01*
X110825000Y-101929999D01*
X110826445Y-101900594D01*
X110830764Y-101871472D01*
X110837918Y-101842914D01*
X110847836Y-101815194D01*
X110860424Y-101788580D01*
X110875559Y-101763328D01*
X110893097Y-101739682D01*
X110912868Y-101717868D01*
X110934682Y-101698097D01*
X110958328Y-101680559D01*
X110983580Y-101665424D01*
X111010194Y-101652836D01*
X111037914Y-101642918D01*
X111066472Y-101635764D01*
X111095594Y-101631445D01*
X111124999Y-101630000D01*
X111125001Y-101630000D01*
X111154406Y-101631445D01*
X111154406Y-101631445D01*
G37*
D14*
X111125000Y-102730000D03*
D10*
G36*
X109884406Y-101631445D02*
X109913528Y-101635764D01*
X109942086Y-101642918D01*
X109969806Y-101652836D01*
X109996420Y-101665424D01*
X110021672Y-101680559D01*
X110045318Y-101698097D01*
X110067132Y-101717868D01*
X110086903Y-101739682D01*
X110104441Y-101763328D01*
X110119576Y-101788580D01*
X110132164Y-101815194D01*
X110142082Y-101842914D01*
X110149236Y-101871472D01*
X110153555Y-101900594D01*
X110155000Y-101929999D01*
X110155000Y-103530001D01*
X110153555Y-103559406D01*
X110149236Y-103588528D01*
X110142082Y-103617086D01*
X110132164Y-103644806D01*
X110119576Y-103671420D01*
X110104441Y-103696672D01*
X110086903Y-103720318D01*
X110067132Y-103742132D01*
X110045318Y-103761903D01*
X110021672Y-103779441D01*
X109996420Y-103794576D01*
X109969806Y-103807164D01*
X109942086Y-103817082D01*
X109913528Y-103824236D01*
X109884406Y-103828555D01*
X109855001Y-103830000D01*
X109854999Y-103830000D01*
X109825594Y-103828555D01*
X109796472Y-103824236D01*
X109767914Y-103817082D01*
X109740194Y-103807164D01*
X109713580Y-103794576D01*
X109688328Y-103779441D01*
X109664682Y-103761903D01*
X109642868Y-103742132D01*
X109623097Y-103720318D01*
X109605559Y-103696672D01*
X109590424Y-103671420D01*
X109577836Y-103644806D01*
X109567918Y-103617086D01*
X109560764Y-103588528D01*
X109556445Y-103559406D01*
X109555000Y-103530001D01*
X109555000Y-101929999D01*
X109556445Y-101900594D01*
X109560764Y-101871472D01*
X109567918Y-101842914D01*
X109577836Y-101815194D01*
X109590424Y-101788580D01*
X109605559Y-101763328D01*
X109623097Y-101739682D01*
X109642868Y-101717868D01*
X109664682Y-101698097D01*
X109688328Y-101680559D01*
X109713580Y-101665424D01*
X109740194Y-101652836D01*
X109767914Y-101642918D01*
X109796472Y-101635764D01*
X109825594Y-101631445D01*
X109854999Y-101630000D01*
X109855001Y-101630000D01*
X109884406Y-101631445D01*
X109884406Y-101631445D01*
G37*
D14*
X109855000Y-102730000D03*
D10*
G36*
X108614406Y-101631445D02*
X108643528Y-101635764D01*
X108672086Y-101642918D01*
X108699806Y-101652836D01*
X108726420Y-101665424D01*
X108751672Y-101680559D01*
X108775318Y-101698097D01*
X108797132Y-101717868D01*
X108816903Y-101739682D01*
X108834441Y-101763328D01*
X108849576Y-101788580D01*
X108862164Y-101815194D01*
X108872082Y-101842914D01*
X108879236Y-101871472D01*
X108883555Y-101900594D01*
X108885000Y-101929999D01*
X108885000Y-103530001D01*
X108883555Y-103559406D01*
X108879236Y-103588528D01*
X108872082Y-103617086D01*
X108862164Y-103644806D01*
X108849576Y-103671420D01*
X108834441Y-103696672D01*
X108816903Y-103720318D01*
X108797132Y-103742132D01*
X108775318Y-103761903D01*
X108751672Y-103779441D01*
X108726420Y-103794576D01*
X108699806Y-103807164D01*
X108672086Y-103817082D01*
X108643528Y-103824236D01*
X108614406Y-103828555D01*
X108585001Y-103830000D01*
X108584999Y-103830000D01*
X108555594Y-103828555D01*
X108526472Y-103824236D01*
X108497914Y-103817082D01*
X108470194Y-103807164D01*
X108443580Y-103794576D01*
X108418328Y-103779441D01*
X108394682Y-103761903D01*
X108372868Y-103742132D01*
X108353097Y-103720318D01*
X108335559Y-103696672D01*
X108320424Y-103671420D01*
X108307836Y-103644806D01*
X108297918Y-103617086D01*
X108290764Y-103588528D01*
X108286445Y-103559406D01*
X108285000Y-103530001D01*
X108285000Y-101929999D01*
X108286445Y-101900594D01*
X108290764Y-101871472D01*
X108297918Y-101842914D01*
X108307836Y-101815194D01*
X108320424Y-101788580D01*
X108335559Y-101763328D01*
X108353097Y-101739682D01*
X108372868Y-101717868D01*
X108394682Y-101698097D01*
X108418328Y-101680559D01*
X108443580Y-101665424D01*
X108470194Y-101652836D01*
X108497914Y-101642918D01*
X108526472Y-101635764D01*
X108555594Y-101631445D01*
X108584999Y-101630000D01*
X108585001Y-101630000D01*
X108614406Y-101631445D01*
X108614406Y-101631445D01*
G37*
D14*
X108585000Y-102730000D03*
D10*
G36*
X107344406Y-101631445D02*
X107373528Y-101635764D01*
X107402086Y-101642918D01*
X107429806Y-101652836D01*
X107456420Y-101665424D01*
X107481672Y-101680559D01*
X107505318Y-101698097D01*
X107527132Y-101717868D01*
X107546903Y-101739682D01*
X107564441Y-101763328D01*
X107579576Y-101788580D01*
X107592164Y-101815194D01*
X107602082Y-101842914D01*
X107609236Y-101871472D01*
X107613555Y-101900594D01*
X107615000Y-101929999D01*
X107615000Y-103530001D01*
X107613555Y-103559406D01*
X107609236Y-103588528D01*
X107602082Y-103617086D01*
X107592164Y-103644806D01*
X107579576Y-103671420D01*
X107564441Y-103696672D01*
X107546903Y-103720318D01*
X107527132Y-103742132D01*
X107505318Y-103761903D01*
X107481672Y-103779441D01*
X107456420Y-103794576D01*
X107429806Y-103807164D01*
X107402086Y-103817082D01*
X107373528Y-103824236D01*
X107344406Y-103828555D01*
X107315001Y-103830000D01*
X107314999Y-103830000D01*
X107285594Y-103828555D01*
X107256472Y-103824236D01*
X107227914Y-103817082D01*
X107200194Y-103807164D01*
X107173580Y-103794576D01*
X107148328Y-103779441D01*
X107124682Y-103761903D01*
X107102868Y-103742132D01*
X107083097Y-103720318D01*
X107065559Y-103696672D01*
X107050424Y-103671420D01*
X107037836Y-103644806D01*
X107027918Y-103617086D01*
X107020764Y-103588528D01*
X107016445Y-103559406D01*
X107015000Y-103530001D01*
X107015000Y-101929999D01*
X107016445Y-101900594D01*
X107020764Y-101871472D01*
X107027918Y-101842914D01*
X107037836Y-101815194D01*
X107050424Y-101788580D01*
X107065559Y-101763328D01*
X107083097Y-101739682D01*
X107102868Y-101717868D01*
X107124682Y-101698097D01*
X107148328Y-101680559D01*
X107173580Y-101665424D01*
X107200194Y-101652836D01*
X107227914Y-101642918D01*
X107256472Y-101635764D01*
X107285594Y-101631445D01*
X107314999Y-101630000D01*
X107315001Y-101630000D01*
X107344406Y-101631445D01*
X107344406Y-101631445D01*
G37*
D14*
X107315000Y-102730000D03*
D10*
G36*
X106074406Y-101631445D02*
X106103528Y-101635764D01*
X106132086Y-101642918D01*
X106159806Y-101652836D01*
X106186420Y-101665424D01*
X106211672Y-101680559D01*
X106235318Y-101698097D01*
X106257132Y-101717868D01*
X106276903Y-101739682D01*
X106294441Y-101763328D01*
X106309576Y-101788580D01*
X106322164Y-101815194D01*
X106332082Y-101842914D01*
X106339236Y-101871472D01*
X106343555Y-101900594D01*
X106345000Y-101929999D01*
X106345000Y-103530001D01*
X106343555Y-103559406D01*
X106339236Y-103588528D01*
X106332082Y-103617086D01*
X106322164Y-103644806D01*
X106309576Y-103671420D01*
X106294441Y-103696672D01*
X106276903Y-103720318D01*
X106257132Y-103742132D01*
X106235318Y-103761903D01*
X106211672Y-103779441D01*
X106186420Y-103794576D01*
X106159806Y-103807164D01*
X106132086Y-103817082D01*
X106103528Y-103824236D01*
X106074406Y-103828555D01*
X106045001Y-103830000D01*
X106044999Y-103830000D01*
X106015594Y-103828555D01*
X105986472Y-103824236D01*
X105957914Y-103817082D01*
X105930194Y-103807164D01*
X105903580Y-103794576D01*
X105878328Y-103779441D01*
X105854682Y-103761903D01*
X105832868Y-103742132D01*
X105813097Y-103720318D01*
X105795559Y-103696672D01*
X105780424Y-103671420D01*
X105767836Y-103644806D01*
X105757918Y-103617086D01*
X105750764Y-103588528D01*
X105746445Y-103559406D01*
X105745000Y-103530001D01*
X105745000Y-101929999D01*
X105746445Y-101900594D01*
X105750764Y-101871472D01*
X105757918Y-101842914D01*
X105767836Y-101815194D01*
X105780424Y-101788580D01*
X105795559Y-101763328D01*
X105813097Y-101739682D01*
X105832868Y-101717868D01*
X105854682Y-101698097D01*
X105878328Y-101680559D01*
X105903580Y-101665424D01*
X105930194Y-101652836D01*
X105957914Y-101642918D01*
X105986472Y-101635764D01*
X106015594Y-101631445D01*
X106044999Y-101630000D01*
X106045001Y-101630000D01*
X106074406Y-101631445D01*
X106074406Y-101631445D01*
G37*
D14*
X106045000Y-102730000D03*
D10*
G36*
X104804406Y-101631445D02*
X104833528Y-101635764D01*
X104862086Y-101642918D01*
X104889806Y-101652836D01*
X104916420Y-101665424D01*
X104941672Y-101680559D01*
X104965318Y-101698097D01*
X104987132Y-101717868D01*
X105006903Y-101739682D01*
X105024441Y-101763328D01*
X105039576Y-101788580D01*
X105052164Y-101815194D01*
X105062082Y-101842914D01*
X105069236Y-101871472D01*
X105073555Y-101900594D01*
X105075000Y-101929999D01*
X105075000Y-103530001D01*
X105073555Y-103559406D01*
X105069236Y-103588528D01*
X105062082Y-103617086D01*
X105052164Y-103644806D01*
X105039576Y-103671420D01*
X105024441Y-103696672D01*
X105006903Y-103720318D01*
X104987132Y-103742132D01*
X104965318Y-103761903D01*
X104941672Y-103779441D01*
X104916420Y-103794576D01*
X104889806Y-103807164D01*
X104862086Y-103817082D01*
X104833528Y-103824236D01*
X104804406Y-103828555D01*
X104775001Y-103830000D01*
X104774999Y-103830000D01*
X104745594Y-103828555D01*
X104716472Y-103824236D01*
X104687914Y-103817082D01*
X104660194Y-103807164D01*
X104633580Y-103794576D01*
X104608328Y-103779441D01*
X104584682Y-103761903D01*
X104562868Y-103742132D01*
X104543097Y-103720318D01*
X104525559Y-103696672D01*
X104510424Y-103671420D01*
X104497836Y-103644806D01*
X104487918Y-103617086D01*
X104480764Y-103588528D01*
X104476445Y-103559406D01*
X104475000Y-103530001D01*
X104475000Y-101929999D01*
X104476445Y-101900594D01*
X104480764Y-101871472D01*
X104487918Y-101842914D01*
X104497836Y-101815194D01*
X104510424Y-101788580D01*
X104525559Y-101763328D01*
X104543097Y-101739682D01*
X104562868Y-101717868D01*
X104584682Y-101698097D01*
X104608328Y-101680559D01*
X104633580Y-101665424D01*
X104660194Y-101652836D01*
X104687914Y-101642918D01*
X104716472Y-101635764D01*
X104745594Y-101631445D01*
X104774999Y-101630000D01*
X104775001Y-101630000D01*
X104804406Y-101631445D01*
X104804406Y-101631445D01*
G37*
D14*
X104775000Y-102730000D03*
D10*
G36*
X103534406Y-101631445D02*
X103563528Y-101635764D01*
X103592086Y-101642918D01*
X103619806Y-101652836D01*
X103646420Y-101665424D01*
X103671672Y-101680559D01*
X103695318Y-101698097D01*
X103717132Y-101717868D01*
X103736903Y-101739682D01*
X103754441Y-101763328D01*
X103769576Y-101788580D01*
X103782164Y-101815194D01*
X103792082Y-101842914D01*
X103799236Y-101871472D01*
X103803555Y-101900594D01*
X103805000Y-101929999D01*
X103805000Y-103530001D01*
X103803555Y-103559406D01*
X103799236Y-103588528D01*
X103792082Y-103617086D01*
X103782164Y-103644806D01*
X103769576Y-103671420D01*
X103754441Y-103696672D01*
X103736903Y-103720318D01*
X103717132Y-103742132D01*
X103695318Y-103761903D01*
X103671672Y-103779441D01*
X103646420Y-103794576D01*
X103619806Y-103807164D01*
X103592086Y-103817082D01*
X103563528Y-103824236D01*
X103534406Y-103828555D01*
X103505001Y-103830000D01*
X103504999Y-103830000D01*
X103475594Y-103828555D01*
X103446472Y-103824236D01*
X103417914Y-103817082D01*
X103390194Y-103807164D01*
X103363580Y-103794576D01*
X103338328Y-103779441D01*
X103314682Y-103761903D01*
X103292868Y-103742132D01*
X103273097Y-103720318D01*
X103255559Y-103696672D01*
X103240424Y-103671420D01*
X103227836Y-103644806D01*
X103217918Y-103617086D01*
X103210764Y-103588528D01*
X103206445Y-103559406D01*
X103205000Y-103530001D01*
X103205000Y-101929999D01*
X103206445Y-101900594D01*
X103210764Y-101871472D01*
X103217918Y-101842914D01*
X103227836Y-101815194D01*
X103240424Y-101788580D01*
X103255559Y-101763328D01*
X103273097Y-101739682D01*
X103292868Y-101717868D01*
X103314682Y-101698097D01*
X103338328Y-101680559D01*
X103363580Y-101665424D01*
X103390194Y-101652836D01*
X103417914Y-101642918D01*
X103446472Y-101635764D01*
X103475594Y-101631445D01*
X103504999Y-101630000D01*
X103505001Y-101630000D01*
X103534406Y-101631445D01*
X103534406Y-101631445D01*
G37*
D14*
X103505000Y-102730000D03*
D10*
G36*
X102264406Y-101631445D02*
X102293528Y-101635764D01*
X102322086Y-101642918D01*
X102349806Y-101652836D01*
X102376420Y-101665424D01*
X102401672Y-101680559D01*
X102425318Y-101698097D01*
X102447132Y-101717868D01*
X102466903Y-101739682D01*
X102484441Y-101763328D01*
X102499576Y-101788580D01*
X102512164Y-101815194D01*
X102522082Y-101842914D01*
X102529236Y-101871472D01*
X102533555Y-101900594D01*
X102535000Y-101929999D01*
X102535000Y-103530001D01*
X102533555Y-103559406D01*
X102529236Y-103588528D01*
X102522082Y-103617086D01*
X102512164Y-103644806D01*
X102499576Y-103671420D01*
X102484441Y-103696672D01*
X102466903Y-103720318D01*
X102447132Y-103742132D01*
X102425318Y-103761903D01*
X102401672Y-103779441D01*
X102376420Y-103794576D01*
X102349806Y-103807164D01*
X102322086Y-103817082D01*
X102293528Y-103824236D01*
X102264406Y-103828555D01*
X102235001Y-103830000D01*
X102234999Y-103830000D01*
X102205594Y-103828555D01*
X102176472Y-103824236D01*
X102147914Y-103817082D01*
X102120194Y-103807164D01*
X102093580Y-103794576D01*
X102068328Y-103779441D01*
X102044682Y-103761903D01*
X102022868Y-103742132D01*
X102003097Y-103720318D01*
X101985559Y-103696672D01*
X101970424Y-103671420D01*
X101957836Y-103644806D01*
X101947918Y-103617086D01*
X101940764Y-103588528D01*
X101936445Y-103559406D01*
X101935000Y-103530001D01*
X101935000Y-101929999D01*
X101936445Y-101900594D01*
X101940764Y-101871472D01*
X101947918Y-101842914D01*
X101957836Y-101815194D01*
X101970424Y-101788580D01*
X101985559Y-101763328D01*
X102003097Y-101739682D01*
X102022868Y-101717868D01*
X102044682Y-101698097D01*
X102068328Y-101680559D01*
X102093580Y-101665424D01*
X102120194Y-101652836D01*
X102147914Y-101642918D01*
X102176472Y-101635764D01*
X102205594Y-101631445D01*
X102234999Y-101630000D01*
X102235001Y-101630000D01*
X102264406Y-101631445D01*
X102264406Y-101631445D01*
G37*
D14*
X102235000Y-102730000D03*
D10*
G36*
X111154406Y-96831445D02*
X111183528Y-96835764D01*
X111212086Y-96842918D01*
X111239806Y-96852836D01*
X111266420Y-96865424D01*
X111291672Y-96880559D01*
X111315318Y-96898097D01*
X111337132Y-96917868D01*
X111356903Y-96939682D01*
X111374441Y-96963328D01*
X111389576Y-96988580D01*
X111402164Y-97015194D01*
X111412082Y-97042914D01*
X111419236Y-97071472D01*
X111423555Y-97100594D01*
X111425000Y-97129999D01*
X111425000Y-98730001D01*
X111423555Y-98759406D01*
X111419236Y-98788528D01*
X111412082Y-98817086D01*
X111402164Y-98844806D01*
X111389576Y-98871420D01*
X111374441Y-98896672D01*
X111356903Y-98920318D01*
X111337132Y-98942132D01*
X111315318Y-98961903D01*
X111291672Y-98979441D01*
X111266420Y-98994576D01*
X111239806Y-99007164D01*
X111212086Y-99017082D01*
X111183528Y-99024236D01*
X111154406Y-99028555D01*
X111125001Y-99030000D01*
X111124999Y-99030000D01*
X111095594Y-99028555D01*
X111066472Y-99024236D01*
X111037914Y-99017082D01*
X111010194Y-99007164D01*
X110983580Y-98994576D01*
X110958328Y-98979441D01*
X110934682Y-98961903D01*
X110912868Y-98942132D01*
X110893097Y-98920318D01*
X110875559Y-98896672D01*
X110860424Y-98871420D01*
X110847836Y-98844806D01*
X110837918Y-98817086D01*
X110830764Y-98788528D01*
X110826445Y-98759406D01*
X110825000Y-98730001D01*
X110825000Y-97129999D01*
X110826445Y-97100594D01*
X110830764Y-97071472D01*
X110837918Y-97042914D01*
X110847836Y-97015194D01*
X110860424Y-96988580D01*
X110875559Y-96963328D01*
X110893097Y-96939682D01*
X110912868Y-96917868D01*
X110934682Y-96898097D01*
X110958328Y-96880559D01*
X110983580Y-96865424D01*
X111010194Y-96852836D01*
X111037914Y-96842918D01*
X111066472Y-96835764D01*
X111095594Y-96831445D01*
X111124999Y-96830000D01*
X111125001Y-96830000D01*
X111154406Y-96831445D01*
X111154406Y-96831445D01*
G37*
D14*
X111125000Y-97930000D03*
D10*
G36*
X109884406Y-96831445D02*
X109913528Y-96835764D01*
X109942086Y-96842918D01*
X109969806Y-96852836D01*
X109996420Y-96865424D01*
X110021672Y-96880559D01*
X110045318Y-96898097D01*
X110067132Y-96917868D01*
X110086903Y-96939682D01*
X110104441Y-96963328D01*
X110119576Y-96988580D01*
X110132164Y-97015194D01*
X110142082Y-97042914D01*
X110149236Y-97071472D01*
X110153555Y-97100594D01*
X110155000Y-97129999D01*
X110155000Y-98730001D01*
X110153555Y-98759406D01*
X110149236Y-98788528D01*
X110142082Y-98817086D01*
X110132164Y-98844806D01*
X110119576Y-98871420D01*
X110104441Y-98896672D01*
X110086903Y-98920318D01*
X110067132Y-98942132D01*
X110045318Y-98961903D01*
X110021672Y-98979441D01*
X109996420Y-98994576D01*
X109969806Y-99007164D01*
X109942086Y-99017082D01*
X109913528Y-99024236D01*
X109884406Y-99028555D01*
X109855001Y-99030000D01*
X109854999Y-99030000D01*
X109825594Y-99028555D01*
X109796472Y-99024236D01*
X109767914Y-99017082D01*
X109740194Y-99007164D01*
X109713580Y-98994576D01*
X109688328Y-98979441D01*
X109664682Y-98961903D01*
X109642868Y-98942132D01*
X109623097Y-98920318D01*
X109605559Y-98896672D01*
X109590424Y-98871420D01*
X109577836Y-98844806D01*
X109567918Y-98817086D01*
X109560764Y-98788528D01*
X109556445Y-98759406D01*
X109555000Y-98730001D01*
X109555000Y-97129999D01*
X109556445Y-97100594D01*
X109560764Y-97071472D01*
X109567918Y-97042914D01*
X109577836Y-97015194D01*
X109590424Y-96988580D01*
X109605559Y-96963328D01*
X109623097Y-96939682D01*
X109642868Y-96917868D01*
X109664682Y-96898097D01*
X109688328Y-96880559D01*
X109713580Y-96865424D01*
X109740194Y-96852836D01*
X109767914Y-96842918D01*
X109796472Y-96835764D01*
X109825594Y-96831445D01*
X109854999Y-96830000D01*
X109855001Y-96830000D01*
X109884406Y-96831445D01*
X109884406Y-96831445D01*
G37*
D14*
X109855000Y-97930000D03*
D10*
G36*
X108614406Y-96831445D02*
X108643528Y-96835764D01*
X108672086Y-96842918D01*
X108699806Y-96852836D01*
X108726420Y-96865424D01*
X108751672Y-96880559D01*
X108775318Y-96898097D01*
X108797132Y-96917868D01*
X108816903Y-96939682D01*
X108834441Y-96963328D01*
X108849576Y-96988580D01*
X108862164Y-97015194D01*
X108872082Y-97042914D01*
X108879236Y-97071472D01*
X108883555Y-97100594D01*
X108885000Y-97129999D01*
X108885000Y-98730001D01*
X108883555Y-98759406D01*
X108879236Y-98788528D01*
X108872082Y-98817086D01*
X108862164Y-98844806D01*
X108849576Y-98871420D01*
X108834441Y-98896672D01*
X108816903Y-98920318D01*
X108797132Y-98942132D01*
X108775318Y-98961903D01*
X108751672Y-98979441D01*
X108726420Y-98994576D01*
X108699806Y-99007164D01*
X108672086Y-99017082D01*
X108643528Y-99024236D01*
X108614406Y-99028555D01*
X108585001Y-99030000D01*
X108584999Y-99030000D01*
X108555594Y-99028555D01*
X108526472Y-99024236D01*
X108497914Y-99017082D01*
X108470194Y-99007164D01*
X108443580Y-98994576D01*
X108418328Y-98979441D01*
X108394682Y-98961903D01*
X108372868Y-98942132D01*
X108353097Y-98920318D01*
X108335559Y-98896672D01*
X108320424Y-98871420D01*
X108307836Y-98844806D01*
X108297918Y-98817086D01*
X108290764Y-98788528D01*
X108286445Y-98759406D01*
X108285000Y-98730001D01*
X108285000Y-97129999D01*
X108286445Y-97100594D01*
X108290764Y-97071472D01*
X108297918Y-97042914D01*
X108307836Y-97015194D01*
X108320424Y-96988580D01*
X108335559Y-96963328D01*
X108353097Y-96939682D01*
X108372868Y-96917868D01*
X108394682Y-96898097D01*
X108418328Y-96880559D01*
X108443580Y-96865424D01*
X108470194Y-96852836D01*
X108497914Y-96842918D01*
X108526472Y-96835764D01*
X108555594Y-96831445D01*
X108584999Y-96830000D01*
X108585001Y-96830000D01*
X108614406Y-96831445D01*
X108614406Y-96831445D01*
G37*
D14*
X108585000Y-97930000D03*
D10*
G36*
X107344406Y-96831445D02*
X107373528Y-96835764D01*
X107402086Y-96842918D01*
X107429806Y-96852836D01*
X107456420Y-96865424D01*
X107481672Y-96880559D01*
X107505318Y-96898097D01*
X107527132Y-96917868D01*
X107546903Y-96939682D01*
X107564441Y-96963328D01*
X107579576Y-96988580D01*
X107592164Y-97015194D01*
X107602082Y-97042914D01*
X107609236Y-97071472D01*
X107613555Y-97100594D01*
X107615000Y-97129999D01*
X107615000Y-98730001D01*
X107613555Y-98759406D01*
X107609236Y-98788528D01*
X107602082Y-98817086D01*
X107592164Y-98844806D01*
X107579576Y-98871420D01*
X107564441Y-98896672D01*
X107546903Y-98920318D01*
X107527132Y-98942132D01*
X107505318Y-98961903D01*
X107481672Y-98979441D01*
X107456420Y-98994576D01*
X107429806Y-99007164D01*
X107402086Y-99017082D01*
X107373528Y-99024236D01*
X107344406Y-99028555D01*
X107315001Y-99030000D01*
X107314999Y-99030000D01*
X107285594Y-99028555D01*
X107256472Y-99024236D01*
X107227914Y-99017082D01*
X107200194Y-99007164D01*
X107173580Y-98994576D01*
X107148328Y-98979441D01*
X107124682Y-98961903D01*
X107102868Y-98942132D01*
X107083097Y-98920318D01*
X107065559Y-98896672D01*
X107050424Y-98871420D01*
X107037836Y-98844806D01*
X107027918Y-98817086D01*
X107020764Y-98788528D01*
X107016445Y-98759406D01*
X107015000Y-98730001D01*
X107015000Y-97129999D01*
X107016445Y-97100594D01*
X107020764Y-97071472D01*
X107027918Y-97042914D01*
X107037836Y-97015194D01*
X107050424Y-96988580D01*
X107065559Y-96963328D01*
X107083097Y-96939682D01*
X107102868Y-96917868D01*
X107124682Y-96898097D01*
X107148328Y-96880559D01*
X107173580Y-96865424D01*
X107200194Y-96852836D01*
X107227914Y-96842918D01*
X107256472Y-96835764D01*
X107285594Y-96831445D01*
X107314999Y-96830000D01*
X107315001Y-96830000D01*
X107344406Y-96831445D01*
X107344406Y-96831445D01*
G37*
D14*
X107315000Y-97930000D03*
D10*
G36*
X106074406Y-96831445D02*
X106103528Y-96835764D01*
X106132086Y-96842918D01*
X106159806Y-96852836D01*
X106186420Y-96865424D01*
X106211672Y-96880559D01*
X106235318Y-96898097D01*
X106257132Y-96917868D01*
X106276903Y-96939682D01*
X106294441Y-96963328D01*
X106309576Y-96988580D01*
X106322164Y-97015194D01*
X106332082Y-97042914D01*
X106339236Y-97071472D01*
X106343555Y-97100594D01*
X106345000Y-97129999D01*
X106345000Y-98730001D01*
X106343555Y-98759406D01*
X106339236Y-98788528D01*
X106332082Y-98817086D01*
X106322164Y-98844806D01*
X106309576Y-98871420D01*
X106294441Y-98896672D01*
X106276903Y-98920318D01*
X106257132Y-98942132D01*
X106235318Y-98961903D01*
X106211672Y-98979441D01*
X106186420Y-98994576D01*
X106159806Y-99007164D01*
X106132086Y-99017082D01*
X106103528Y-99024236D01*
X106074406Y-99028555D01*
X106045001Y-99030000D01*
X106044999Y-99030000D01*
X106015594Y-99028555D01*
X105986472Y-99024236D01*
X105957914Y-99017082D01*
X105930194Y-99007164D01*
X105903580Y-98994576D01*
X105878328Y-98979441D01*
X105854682Y-98961903D01*
X105832868Y-98942132D01*
X105813097Y-98920318D01*
X105795559Y-98896672D01*
X105780424Y-98871420D01*
X105767836Y-98844806D01*
X105757918Y-98817086D01*
X105750764Y-98788528D01*
X105746445Y-98759406D01*
X105745000Y-98730001D01*
X105745000Y-97129999D01*
X105746445Y-97100594D01*
X105750764Y-97071472D01*
X105757918Y-97042914D01*
X105767836Y-97015194D01*
X105780424Y-96988580D01*
X105795559Y-96963328D01*
X105813097Y-96939682D01*
X105832868Y-96917868D01*
X105854682Y-96898097D01*
X105878328Y-96880559D01*
X105903580Y-96865424D01*
X105930194Y-96852836D01*
X105957914Y-96842918D01*
X105986472Y-96835764D01*
X106015594Y-96831445D01*
X106044999Y-96830000D01*
X106045001Y-96830000D01*
X106074406Y-96831445D01*
X106074406Y-96831445D01*
G37*
D14*
X106045000Y-97930000D03*
D10*
G36*
X104804406Y-96831445D02*
X104833528Y-96835764D01*
X104862086Y-96842918D01*
X104889806Y-96852836D01*
X104916420Y-96865424D01*
X104941672Y-96880559D01*
X104965318Y-96898097D01*
X104987132Y-96917868D01*
X105006903Y-96939682D01*
X105024441Y-96963328D01*
X105039576Y-96988580D01*
X105052164Y-97015194D01*
X105062082Y-97042914D01*
X105069236Y-97071472D01*
X105073555Y-97100594D01*
X105075000Y-97129999D01*
X105075000Y-98730001D01*
X105073555Y-98759406D01*
X105069236Y-98788528D01*
X105062082Y-98817086D01*
X105052164Y-98844806D01*
X105039576Y-98871420D01*
X105024441Y-98896672D01*
X105006903Y-98920318D01*
X104987132Y-98942132D01*
X104965318Y-98961903D01*
X104941672Y-98979441D01*
X104916420Y-98994576D01*
X104889806Y-99007164D01*
X104862086Y-99017082D01*
X104833528Y-99024236D01*
X104804406Y-99028555D01*
X104775001Y-99030000D01*
X104774999Y-99030000D01*
X104745594Y-99028555D01*
X104716472Y-99024236D01*
X104687914Y-99017082D01*
X104660194Y-99007164D01*
X104633580Y-98994576D01*
X104608328Y-98979441D01*
X104584682Y-98961903D01*
X104562868Y-98942132D01*
X104543097Y-98920318D01*
X104525559Y-98896672D01*
X104510424Y-98871420D01*
X104497836Y-98844806D01*
X104487918Y-98817086D01*
X104480764Y-98788528D01*
X104476445Y-98759406D01*
X104475000Y-98730001D01*
X104475000Y-97129999D01*
X104476445Y-97100594D01*
X104480764Y-97071472D01*
X104487918Y-97042914D01*
X104497836Y-97015194D01*
X104510424Y-96988580D01*
X104525559Y-96963328D01*
X104543097Y-96939682D01*
X104562868Y-96917868D01*
X104584682Y-96898097D01*
X104608328Y-96880559D01*
X104633580Y-96865424D01*
X104660194Y-96852836D01*
X104687914Y-96842918D01*
X104716472Y-96835764D01*
X104745594Y-96831445D01*
X104774999Y-96830000D01*
X104775001Y-96830000D01*
X104804406Y-96831445D01*
X104804406Y-96831445D01*
G37*
D14*
X104775000Y-97930000D03*
D10*
G36*
X103534406Y-96831445D02*
X103563528Y-96835764D01*
X103592086Y-96842918D01*
X103619806Y-96852836D01*
X103646420Y-96865424D01*
X103671672Y-96880559D01*
X103695318Y-96898097D01*
X103717132Y-96917868D01*
X103736903Y-96939682D01*
X103754441Y-96963328D01*
X103769576Y-96988580D01*
X103782164Y-97015194D01*
X103792082Y-97042914D01*
X103799236Y-97071472D01*
X103803555Y-97100594D01*
X103805000Y-97129999D01*
X103805000Y-98730001D01*
X103803555Y-98759406D01*
X103799236Y-98788528D01*
X103792082Y-98817086D01*
X103782164Y-98844806D01*
X103769576Y-98871420D01*
X103754441Y-98896672D01*
X103736903Y-98920318D01*
X103717132Y-98942132D01*
X103695318Y-98961903D01*
X103671672Y-98979441D01*
X103646420Y-98994576D01*
X103619806Y-99007164D01*
X103592086Y-99017082D01*
X103563528Y-99024236D01*
X103534406Y-99028555D01*
X103505001Y-99030000D01*
X103504999Y-99030000D01*
X103475594Y-99028555D01*
X103446472Y-99024236D01*
X103417914Y-99017082D01*
X103390194Y-99007164D01*
X103363580Y-98994576D01*
X103338328Y-98979441D01*
X103314682Y-98961903D01*
X103292868Y-98942132D01*
X103273097Y-98920318D01*
X103255559Y-98896672D01*
X103240424Y-98871420D01*
X103227836Y-98844806D01*
X103217918Y-98817086D01*
X103210764Y-98788528D01*
X103206445Y-98759406D01*
X103205000Y-98730001D01*
X103205000Y-97129999D01*
X103206445Y-97100594D01*
X103210764Y-97071472D01*
X103217918Y-97042914D01*
X103227836Y-97015194D01*
X103240424Y-96988580D01*
X103255559Y-96963328D01*
X103273097Y-96939682D01*
X103292868Y-96917868D01*
X103314682Y-96898097D01*
X103338328Y-96880559D01*
X103363580Y-96865424D01*
X103390194Y-96852836D01*
X103417914Y-96842918D01*
X103446472Y-96835764D01*
X103475594Y-96831445D01*
X103504999Y-96830000D01*
X103505001Y-96830000D01*
X103534406Y-96831445D01*
X103534406Y-96831445D01*
G37*
D14*
X103505000Y-97930000D03*
D10*
G36*
X102264406Y-96831445D02*
X102293528Y-96835764D01*
X102322086Y-96842918D01*
X102349806Y-96852836D01*
X102376420Y-96865424D01*
X102401672Y-96880559D01*
X102425318Y-96898097D01*
X102447132Y-96917868D01*
X102466903Y-96939682D01*
X102484441Y-96963328D01*
X102499576Y-96988580D01*
X102512164Y-97015194D01*
X102522082Y-97042914D01*
X102529236Y-97071472D01*
X102533555Y-97100594D01*
X102535000Y-97129999D01*
X102535000Y-98730001D01*
X102533555Y-98759406D01*
X102529236Y-98788528D01*
X102522082Y-98817086D01*
X102512164Y-98844806D01*
X102499576Y-98871420D01*
X102484441Y-98896672D01*
X102466903Y-98920318D01*
X102447132Y-98942132D01*
X102425318Y-98961903D01*
X102401672Y-98979441D01*
X102376420Y-98994576D01*
X102349806Y-99007164D01*
X102322086Y-99017082D01*
X102293528Y-99024236D01*
X102264406Y-99028555D01*
X102235001Y-99030000D01*
X102234999Y-99030000D01*
X102205594Y-99028555D01*
X102176472Y-99024236D01*
X102147914Y-99017082D01*
X102120194Y-99007164D01*
X102093580Y-98994576D01*
X102068328Y-98979441D01*
X102044682Y-98961903D01*
X102022868Y-98942132D01*
X102003097Y-98920318D01*
X101985559Y-98896672D01*
X101970424Y-98871420D01*
X101957836Y-98844806D01*
X101947918Y-98817086D01*
X101940764Y-98788528D01*
X101936445Y-98759406D01*
X101935000Y-98730001D01*
X101935000Y-97129999D01*
X101936445Y-97100594D01*
X101940764Y-97071472D01*
X101947918Y-97042914D01*
X101957836Y-97015194D01*
X101970424Y-96988580D01*
X101985559Y-96963328D01*
X102003097Y-96939682D01*
X102022868Y-96917868D01*
X102044682Y-96898097D01*
X102068328Y-96880559D01*
X102093580Y-96865424D01*
X102120194Y-96852836D01*
X102147914Y-96842918D01*
X102176472Y-96835764D01*
X102205594Y-96831445D01*
X102234999Y-96830000D01*
X102235001Y-96830000D01*
X102264406Y-96831445D01*
X102264406Y-96831445D01*
G37*
D14*
X102235000Y-97930000D03*
G04 #@! TD*
D10*
G04 #@! TO.C,U2Solar1*
G36*
X111154406Y-66071445D02*
X111183528Y-66075764D01*
X111212086Y-66082918D01*
X111239806Y-66092836D01*
X111266420Y-66105424D01*
X111291672Y-66120559D01*
X111315318Y-66138097D01*
X111337132Y-66157868D01*
X111356903Y-66179682D01*
X111374441Y-66203328D01*
X111389576Y-66228580D01*
X111402164Y-66255194D01*
X111412082Y-66282914D01*
X111419236Y-66311472D01*
X111423555Y-66340594D01*
X111425000Y-66369999D01*
X111425000Y-67970001D01*
X111423555Y-67999406D01*
X111419236Y-68028528D01*
X111412082Y-68057086D01*
X111402164Y-68084806D01*
X111389576Y-68111420D01*
X111374441Y-68136672D01*
X111356903Y-68160318D01*
X111337132Y-68182132D01*
X111315318Y-68201903D01*
X111291672Y-68219441D01*
X111266420Y-68234576D01*
X111239806Y-68247164D01*
X111212086Y-68257082D01*
X111183528Y-68264236D01*
X111154406Y-68268555D01*
X111125001Y-68270000D01*
X111124999Y-68270000D01*
X111095594Y-68268555D01*
X111066472Y-68264236D01*
X111037914Y-68257082D01*
X111010194Y-68247164D01*
X110983580Y-68234576D01*
X110958328Y-68219441D01*
X110934682Y-68201903D01*
X110912868Y-68182132D01*
X110893097Y-68160318D01*
X110875559Y-68136672D01*
X110860424Y-68111420D01*
X110847836Y-68084806D01*
X110837918Y-68057086D01*
X110830764Y-68028528D01*
X110826445Y-67999406D01*
X110825000Y-67970001D01*
X110825000Y-66369999D01*
X110826445Y-66340594D01*
X110830764Y-66311472D01*
X110837918Y-66282914D01*
X110847836Y-66255194D01*
X110860424Y-66228580D01*
X110875559Y-66203328D01*
X110893097Y-66179682D01*
X110912868Y-66157868D01*
X110934682Y-66138097D01*
X110958328Y-66120559D01*
X110983580Y-66105424D01*
X111010194Y-66092836D01*
X111037914Y-66082918D01*
X111066472Y-66075764D01*
X111095594Y-66071445D01*
X111124999Y-66070000D01*
X111125001Y-66070000D01*
X111154406Y-66071445D01*
X111154406Y-66071445D01*
G37*
D14*
X111125000Y-67170000D03*
D10*
G36*
X109884406Y-66071445D02*
X109913528Y-66075764D01*
X109942086Y-66082918D01*
X109969806Y-66092836D01*
X109996420Y-66105424D01*
X110021672Y-66120559D01*
X110045318Y-66138097D01*
X110067132Y-66157868D01*
X110086903Y-66179682D01*
X110104441Y-66203328D01*
X110119576Y-66228580D01*
X110132164Y-66255194D01*
X110142082Y-66282914D01*
X110149236Y-66311472D01*
X110153555Y-66340594D01*
X110155000Y-66369999D01*
X110155000Y-67970001D01*
X110153555Y-67999406D01*
X110149236Y-68028528D01*
X110142082Y-68057086D01*
X110132164Y-68084806D01*
X110119576Y-68111420D01*
X110104441Y-68136672D01*
X110086903Y-68160318D01*
X110067132Y-68182132D01*
X110045318Y-68201903D01*
X110021672Y-68219441D01*
X109996420Y-68234576D01*
X109969806Y-68247164D01*
X109942086Y-68257082D01*
X109913528Y-68264236D01*
X109884406Y-68268555D01*
X109855001Y-68270000D01*
X109854999Y-68270000D01*
X109825594Y-68268555D01*
X109796472Y-68264236D01*
X109767914Y-68257082D01*
X109740194Y-68247164D01*
X109713580Y-68234576D01*
X109688328Y-68219441D01*
X109664682Y-68201903D01*
X109642868Y-68182132D01*
X109623097Y-68160318D01*
X109605559Y-68136672D01*
X109590424Y-68111420D01*
X109577836Y-68084806D01*
X109567918Y-68057086D01*
X109560764Y-68028528D01*
X109556445Y-67999406D01*
X109555000Y-67970001D01*
X109555000Y-66369999D01*
X109556445Y-66340594D01*
X109560764Y-66311472D01*
X109567918Y-66282914D01*
X109577836Y-66255194D01*
X109590424Y-66228580D01*
X109605559Y-66203328D01*
X109623097Y-66179682D01*
X109642868Y-66157868D01*
X109664682Y-66138097D01*
X109688328Y-66120559D01*
X109713580Y-66105424D01*
X109740194Y-66092836D01*
X109767914Y-66082918D01*
X109796472Y-66075764D01*
X109825594Y-66071445D01*
X109854999Y-66070000D01*
X109855001Y-66070000D01*
X109884406Y-66071445D01*
X109884406Y-66071445D01*
G37*
D14*
X109855000Y-67170000D03*
D10*
G36*
X108614406Y-66071445D02*
X108643528Y-66075764D01*
X108672086Y-66082918D01*
X108699806Y-66092836D01*
X108726420Y-66105424D01*
X108751672Y-66120559D01*
X108775318Y-66138097D01*
X108797132Y-66157868D01*
X108816903Y-66179682D01*
X108834441Y-66203328D01*
X108849576Y-66228580D01*
X108862164Y-66255194D01*
X108872082Y-66282914D01*
X108879236Y-66311472D01*
X108883555Y-66340594D01*
X108885000Y-66369999D01*
X108885000Y-67970001D01*
X108883555Y-67999406D01*
X108879236Y-68028528D01*
X108872082Y-68057086D01*
X108862164Y-68084806D01*
X108849576Y-68111420D01*
X108834441Y-68136672D01*
X108816903Y-68160318D01*
X108797132Y-68182132D01*
X108775318Y-68201903D01*
X108751672Y-68219441D01*
X108726420Y-68234576D01*
X108699806Y-68247164D01*
X108672086Y-68257082D01*
X108643528Y-68264236D01*
X108614406Y-68268555D01*
X108585001Y-68270000D01*
X108584999Y-68270000D01*
X108555594Y-68268555D01*
X108526472Y-68264236D01*
X108497914Y-68257082D01*
X108470194Y-68247164D01*
X108443580Y-68234576D01*
X108418328Y-68219441D01*
X108394682Y-68201903D01*
X108372868Y-68182132D01*
X108353097Y-68160318D01*
X108335559Y-68136672D01*
X108320424Y-68111420D01*
X108307836Y-68084806D01*
X108297918Y-68057086D01*
X108290764Y-68028528D01*
X108286445Y-67999406D01*
X108285000Y-67970001D01*
X108285000Y-66369999D01*
X108286445Y-66340594D01*
X108290764Y-66311472D01*
X108297918Y-66282914D01*
X108307836Y-66255194D01*
X108320424Y-66228580D01*
X108335559Y-66203328D01*
X108353097Y-66179682D01*
X108372868Y-66157868D01*
X108394682Y-66138097D01*
X108418328Y-66120559D01*
X108443580Y-66105424D01*
X108470194Y-66092836D01*
X108497914Y-66082918D01*
X108526472Y-66075764D01*
X108555594Y-66071445D01*
X108584999Y-66070000D01*
X108585001Y-66070000D01*
X108614406Y-66071445D01*
X108614406Y-66071445D01*
G37*
D14*
X108585000Y-67170000D03*
D10*
G36*
X107344406Y-66071445D02*
X107373528Y-66075764D01*
X107402086Y-66082918D01*
X107429806Y-66092836D01*
X107456420Y-66105424D01*
X107481672Y-66120559D01*
X107505318Y-66138097D01*
X107527132Y-66157868D01*
X107546903Y-66179682D01*
X107564441Y-66203328D01*
X107579576Y-66228580D01*
X107592164Y-66255194D01*
X107602082Y-66282914D01*
X107609236Y-66311472D01*
X107613555Y-66340594D01*
X107615000Y-66369999D01*
X107615000Y-67970001D01*
X107613555Y-67999406D01*
X107609236Y-68028528D01*
X107602082Y-68057086D01*
X107592164Y-68084806D01*
X107579576Y-68111420D01*
X107564441Y-68136672D01*
X107546903Y-68160318D01*
X107527132Y-68182132D01*
X107505318Y-68201903D01*
X107481672Y-68219441D01*
X107456420Y-68234576D01*
X107429806Y-68247164D01*
X107402086Y-68257082D01*
X107373528Y-68264236D01*
X107344406Y-68268555D01*
X107315001Y-68270000D01*
X107314999Y-68270000D01*
X107285594Y-68268555D01*
X107256472Y-68264236D01*
X107227914Y-68257082D01*
X107200194Y-68247164D01*
X107173580Y-68234576D01*
X107148328Y-68219441D01*
X107124682Y-68201903D01*
X107102868Y-68182132D01*
X107083097Y-68160318D01*
X107065559Y-68136672D01*
X107050424Y-68111420D01*
X107037836Y-68084806D01*
X107027918Y-68057086D01*
X107020764Y-68028528D01*
X107016445Y-67999406D01*
X107015000Y-67970001D01*
X107015000Y-66369999D01*
X107016445Y-66340594D01*
X107020764Y-66311472D01*
X107027918Y-66282914D01*
X107037836Y-66255194D01*
X107050424Y-66228580D01*
X107065559Y-66203328D01*
X107083097Y-66179682D01*
X107102868Y-66157868D01*
X107124682Y-66138097D01*
X107148328Y-66120559D01*
X107173580Y-66105424D01*
X107200194Y-66092836D01*
X107227914Y-66082918D01*
X107256472Y-66075764D01*
X107285594Y-66071445D01*
X107314999Y-66070000D01*
X107315001Y-66070000D01*
X107344406Y-66071445D01*
X107344406Y-66071445D01*
G37*
D14*
X107315000Y-67170000D03*
D10*
G36*
X106074406Y-66071445D02*
X106103528Y-66075764D01*
X106132086Y-66082918D01*
X106159806Y-66092836D01*
X106186420Y-66105424D01*
X106211672Y-66120559D01*
X106235318Y-66138097D01*
X106257132Y-66157868D01*
X106276903Y-66179682D01*
X106294441Y-66203328D01*
X106309576Y-66228580D01*
X106322164Y-66255194D01*
X106332082Y-66282914D01*
X106339236Y-66311472D01*
X106343555Y-66340594D01*
X106345000Y-66369999D01*
X106345000Y-67970001D01*
X106343555Y-67999406D01*
X106339236Y-68028528D01*
X106332082Y-68057086D01*
X106322164Y-68084806D01*
X106309576Y-68111420D01*
X106294441Y-68136672D01*
X106276903Y-68160318D01*
X106257132Y-68182132D01*
X106235318Y-68201903D01*
X106211672Y-68219441D01*
X106186420Y-68234576D01*
X106159806Y-68247164D01*
X106132086Y-68257082D01*
X106103528Y-68264236D01*
X106074406Y-68268555D01*
X106045001Y-68270000D01*
X106044999Y-68270000D01*
X106015594Y-68268555D01*
X105986472Y-68264236D01*
X105957914Y-68257082D01*
X105930194Y-68247164D01*
X105903580Y-68234576D01*
X105878328Y-68219441D01*
X105854682Y-68201903D01*
X105832868Y-68182132D01*
X105813097Y-68160318D01*
X105795559Y-68136672D01*
X105780424Y-68111420D01*
X105767836Y-68084806D01*
X105757918Y-68057086D01*
X105750764Y-68028528D01*
X105746445Y-67999406D01*
X105745000Y-67970001D01*
X105745000Y-66369999D01*
X105746445Y-66340594D01*
X105750764Y-66311472D01*
X105757918Y-66282914D01*
X105767836Y-66255194D01*
X105780424Y-66228580D01*
X105795559Y-66203328D01*
X105813097Y-66179682D01*
X105832868Y-66157868D01*
X105854682Y-66138097D01*
X105878328Y-66120559D01*
X105903580Y-66105424D01*
X105930194Y-66092836D01*
X105957914Y-66082918D01*
X105986472Y-66075764D01*
X106015594Y-66071445D01*
X106044999Y-66070000D01*
X106045001Y-66070000D01*
X106074406Y-66071445D01*
X106074406Y-66071445D01*
G37*
D14*
X106045000Y-67170000D03*
D10*
G36*
X104804406Y-66071445D02*
X104833528Y-66075764D01*
X104862086Y-66082918D01*
X104889806Y-66092836D01*
X104916420Y-66105424D01*
X104941672Y-66120559D01*
X104965318Y-66138097D01*
X104987132Y-66157868D01*
X105006903Y-66179682D01*
X105024441Y-66203328D01*
X105039576Y-66228580D01*
X105052164Y-66255194D01*
X105062082Y-66282914D01*
X105069236Y-66311472D01*
X105073555Y-66340594D01*
X105075000Y-66369999D01*
X105075000Y-67970001D01*
X105073555Y-67999406D01*
X105069236Y-68028528D01*
X105062082Y-68057086D01*
X105052164Y-68084806D01*
X105039576Y-68111420D01*
X105024441Y-68136672D01*
X105006903Y-68160318D01*
X104987132Y-68182132D01*
X104965318Y-68201903D01*
X104941672Y-68219441D01*
X104916420Y-68234576D01*
X104889806Y-68247164D01*
X104862086Y-68257082D01*
X104833528Y-68264236D01*
X104804406Y-68268555D01*
X104775001Y-68270000D01*
X104774999Y-68270000D01*
X104745594Y-68268555D01*
X104716472Y-68264236D01*
X104687914Y-68257082D01*
X104660194Y-68247164D01*
X104633580Y-68234576D01*
X104608328Y-68219441D01*
X104584682Y-68201903D01*
X104562868Y-68182132D01*
X104543097Y-68160318D01*
X104525559Y-68136672D01*
X104510424Y-68111420D01*
X104497836Y-68084806D01*
X104487918Y-68057086D01*
X104480764Y-68028528D01*
X104476445Y-67999406D01*
X104475000Y-67970001D01*
X104475000Y-66369999D01*
X104476445Y-66340594D01*
X104480764Y-66311472D01*
X104487918Y-66282914D01*
X104497836Y-66255194D01*
X104510424Y-66228580D01*
X104525559Y-66203328D01*
X104543097Y-66179682D01*
X104562868Y-66157868D01*
X104584682Y-66138097D01*
X104608328Y-66120559D01*
X104633580Y-66105424D01*
X104660194Y-66092836D01*
X104687914Y-66082918D01*
X104716472Y-66075764D01*
X104745594Y-66071445D01*
X104774999Y-66070000D01*
X104775001Y-66070000D01*
X104804406Y-66071445D01*
X104804406Y-66071445D01*
G37*
D14*
X104775000Y-67170000D03*
D10*
G36*
X103534406Y-66071445D02*
X103563528Y-66075764D01*
X103592086Y-66082918D01*
X103619806Y-66092836D01*
X103646420Y-66105424D01*
X103671672Y-66120559D01*
X103695318Y-66138097D01*
X103717132Y-66157868D01*
X103736903Y-66179682D01*
X103754441Y-66203328D01*
X103769576Y-66228580D01*
X103782164Y-66255194D01*
X103792082Y-66282914D01*
X103799236Y-66311472D01*
X103803555Y-66340594D01*
X103805000Y-66369999D01*
X103805000Y-67970001D01*
X103803555Y-67999406D01*
X103799236Y-68028528D01*
X103792082Y-68057086D01*
X103782164Y-68084806D01*
X103769576Y-68111420D01*
X103754441Y-68136672D01*
X103736903Y-68160318D01*
X103717132Y-68182132D01*
X103695318Y-68201903D01*
X103671672Y-68219441D01*
X103646420Y-68234576D01*
X103619806Y-68247164D01*
X103592086Y-68257082D01*
X103563528Y-68264236D01*
X103534406Y-68268555D01*
X103505001Y-68270000D01*
X103504999Y-68270000D01*
X103475594Y-68268555D01*
X103446472Y-68264236D01*
X103417914Y-68257082D01*
X103390194Y-68247164D01*
X103363580Y-68234576D01*
X103338328Y-68219441D01*
X103314682Y-68201903D01*
X103292868Y-68182132D01*
X103273097Y-68160318D01*
X103255559Y-68136672D01*
X103240424Y-68111420D01*
X103227836Y-68084806D01*
X103217918Y-68057086D01*
X103210764Y-68028528D01*
X103206445Y-67999406D01*
X103205000Y-67970001D01*
X103205000Y-66369999D01*
X103206445Y-66340594D01*
X103210764Y-66311472D01*
X103217918Y-66282914D01*
X103227836Y-66255194D01*
X103240424Y-66228580D01*
X103255559Y-66203328D01*
X103273097Y-66179682D01*
X103292868Y-66157868D01*
X103314682Y-66138097D01*
X103338328Y-66120559D01*
X103363580Y-66105424D01*
X103390194Y-66092836D01*
X103417914Y-66082918D01*
X103446472Y-66075764D01*
X103475594Y-66071445D01*
X103504999Y-66070000D01*
X103505001Y-66070000D01*
X103534406Y-66071445D01*
X103534406Y-66071445D01*
G37*
D14*
X103505000Y-67170000D03*
D10*
G36*
X102264406Y-66071445D02*
X102293528Y-66075764D01*
X102322086Y-66082918D01*
X102349806Y-66092836D01*
X102376420Y-66105424D01*
X102401672Y-66120559D01*
X102425318Y-66138097D01*
X102447132Y-66157868D01*
X102466903Y-66179682D01*
X102484441Y-66203328D01*
X102499576Y-66228580D01*
X102512164Y-66255194D01*
X102522082Y-66282914D01*
X102529236Y-66311472D01*
X102533555Y-66340594D01*
X102535000Y-66369999D01*
X102535000Y-67970001D01*
X102533555Y-67999406D01*
X102529236Y-68028528D01*
X102522082Y-68057086D01*
X102512164Y-68084806D01*
X102499576Y-68111420D01*
X102484441Y-68136672D01*
X102466903Y-68160318D01*
X102447132Y-68182132D01*
X102425318Y-68201903D01*
X102401672Y-68219441D01*
X102376420Y-68234576D01*
X102349806Y-68247164D01*
X102322086Y-68257082D01*
X102293528Y-68264236D01*
X102264406Y-68268555D01*
X102235001Y-68270000D01*
X102234999Y-68270000D01*
X102205594Y-68268555D01*
X102176472Y-68264236D01*
X102147914Y-68257082D01*
X102120194Y-68247164D01*
X102093580Y-68234576D01*
X102068328Y-68219441D01*
X102044682Y-68201903D01*
X102022868Y-68182132D01*
X102003097Y-68160318D01*
X101985559Y-68136672D01*
X101970424Y-68111420D01*
X101957836Y-68084806D01*
X101947918Y-68057086D01*
X101940764Y-68028528D01*
X101936445Y-67999406D01*
X101935000Y-67970001D01*
X101935000Y-66369999D01*
X101936445Y-66340594D01*
X101940764Y-66311472D01*
X101947918Y-66282914D01*
X101957836Y-66255194D01*
X101970424Y-66228580D01*
X101985559Y-66203328D01*
X102003097Y-66179682D01*
X102022868Y-66157868D01*
X102044682Y-66138097D01*
X102068328Y-66120559D01*
X102093580Y-66105424D01*
X102120194Y-66092836D01*
X102147914Y-66082918D01*
X102176472Y-66075764D01*
X102205594Y-66071445D01*
X102234999Y-66070000D01*
X102235001Y-66070000D01*
X102264406Y-66071445D01*
X102264406Y-66071445D01*
G37*
D14*
X102235000Y-67170000D03*
D10*
G36*
X111154406Y-61271445D02*
X111183528Y-61275764D01*
X111212086Y-61282918D01*
X111239806Y-61292836D01*
X111266420Y-61305424D01*
X111291672Y-61320559D01*
X111315318Y-61338097D01*
X111337132Y-61357868D01*
X111356903Y-61379682D01*
X111374441Y-61403328D01*
X111389576Y-61428580D01*
X111402164Y-61455194D01*
X111412082Y-61482914D01*
X111419236Y-61511472D01*
X111423555Y-61540594D01*
X111425000Y-61569999D01*
X111425000Y-63170001D01*
X111423555Y-63199406D01*
X111419236Y-63228528D01*
X111412082Y-63257086D01*
X111402164Y-63284806D01*
X111389576Y-63311420D01*
X111374441Y-63336672D01*
X111356903Y-63360318D01*
X111337132Y-63382132D01*
X111315318Y-63401903D01*
X111291672Y-63419441D01*
X111266420Y-63434576D01*
X111239806Y-63447164D01*
X111212086Y-63457082D01*
X111183528Y-63464236D01*
X111154406Y-63468555D01*
X111125001Y-63470000D01*
X111124999Y-63470000D01*
X111095594Y-63468555D01*
X111066472Y-63464236D01*
X111037914Y-63457082D01*
X111010194Y-63447164D01*
X110983580Y-63434576D01*
X110958328Y-63419441D01*
X110934682Y-63401903D01*
X110912868Y-63382132D01*
X110893097Y-63360318D01*
X110875559Y-63336672D01*
X110860424Y-63311420D01*
X110847836Y-63284806D01*
X110837918Y-63257086D01*
X110830764Y-63228528D01*
X110826445Y-63199406D01*
X110825000Y-63170001D01*
X110825000Y-61569999D01*
X110826445Y-61540594D01*
X110830764Y-61511472D01*
X110837918Y-61482914D01*
X110847836Y-61455194D01*
X110860424Y-61428580D01*
X110875559Y-61403328D01*
X110893097Y-61379682D01*
X110912868Y-61357868D01*
X110934682Y-61338097D01*
X110958328Y-61320559D01*
X110983580Y-61305424D01*
X111010194Y-61292836D01*
X111037914Y-61282918D01*
X111066472Y-61275764D01*
X111095594Y-61271445D01*
X111124999Y-61270000D01*
X111125001Y-61270000D01*
X111154406Y-61271445D01*
X111154406Y-61271445D01*
G37*
D14*
X111125000Y-62370000D03*
D10*
G36*
X109884406Y-61271445D02*
X109913528Y-61275764D01*
X109942086Y-61282918D01*
X109969806Y-61292836D01*
X109996420Y-61305424D01*
X110021672Y-61320559D01*
X110045318Y-61338097D01*
X110067132Y-61357868D01*
X110086903Y-61379682D01*
X110104441Y-61403328D01*
X110119576Y-61428580D01*
X110132164Y-61455194D01*
X110142082Y-61482914D01*
X110149236Y-61511472D01*
X110153555Y-61540594D01*
X110155000Y-61569999D01*
X110155000Y-63170001D01*
X110153555Y-63199406D01*
X110149236Y-63228528D01*
X110142082Y-63257086D01*
X110132164Y-63284806D01*
X110119576Y-63311420D01*
X110104441Y-63336672D01*
X110086903Y-63360318D01*
X110067132Y-63382132D01*
X110045318Y-63401903D01*
X110021672Y-63419441D01*
X109996420Y-63434576D01*
X109969806Y-63447164D01*
X109942086Y-63457082D01*
X109913528Y-63464236D01*
X109884406Y-63468555D01*
X109855001Y-63470000D01*
X109854999Y-63470000D01*
X109825594Y-63468555D01*
X109796472Y-63464236D01*
X109767914Y-63457082D01*
X109740194Y-63447164D01*
X109713580Y-63434576D01*
X109688328Y-63419441D01*
X109664682Y-63401903D01*
X109642868Y-63382132D01*
X109623097Y-63360318D01*
X109605559Y-63336672D01*
X109590424Y-63311420D01*
X109577836Y-63284806D01*
X109567918Y-63257086D01*
X109560764Y-63228528D01*
X109556445Y-63199406D01*
X109555000Y-63170001D01*
X109555000Y-61569999D01*
X109556445Y-61540594D01*
X109560764Y-61511472D01*
X109567918Y-61482914D01*
X109577836Y-61455194D01*
X109590424Y-61428580D01*
X109605559Y-61403328D01*
X109623097Y-61379682D01*
X109642868Y-61357868D01*
X109664682Y-61338097D01*
X109688328Y-61320559D01*
X109713580Y-61305424D01*
X109740194Y-61292836D01*
X109767914Y-61282918D01*
X109796472Y-61275764D01*
X109825594Y-61271445D01*
X109854999Y-61270000D01*
X109855001Y-61270000D01*
X109884406Y-61271445D01*
X109884406Y-61271445D01*
G37*
D14*
X109855000Y-62370000D03*
D10*
G36*
X108614406Y-61271445D02*
X108643528Y-61275764D01*
X108672086Y-61282918D01*
X108699806Y-61292836D01*
X108726420Y-61305424D01*
X108751672Y-61320559D01*
X108775318Y-61338097D01*
X108797132Y-61357868D01*
X108816903Y-61379682D01*
X108834441Y-61403328D01*
X108849576Y-61428580D01*
X108862164Y-61455194D01*
X108872082Y-61482914D01*
X108879236Y-61511472D01*
X108883555Y-61540594D01*
X108885000Y-61569999D01*
X108885000Y-63170001D01*
X108883555Y-63199406D01*
X108879236Y-63228528D01*
X108872082Y-63257086D01*
X108862164Y-63284806D01*
X108849576Y-63311420D01*
X108834441Y-63336672D01*
X108816903Y-63360318D01*
X108797132Y-63382132D01*
X108775318Y-63401903D01*
X108751672Y-63419441D01*
X108726420Y-63434576D01*
X108699806Y-63447164D01*
X108672086Y-63457082D01*
X108643528Y-63464236D01*
X108614406Y-63468555D01*
X108585001Y-63470000D01*
X108584999Y-63470000D01*
X108555594Y-63468555D01*
X108526472Y-63464236D01*
X108497914Y-63457082D01*
X108470194Y-63447164D01*
X108443580Y-63434576D01*
X108418328Y-63419441D01*
X108394682Y-63401903D01*
X108372868Y-63382132D01*
X108353097Y-63360318D01*
X108335559Y-63336672D01*
X108320424Y-63311420D01*
X108307836Y-63284806D01*
X108297918Y-63257086D01*
X108290764Y-63228528D01*
X108286445Y-63199406D01*
X108285000Y-63170001D01*
X108285000Y-61569999D01*
X108286445Y-61540594D01*
X108290764Y-61511472D01*
X108297918Y-61482914D01*
X108307836Y-61455194D01*
X108320424Y-61428580D01*
X108335559Y-61403328D01*
X108353097Y-61379682D01*
X108372868Y-61357868D01*
X108394682Y-61338097D01*
X108418328Y-61320559D01*
X108443580Y-61305424D01*
X108470194Y-61292836D01*
X108497914Y-61282918D01*
X108526472Y-61275764D01*
X108555594Y-61271445D01*
X108584999Y-61270000D01*
X108585001Y-61270000D01*
X108614406Y-61271445D01*
X108614406Y-61271445D01*
G37*
D14*
X108585000Y-62370000D03*
D10*
G36*
X107344406Y-61271445D02*
X107373528Y-61275764D01*
X107402086Y-61282918D01*
X107429806Y-61292836D01*
X107456420Y-61305424D01*
X107481672Y-61320559D01*
X107505318Y-61338097D01*
X107527132Y-61357868D01*
X107546903Y-61379682D01*
X107564441Y-61403328D01*
X107579576Y-61428580D01*
X107592164Y-61455194D01*
X107602082Y-61482914D01*
X107609236Y-61511472D01*
X107613555Y-61540594D01*
X107615000Y-61569999D01*
X107615000Y-63170001D01*
X107613555Y-63199406D01*
X107609236Y-63228528D01*
X107602082Y-63257086D01*
X107592164Y-63284806D01*
X107579576Y-63311420D01*
X107564441Y-63336672D01*
X107546903Y-63360318D01*
X107527132Y-63382132D01*
X107505318Y-63401903D01*
X107481672Y-63419441D01*
X107456420Y-63434576D01*
X107429806Y-63447164D01*
X107402086Y-63457082D01*
X107373528Y-63464236D01*
X107344406Y-63468555D01*
X107315001Y-63470000D01*
X107314999Y-63470000D01*
X107285594Y-63468555D01*
X107256472Y-63464236D01*
X107227914Y-63457082D01*
X107200194Y-63447164D01*
X107173580Y-63434576D01*
X107148328Y-63419441D01*
X107124682Y-63401903D01*
X107102868Y-63382132D01*
X107083097Y-63360318D01*
X107065559Y-63336672D01*
X107050424Y-63311420D01*
X107037836Y-63284806D01*
X107027918Y-63257086D01*
X107020764Y-63228528D01*
X107016445Y-63199406D01*
X107015000Y-63170001D01*
X107015000Y-61569999D01*
X107016445Y-61540594D01*
X107020764Y-61511472D01*
X107027918Y-61482914D01*
X107037836Y-61455194D01*
X107050424Y-61428580D01*
X107065559Y-61403328D01*
X107083097Y-61379682D01*
X107102868Y-61357868D01*
X107124682Y-61338097D01*
X107148328Y-61320559D01*
X107173580Y-61305424D01*
X107200194Y-61292836D01*
X107227914Y-61282918D01*
X107256472Y-61275764D01*
X107285594Y-61271445D01*
X107314999Y-61270000D01*
X107315001Y-61270000D01*
X107344406Y-61271445D01*
X107344406Y-61271445D01*
G37*
D14*
X107315000Y-62370000D03*
D10*
G36*
X106074406Y-61271445D02*
X106103528Y-61275764D01*
X106132086Y-61282918D01*
X106159806Y-61292836D01*
X106186420Y-61305424D01*
X106211672Y-61320559D01*
X106235318Y-61338097D01*
X106257132Y-61357868D01*
X106276903Y-61379682D01*
X106294441Y-61403328D01*
X106309576Y-61428580D01*
X106322164Y-61455194D01*
X106332082Y-61482914D01*
X106339236Y-61511472D01*
X106343555Y-61540594D01*
X106345000Y-61569999D01*
X106345000Y-63170001D01*
X106343555Y-63199406D01*
X106339236Y-63228528D01*
X106332082Y-63257086D01*
X106322164Y-63284806D01*
X106309576Y-63311420D01*
X106294441Y-63336672D01*
X106276903Y-63360318D01*
X106257132Y-63382132D01*
X106235318Y-63401903D01*
X106211672Y-63419441D01*
X106186420Y-63434576D01*
X106159806Y-63447164D01*
X106132086Y-63457082D01*
X106103528Y-63464236D01*
X106074406Y-63468555D01*
X106045001Y-63470000D01*
X106044999Y-63470000D01*
X106015594Y-63468555D01*
X105986472Y-63464236D01*
X105957914Y-63457082D01*
X105930194Y-63447164D01*
X105903580Y-63434576D01*
X105878328Y-63419441D01*
X105854682Y-63401903D01*
X105832868Y-63382132D01*
X105813097Y-63360318D01*
X105795559Y-63336672D01*
X105780424Y-63311420D01*
X105767836Y-63284806D01*
X105757918Y-63257086D01*
X105750764Y-63228528D01*
X105746445Y-63199406D01*
X105745000Y-63170001D01*
X105745000Y-61569999D01*
X105746445Y-61540594D01*
X105750764Y-61511472D01*
X105757918Y-61482914D01*
X105767836Y-61455194D01*
X105780424Y-61428580D01*
X105795559Y-61403328D01*
X105813097Y-61379682D01*
X105832868Y-61357868D01*
X105854682Y-61338097D01*
X105878328Y-61320559D01*
X105903580Y-61305424D01*
X105930194Y-61292836D01*
X105957914Y-61282918D01*
X105986472Y-61275764D01*
X106015594Y-61271445D01*
X106044999Y-61270000D01*
X106045001Y-61270000D01*
X106074406Y-61271445D01*
X106074406Y-61271445D01*
G37*
D14*
X106045000Y-62370000D03*
D10*
G36*
X104804406Y-61271445D02*
X104833528Y-61275764D01*
X104862086Y-61282918D01*
X104889806Y-61292836D01*
X104916420Y-61305424D01*
X104941672Y-61320559D01*
X104965318Y-61338097D01*
X104987132Y-61357868D01*
X105006903Y-61379682D01*
X105024441Y-61403328D01*
X105039576Y-61428580D01*
X105052164Y-61455194D01*
X105062082Y-61482914D01*
X105069236Y-61511472D01*
X105073555Y-61540594D01*
X105075000Y-61569999D01*
X105075000Y-63170001D01*
X105073555Y-63199406D01*
X105069236Y-63228528D01*
X105062082Y-63257086D01*
X105052164Y-63284806D01*
X105039576Y-63311420D01*
X105024441Y-63336672D01*
X105006903Y-63360318D01*
X104987132Y-63382132D01*
X104965318Y-63401903D01*
X104941672Y-63419441D01*
X104916420Y-63434576D01*
X104889806Y-63447164D01*
X104862086Y-63457082D01*
X104833528Y-63464236D01*
X104804406Y-63468555D01*
X104775001Y-63470000D01*
X104774999Y-63470000D01*
X104745594Y-63468555D01*
X104716472Y-63464236D01*
X104687914Y-63457082D01*
X104660194Y-63447164D01*
X104633580Y-63434576D01*
X104608328Y-63419441D01*
X104584682Y-63401903D01*
X104562868Y-63382132D01*
X104543097Y-63360318D01*
X104525559Y-63336672D01*
X104510424Y-63311420D01*
X104497836Y-63284806D01*
X104487918Y-63257086D01*
X104480764Y-63228528D01*
X104476445Y-63199406D01*
X104475000Y-63170001D01*
X104475000Y-61569999D01*
X104476445Y-61540594D01*
X104480764Y-61511472D01*
X104487918Y-61482914D01*
X104497836Y-61455194D01*
X104510424Y-61428580D01*
X104525559Y-61403328D01*
X104543097Y-61379682D01*
X104562868Y-61357868D01*
X104584682Y-61338097D01*
X104608328Y-61320559D01*
X104633580Y-61305424D01*
X104660194Y-61292836D01*
X104687914Y-61282918D01*
X104716472Y-61275764D01*
X104745594Y-61271445D01*
X104774999Y-61270000D01*
X104775001Y-61270000D01*
X104804406Y-61271445D01*
X104804406Y-61271445D01*
G37*
D14*
X104775000Y-62370000D03*
D10*
G36*
X103534406Y-61271445D02*
X103563528Y-61275764D01*
X103592086Y-61282918D01*
X103619806Y-61292836D01*
X103646420Y-61305424D01*
X103671672Y-61320559D01*
X103695318Y-61338097D01*
X103717132Y-61357868D01*
X103736903Y-61379682D01*
X103754441Y-61403328D01*
X103769576Y-61428580D01*
X103782164Y-61455194D01*
X103792082Y-61482914D01*
X103799236Y-61511472D01*
X103803555Y-61540594D01*
X103805000Y-61569999D01*
X103805000Y-63170001D01*
X103803555Y-63199406D01*
X103799236Y-63228528D01*
X103792082Y-63257086D01*
X103782164Y-63284806D01*
X103769576Y-63311420D01*
X103754441Y-63336672D01*
X103736903Y-63360318D01*
X103717132Y-63382132D01*
X103695318Y-63401903D01*
X103671672Y-63419441D01*
X103646420Y-63434576D01*
X103619806Y-63447164D01*
X103592086Y-63457082D01*
X103563528Y-63464236D01*
X103534406Y-63468555D01*
X103505001Y-63470000D01*
X103504999Y-63470000D01*
X103475594Y-63468555D01*
X103446472Y-63464236D01*
X103417914Y-63457082D01*
X103390194Y-63447164D01*
X103363580Y-63434576D01*
X103338328Y-63419441D01*
X103314682Y-63401903D01*
X103292868Y-63382132D01*
X103273097Y-63360318D01*
X103255559Y-63336672D01*
X103240424Y-63311420D01*
X103227836Y-63284806D01*
X103217918Y-63257086D01*
X103210764Y-63228528D01*
X103206445Y-63199406D01*
X103205000Y-63170001D01*
X103205000Y-61569999D01*
X103206445Y-61540594D01*
X103210764Y-61511472D01*
X103217918Y-61482914D01*
X103227836Y-61455194D01*
X103240424Y-61428580D01*
X103255559Y-61403328D01*
X103273097Y-61379682D01*
X103292868Y-61357868D01*
X103314682Y-61338097D01*
X103338328Y-61320559D01*
X103363580Y-61305424D01*
X103390194Y-61292836D01*
X103417914Y-61282918D01*
X103446472Y-61275764D01*
X103475594Y-61271445D01*
X103504999Y-61270000D01*
X103505001Y-61270000D01*
X103534406Y-61271445D01*
X103534406Y-61271445D01*
G37*
D14*
X103505000Y-62370000D03*
D10*
G36*
X102264406Y-61271445D02*
X102293528Y-61275764D01*
X102322086Y-61282918D01*
X102349806Y-61292836D01*
X102376420Y-61305424D01*
X102401672Y-61320559D01*
X102425318Y-61338097D01*
X102447132Y-61357868D01*
X102466903Y-61379682D01*
X102484441Y-61403328D01*
X102499576Y-61428580D01*
X102512164Y-61455194D01*
X102522082Y-61482914D01*
X102529236Y-61511472D01*
X102533555Y-61540594D01*
X102535000Y-61569999D01*
X102535000Y-63170001D01*
X102533555Y-63199406D01*
X102529236Y-63228528D01*
X102522082Y-63257086D01*
X102512164Y-63284806D01*
X102499576Y-63311420D01*
X102484441Y-63336672D01*
X102466903Y-63360318D01*
X102447132Y-63382132D01*
X102425318Y-63401903D01*
X102401672Y-63419441D01*
X102376420Y-63434576D01*
X102349806Y-63447164D01*
X102322086Y-63457082D01*
X102293528Y-63464236D01*
X102264406Y-63468555D01*
X102235001Y-63470000D01*
X102234999Y-63470000D01*
X102205594Y-63468555D01*
X102176472Y-63464236D01*
X102147914Y-63457082D01*
X102120194Y-63447164D01*
X102093580Y-63434576D01*
X102068328Y-63419441D01*
X102044682Y-63401903D01*
X102022868Y-63382132D01*
X102003097Y-63360318D01*
X101985559Y-63336672D01*
X101970424Y-63311420D01*
X101957836Y-63284806D01*
X101947918Y-63257086D01*
X101940764Y-63228528D01*
X101936445Y-63199406D01*
X101935000Y-63170001D01*
X101935000Y-61569999D01*
X101936445Y-61540594D01*
X101940764Y-61511472D01*
X101947918Y-61482914D01*
X101957836Y-61455194D01*
X101970424Y-61428580D01*
X101985559Y-61403328D01*
X102003097Y-61379682D01*
X102022868Y-61357868D01*
X102044682Y-61338097D01*
X102068328Y-61320559D01*
X102093580Y-61305424D01*
X102120194Y-61292836D01*
X102147914Y-61282918D01*
X102176472Y-61275764D01*
X102205594Y-61271445D01*
X102234999Y-61270000D01*
X102235001Y-61270000D01*
X102264406Y-61271445D01*
X102264406Y-61271445D01*
G37*
D14*
X102235000Y-62370000D03*
G04 #@! TD*
M02*
